M48
;Layer_Color=9474304
;FILE_FORMAT=4:4
METRIC,LZ
;TYPE=PLATED
T01F00S00C0.2000
T02F00S00C0.2030
T03F00S00C0.2032
T04F00S00C0.2500
T05F00S00C0.3175
T07F00S00C0.6858
T09F00S00C0.8900
T10F00S00C0.9000
T11F00S00C1.0160
T12F00S00C1.1000
T13F00S00C1.2000
;TYPE=NON_PLATED
T14F00S00C0.9000
%
T01
X00180085Y00079671
X00139796Y0009
Y0014
X00164079Y00130573
X0016395Y00179478
X00120583Y00221794
X00096247Y00314905
X00065085Y0031436
X00063647Y00365767
X00096587Y00404872
X00112625Y0039001
X00168598Y00418318
X0015666Y0044446
X0016212Y00457081
X00138125Y00471551
X00198283Y00467243
X0018246Y00494632
X00220114Y00433926
X00240471Y00434173
X00252829Y00259433
X00252659Y00205492
X003325Y00245173
X00336951Y00284034
X00337023Y0029503
X00397891Y00301602
X00381181Y00324369
X00530849Y00326144
X00540849
X00535849Y00333644
X00530849Y00341144
X00540849
X00179829Y001175
X00628803Y00184187
X00638879Y00292144
Y00300144
X00219883Y00518043
X0021983Y00532698
X0018893Y00528968
X0018942Y0050631
X00171026Y00516929
X00144414Y00553779
T02
X00629776Y00064274
X00611152Y00087171
X0061694Y00104256
X00110536Y00297426
X00129578Y00332245
X00140276Y00343928
X00146476Y00406281
X00101575Y00393416
X0012272Y00451928
X00219778Y00410778
X00226884Y00415777
X00240471Y00325271
X0024621Y00316572
X00246344Y00239607
X003675Y00135914
X00362853Y00379052
X00393284Y0040579
X0042234Y00428386
X00457728Y00446887
X00458898Y00472363
X00444284Y00470737
X00427967Y00349724
X00423143Y00329481
X00410515Y00363498
X003325Y00415928
X00330063Y00428435
X00510849Y00301356
X00545619Y00296143
X00559488Y00279208
X00564568Y00237015
X00595418Y00266639
X00621415Y00286976
X00589698Y00319559
X00575061
X00635563Y00341219
X00664802Y00350991
X00671727
X00715384Y00351057
X00731837Y00354302
X00742741Y00392647
X0069291Y00392265
X00664053Y00409096
X00655234Y00428088
X00659715Y00443292
X00659414Y00472047
Y00490217
X00712966Y00449751
X0059765Y00448656
X00586268Y00458515
X00581188Y00463928
X00652856Y00380564
X00743945Y0029713
X00701832Y00504832
X00655992Y00511224
X00638486Y0051639
X00607556Y0051285
X00608387Y00529258
X00652075Y00564056
X00653853Y00607744
X00644201Y0060749
X00625913
X00604833Y0061124
X00702621Y00569644
X00747037Y00555624
X00770635Y00601394
X00330063Y00532645
X00317978Y00523645
X0014458Y00568843
X00101575Y005875
T03
X00640474Y00044527
X00662595Y0008204
X00660527Y00098269
X00666488Y00104256
X00625449Y00089671
X00702876Y00049243
X00783844Y00051875
X00441104Y00048418
X00237342Y00064338
X00223436Y00079671
X00228516Y00103316
X00211772Y00105003
X00172735Y00105001
X00128112Y00105
X00122846Y00165
X0017046
X0016819Y00195963
X00168289Y00206952
X00168388Y00223303
X00163834Y00246059
X0016262Y00269124
X00154442Y00275
X00142125Y00281598
X00142355Y0031502
X00134658Y00390204
X00117861Y00379729
X0010508Y00366682
X000529Y00352428
X00053011Y00331928
X00063667Y0029912
X00063649Y00285724
X00062037Y00250315
X00107713Y00248916
X00109673Y00219462
X00138366Y00219762
X00046003Y00378314
X00033362Y00414251
Y00422668
X00057604Y00444381
Y00456351
X00082602Y00467269
X00037399Y00488763
X00171026Y00475928
Y00444991
X00222968Y00439928
X00235Y00463928
X003125Y00439928
X00325023Y00367928
Y0035607
X00328253Y00319928
X00355914Y00305516
X00325584Y00260729
X00309084Y00212266
X00302584Y00218206
X00285443Y00289532
X0020742Y00303749
X0020879Y00312366
X00198283Y00355368
X00188123Y00256686
X00179136Y00224364
X00204247Y00195963
X0021093Y00165003
X00445398Y00283644
X00473164Y00333898
X00472472Y003414
Y00348451
Y00355278
X00481108Y00355217
X00480701Y00332942
X0051071Y00328505
X00559293Y00328719
X0056381Y00334659
X00457728Y0036134
X00416942Y00354981
X00409943Y00331708
X00409954Y00485132
X00467438Y00484802
X00517502Y00479205
X00621332Y00464224
X00687875Y00426283
Y00415699
X00698459
X00693167Y00420991
X00698459Y00426283
X00677891Y00400153
Y00393408
X00684587Y00393436
Y00386374
Y00379694
X00677891Y00386094
X00746324Y00361579
X00792154Y00361523
X00794159Y00338108
X00792622Y00300445
X00787773Y00219678
X00756737Y00219805
X00783637Y00178459
X0080721Y0019325
X00687949Y0017
X00665637Y0018825
X00657481Y00211348
X00657557Y002175
X00657468Y0022487
X00657392Y00231576
X00650054Y002175
Y00211348
X00642338
X00642226Y002175
X00634799
X00634686Y00211348
X00629879Y00225186
X0061694Y00266639
X00616391Y00291144
X00616257Y00297812
X00595787Y00319559
X00585585Y00339242
X0062228Y0013822
X00642338Y00140633
X00783432Y0039526
X00790681
X00798154
X00806131Y00395495
X00814838Y00396012
X00815031Y00403218
X00814628Y00409854
X00822212Y0041028
X00822677Y0040313
X00822957Y00396075
X00512752Y00547844
X0046
X00424978Y00548481
X0040607
X00387104Y005658
X00365207Y0056551
X00343807Y0056548
X00322874Y00547928
X0022654Y00544528
X00201521Y00511966
X0018246Y00523645
X00399148Y00594662
X00398461Y0061248
X0039845Y00627818
X00444284Y00615002
X00469707Y00615087
X00495084Y0061447
X0015822Y00603645
X00159856Y00629398
X00171026Y00535928
X00096495Y00511212
X00037399Y0050819
T04
X00251207Y0035107
X00261207
Y0036107
X00251207
Y00379619
X00261207
Y00389619
X00251207
X00280443
Y00379619
X00290443
Y00389619
Y0036107
Y0035107
X00280443
Y0036107
X002825Y0048
X002925
Y0049
X002825
X00270681
Y0048
X00260681
Y0049
Y00502174
X00270681
X002825
X002925
Y00512174
X002825
X00270681
X00260681
T05
X00642779Y00065501
Y00118841
T07
X0058356Y00432833
X00735007Y00465856
T09
X0015314Y00467243
Y00492643
Y00518043
Y00543443
T10
X00200399Y00105003
X00152631Y00105002
X00105036Y00105
Y00125
Y00145
Y00165
X00152631Y00165002
Y00145002
Y00125002
X00200399Y00125003
Y00145003
Y00165003
X004575Y00375778
Y00395778
Y00415778
Y00435778
T11
X00192491Y0007
X00138008
X0014943Y00234723
X00137238Y00264375
X00112522Y00406281
X0011297Y0043371
X00112522Y00471551
X00112612Y00499415
X00390284Y00494632
X0045Y00492453
X00503405Y00493032
X00549348Y00432935
X00468662Y00318598
X00434275Y00315064
X00406136Y0031694
X00598929Y00282134
X00610958Y00244792
X00813987Y0030094
X00812717Y00338644
X00112571Y00526889
X00112727Y00554688
X0011297Y00582697
X0014177Y00583811
T12
X00444284Y00575558
Y00600957
X00469684
Y00575558
X00495084
Y00600957
T13
X00417566Y00048003
Y00223303
T14
X00791198Y00065
M30
