G04*
G04 #@! TF.GenerationSoftware,Altium Limited,Altium Designer,24.1.2 (44)*
G04*
G04 Layer_Color=32896*
%FSLAX44Y44*%
%MOMM*%
G71*
G04*
G04 #@! TF.SameCoordinates,E849002E-D005-4F9B-B670-832AB9F5597C*
G04*
G04*
G04 #@! TF.FilePolarity,Positive*
G04*
G01*
G75*
%ADD11C,0.2000*%
D11*
X160860Y234723D02*
G03*
X160860Y234723I-11430J0D01*
G01*
X824147Y338644D02*
G03*
X824147Y338644I-11430J0D01*
G01*
X203921Y70000D02*
G03*
X203921Y70000I-11430J0D01*
G01*
X149438D02*
G03*
X149438Y70000I-11430J0D01*
G01*
X745167Y465856D02*
G03*
X745167Y465856I-10160J0D01*
G01*
X123952Y406281D02*
G03*
X123952Y406281I-11430J0D01*
G01*
X825417Y300940D02*
G03*
X825417Y300940I-11430J0D01*
G01*
X148668Y264375D02*
G03*
X148668Y264375I-11430J0D01*
G01*
X417566Y316940D02*
G03*
X417566Y316940I-11430J0D01*
G01*
X445705Y315064D02*
G03*
X445705Y315064I-11430J0D01*
G01*
X124042Y499415D02*
G03*
X124042Y499415I-11430J0D01*
G01*
X124400Y433710D02*
G03*
X124400Y433710I-11430J0D01*
G01*
Y582697D02*
G03*
X124400Y582697I-11430J0D01*
G01*
X123952Y471551D02*
G03*
X123952Y471551I-11430J0D01*
G01*
X124157Y554688D02*
G03*
X124157Y554688I-11430J0D01*
G01*
X124001Y526889D02*
G03*
X124001Y526889I-11430J0D01*
G01*
X560778Y432935D02*
G03*
X560778Y432935I-11430J0D01*
G01*
X593721Y432833D02*
G03*
X593721Y432833I-10160J0D01*
G01*
X514835Y493032D02*
G03*
X514835Y493032I-11430J0D01*
G01*
X401714Y494632D02*
G03*
X401714Y494632I-11430J0D01*
G01*
X461430Y492453D02*
G03*
X461430Y492453I-11430J0D01*
G01*
X610359Y282134D02*
G03*
X610359Y282134I-11430J0D01*
G01*
X153200Y583811D02*
G03*
X153200Y583811I-11430J0D01*
G01*
X622388Y244792D02*
G03*
X622388Y244792I-11430J0D01*
G01*
X480092Y318598D02*
G03*
X480092Y318598I-11430J0D01*
G01*
M02*
