G04*
G04 #@! TF.GenerationSoftware,Altium Limited,Altium Designer,24.1.2 (44)*
G04*
G04 Layer_Color=8388736*
%FSLAX44Y44*%
%MOMM*%
G71*
G04*
G04 #@! TF.SameCoordinates,E849002E-D005-4F9B-B670-832AB9F5597C*
G04*
G04*
G04 #@! TF.FilePolarity,Negative*
G04*
G01*
G75*
%ADD25R,1.1000X1.9000*%
%ADD26R,0.4600X0.6500*%
%ADD37R,0.8000X0.9000*%
%ADD38R,1.3311X1.0121*%
G04:AMPARAMS|DCode=42|XSize=3.3mm|YSize=0.45mm|CornerRadius=0.045mm|HoleSize=0mm|Usage=FLASHONLY|Rotation=270.000|XOffset=0mm|YOffset=0mm|HoleType=Round|Shape=RoundedRectangle|*
%AMROUNDEDRECTD42*
21,1,3.3000,0.3600,0,0,270.0*
21,1,3.2100,0.4500,0,0,270.0*
1,1,0.0900,-0.1800,-1.6050*
1,1,0.0900,-0.1800,1.6050*
1,1,0.0900,0.1800,1.6050*
1,1,0.0900,0.1800,-1.6050*
%
%ADD42ROUNDEDRECTD42*%
G04:AMPARAMS|DCode=43|XSize=0.3mm|YSize=0.63mm|CornerRadius=0.03mm|HoleSize=0mm|Usage=FLASHONLY|Rotation=270.000|XOffset=0mm|YOffset=0mm|HoleType=Round|Shape=RoundedRectangle|*
%AMROUNDEDRECTD43*
21,1,0.3000,0.5700,0,0,270.0*
21,1,0.2400,0.6300,0,0,270.0*
1,1,0.0600,-0.2850,-0.1200*
1,1,0.0600,-0.2850,0.1200*
1,1,0.0600,0.2850,0.1200*
1,1,0.0600,0.2850,-0.1200*
%
%ADD43ROUNDEDRECTD43*%
G04:AMPARAMS|DCode=51|XSize=0.966mm|YSize=0.2393mm|CornerRadius=0.0598mm|HoleSize=0mm|Usage=FLASHONLY|Rotation=180.000|XOffset=0mm|YOffset=0mm|HoleType=Round|Shape=RoundedRectangle|*
%AMROUNDEDRECTD51*
21,1,0.9660,0.1196,0,0,180.0*
21,1,0.8464,0.2393,0,0,180.0*
1,1,0.1196,-0.4232,0.0598*
1,1,0.1196,0.4232,0.0598*
1,1,0.1196,0.4232,-0.0598*
1,1,0.1196,-0.4232,-0.0598*
%
%ADD51ROUNDEDRECTD51*%
G04:AMPARAMS|DCode=52|XSize=0.2393mm|YSize=0.966mm|CornerRadius=0.0598mm|HoleSize=0mm|Usage=FLASHONLY|Rotation=180.000|XOffset=0mm|YOffset=0mm|HoleType=Round|Shape=RoundedRectangle|*
%AMROUNDEDRECTD52*
21,1,0.2393,0.8464,0,0,180.0*
21,1,0.1196,0.9660,0,0,180.0*
1,1,0.1196,-0.0598,0.4232*
1,1,0.1196,0.0598,0.4232*
1,1,0.1196,0.0598,-0.4232*
1,1,0.1196,-0.0598,-0.4232*
%
%ADD52ROUNDEDRECTD52*%
%ADD53R,1.9050X2.7900*%
%ADD56R,1.0121X1.3311*%
%ADD58R,1.3500X0.9500*%
%ADD59R,1.2546X1.4562*%
%ADD63R,1.3000X0.8000*%
%ADD64R,0.8000X1.3000*%
%ADD65R,2.1000X2.1000*%
G04:AMPARAMS|DCode=66|XSize=1.2032mm|YSize=1.3032mm|CornerRadius=0.2266mm|HoleSize=0mm|Usage=FLASHONLY|Rotation=270.000|XOffset=0mm|YOffset=0mm|HoleType=Round|Shape=RoundedRectangle|*
%AMROUNDEDRECTD66*
21,1,1.2032,0.8500,0,0,270.0*
21,1,0.7500,1.3032,0,0,270.0*
1,1,0.4532,-0.4250,-0.3750*
1,1,0.4532,-0.4250,0.3750*
1,1,0.4532,0.4250,0.3750*
1,1,0.4532,0.4250,-0.3750*
%
%ADD66ROUNDEDRECTD66*%
G04:AMPARAMS|DCode=67|XSize=0.65mm|YSize=0.25mm|CornerRadius=0.0625mm|HoleSize=0mm|Usage=FLASHONLY|Rotation=270.000|XOffset=0mm|YOffset=0mm|HoleType=Round|Shape=RoundedRectangle|*
%AMROUNDEDRECTD67*
21,1,0.6500,0.1250,0,0,270.0*
21,1,0.5250,0.2500,0,0,270.0*
1,1,0.1250,-0.0625,-0.2625*
1,1,0.1250,-0.0625,0.2625*
1,1,0.1250,0.0625,0.2625*
1,1,0.1250,0.0625,-0.2625*
%
%ADD67ROUNDEDRECTD67*%
G04:AMPARAMS|DCode=68|XSize=1.1938mm|YSize=1.2954mm|CornerRadius=0.3493mm|HoleSize=0mm|Usage=FLASHONLY|Rotation=270.000|XOffset=0mm|YOffset=0mm|HoleType=Round|Shape=RoundedRectangle|*
%AMROUNDEDRECTD68*
21,1,1.1938,0.5969,0,0,270.0*
21,1,0.4953,1.2954,0,0,270.0*
1,1,0.6985,-0.2985,-0.2477*
1,1,0.6985,-0.2985,0.2477*
1,1,0.6985,0.2985,0.2477*
1,1,0.6985,0.2985,-0.2477*
%
%ADD68ROUNDEDRECTD68*%
G04:AMPARAMS|DCode=69|XSize=1.1938mm|YSize=1.2954mm|CornerRadius=0.3493mm|HoleSize=0mm|Usage=FLASHONLY|Rotation=0.000|XOffset=0mm|YOffset=0mm|HoleType=Round|Shape=RoundedRectangle|*
%AMROUNDEDRECTD69*
21,1,1.1938,0.5969,0,0,0.0*
21,1,0.4953,1.2954,0,0,0.0*
1,1,0.6985,0.2477,-0.2985*
1,1,0.6985,-0.2477,-0.2985*
1,1,0.6985,-0.2477,0.2985*
1,1,0.6985,0.2477,0.2985*
%
%ADD69ROUNDEDRECTD69*%
%ADD70C,2.5400*%
G04:AMPARAMS|DCode=71|XSize=1.016mm|YSize=1.2192mm|CornerRadius=0.3048mm|HoleSize=0mm|Usage=FLASHONLY|Rotation=270.000|XOffset=0mm|YOffset=0mm|HoleType=Round|Shape=RoundedRectangle|*
%AMROUNDEDRECTD71*
21,1,1.0160,0.6096,0,0,270.0*
21,1,0.4064,1.2192,0,0,270.0*
1,1,0.6096,-0.3048,-0.2032*
1,1,0.6096,-0.3048,0.2032*
1,1,0.6096,0.3048,0.2032*
1,1,0.6096,0.3048,-0.2032*
%
%ADD71ROUNDEDRECTD71*%
%ADD72R,0.7032X0.7032*%
G04:AMPARAMS|DCode=73|XSize=1.2032mm|YSize=1.3032mm|CornerRadius=0.2266mm|HoleSize=0mm|Usage=FLASHONLY|Rotation=0.000|XOffset=0mm|YOffset=0mm|HoleType=Round|Shape=RoundedRectangle|*
%AMROUNDEDRECTD73*
21,1,1.2032,0.8500,0,0,0.0*
21,1,0.7500,1.3032,0,0,0.0*
1,1,0.4532,0.3750,-0.4250*
1,1,0.4532,-0.3750,-0.4250*
1,1,0.4532,-0.3750,0.4250*
1,1,0.4532,0.3750,0.4250*
%
%ADD73ROUNDEDRECTD73*%
%ADD74R,0.8532X1.2532*%
G04:AMPARAMS|DCode=75|XSize=0.9431mm|YSize=2.9931mm|CornerRadius=0.2866mm|HoleSize=0mm|Usage=FLASHONLY|Rotation=270.000|XOffset=0mm|YOffset=0mm|HoleType=Round|Shape=RoundedRectangle|*
%AMROUNDEDRECTD75*
21,1,0.9431,2.4200,0,0,270.0*
21,1,0.3700,2.9931,0,0,270.0*
1,1,0.5732,-1.2100,-0.1850*
1,1,0.5732,-1.2100,0.1850*
1,1,0.5732,1.2100,0.1850*
1,1,0.5732,1.2100,-0.1850*
%
%ADD75ROUNDEDRECTD75*%
G04:AMPARAMS|DCode=76|XSize=1.7032mm|YSize=1.5032mm|CornerRadius=0.2641mm|HoleSize=0mm|Usage=FLASHONLY|Rotation=270.000|XOffset=0mm|YOffset=0mm|HoleType=Round|Shape=RoundedRectangle|*
%AMROUNDEDRECTD76*
21,1,1.7032,0.9750,0,0,270.0*
21,1,1.1750,1.5032,0,0,270.0*
1,1,0.5282,-0.4875,-0.5875*
1,1,0.5282,-0.4875,0.5875*
1,1,0.5282,0.4875,0.5875*
1,1,0.5282,0.4875,-0.5875*
%
%ADD76ROUNDEDRECTD76*%
G04:AMPARAMS|DCode=77|XSize=1.2132mm|YSize=1.6732mm|CornerRadius=0.2279mm|HoleSize=0mm|Usage=FLASHONLY|Rotation=270.000|XOffset=0mm|YOffset=0mm|HoleType=Round|Shape=RoundedRectangle|*
%AMROUNDEDRECTD77*
21,1,1.2132,1.2175,0,0,270.0*
21,1,0.7575,1.6732,0,0,270.0*
1,1,0.4557,-0.6088,-0.3787*
1,1,0.4557,-0.6088,0.3787*
1,1,0.4557,0.6088,0.3787*
1,1,0.4557,0.6088,-0.3787*
%
%ADD77ROUNDEDRECTD77*%
G04:AMPARAMS|DCode=78|XSize=1.2132mm|YSize=1.6732mm|CornerRadius=0.2279mm|HoleSize=0mm|Usage=FLASHONLY|Rotation=0.000|XOffset=0mm|YOffset=0mm|HoleType=Round|Shape=RoundedRectangle|*
%AMROUNDEDRECTD78*
21,1,1.2132,1.2175,0,0,0.0*
21,1,0.7575,1.6732,0,0,0.0*
1,1,0.4557,0.3787,-0.6088*
1,1,0.4557,-0.3787,-0.6088*
1,1,0.4557,-0.3787,0.6088*
1,1,0.4557,0.3787,0.6088*
%
%ADD78ROUNDEDRECTD78*%
G04:AMPARAMS|DCode=79|XSize=1.7032mm|YSize=1.5032mm|CornerRadius=0.2641mm|HoleSize=0mm|Usage=FLASHONLY|Rotation=180.000|XOffset=0mm|YOffset=0mm|HoleType=Round|Shape=RoundedRectangle|*
%AMROUNDEDRECTD79*
21,1,1.7032,0.9750,0,0,180.0*
21,1,1.1750,1.5032,0,0,180.0*
1,1,0.5282,-0.5875,0.4875*
1,1,0.5282,0.5875,0.4875*
1,1,0.5282,0.5875,-0.4875*
1,1,0.5282,-0.5875,-0.4875*
%
%ADD79ROUNDEDRECTD79*%
%ADD80C,1.4732*%
G04:AMPARAMS|DCode=81|XSize=1.6032mm|YSize=2.8032mm|CornerRadius=0.2766mm|HoleSize=0mm|Usage=FLASHONLY|Rotation=90.000|XOffset=0mm|YOffset=0mm|HoleType=Round|Shape=RoundedRectangle|*
%AMROUNDEDRECTD81*
21,1,1.6032,2.2500,0,0,90.0*
21,1,1.0500,2.8032,0,0,90.0*
1,1,0.5532,1.1250,0.5250*
1,1,0.5532,1.1250,-0.5250*
1,1,0.5532,-1.1250,-0.5250*
1,1,0.5532,-1.1250,0.5250*
%
%ADD81ROUNDEDRECTD81*%
G04:AMPARAMS|DCode=82|XSize=0.9032mm|YSize=2.1032mm|CornerRadius=0.1891mm|HoleSize=0mm|Usage=FLASHONLY|Rotation=90.000|XOffset=0mm|YOffset=0mm|HoleType=Round|Shape=RoundedRectangle|*
%AMROUNDEDRECTD82*
21,1,0.9032,1.7250,0,0,90.0*
21,1,0.5250,2.1032,0,0,90.0*
1,1,0.3782,0.8625,0.2625*
1,1,0.3782,0.8625,-0.2625*
1,1,0.3782,-0.8625,-0.2625*
1,1,0.3782,-0.8625,0.2625*
%
%ADD82ROUNDEDRECTD82*%
G04:AMPARAMS|DCode=83|XSize=1.9032mm|YSize=2.0032mm|CornerRadius=0.3141mm|HoleSize=0mm|Usage=FLASHONLY|Rotation=90.000|XOffset=0mm|YOffset=0mm|HoleType=Round|Shape=RoundedRectangle|*
%AMROUNDEDRECTD83*
21,1,1.9032,1.3750,0,0,90.0*
21,1,1.2750,2.0032,0,0,90.0*
1,1,0.6282,0.6875,0.6375*
1,1,0.6282,0.6875,-0.6375*
1,1,0.6282,-0.6875,-0.6375*
1,1,0.6282,-0.6875,0.6375*
%
%ADD83ROUNDEDRECTD83*%
G04:AMPARAMS|DCode=84|XSize=1.016mm|YSize=1.2192mm|CornerRadius=0.3048mm|HoleSize=0mm|Usage=FLASHONLY|Rotation=0.000|XOffset=0mm|YOffset=0mm|HoleType=Round|Shape=RoundedRectangle|*
%AMROUNDEDRECTD84*
21,1,1.0160,0.6096,0,0,0.0*
21,1,0.4064,1.2192,0,0,0.0*
1,1,0.6096,0.2032,-0.3048*
1,1,0.6096,-0.2032,-0.3048*
1,1,0.6096,-0.2032,0.3048*
1,1,0.6096,0.2032,0.3048*
%
%ADD84ROUNDEDRECTD84*%
G04:AMPARAMS|DCode=85|XSize=2.4032mm|YSize=2.9032mm|CornerRadius=0.3766mm|HoleSize=0mm|Usage=FLASHONLY|Rotation=0.000|XOffset=0mm|YOffset=0mm|HoleType=Round|Shape=RoundedRectangle|*
%AMROUNDEDRECTD85*
21,1,2.4032,2.1500,0,0,0.0*
21,1,1.6500,2.9032,0,0,0.0*
1,1,0.7532,0.8250,-1.0750*
1,1,0.7532,-0.8250,-1.0750*
1,1,0.7532,-0.8250,1.0750*
1,1,0.7532,0.8250,1.0750*
%
%ADD85ROUNDEDRECTD85*%
%ADD86R,1.9532X0.6032*%
%ADD87R,2.7032X1.5782*%
G04:AMPARAMS|DCode=88|XSize=1.6637mm|YSize=1.6637mm|CornerRadius=0.0499mm|HoleSize=0mm|Usage=FLASHONLY|Rotation=180.000|XOffset=0mm|YOffset=0mm|HoleType=Round|Shape=RoundedRectangle|*
%AMROUNDEDRECTD88*
21,1,1.6637,1.5639,0,0,180.0*
21,1,1.5639,1.6637,0,0,180.0*
1,1,0.0998,-0.7819,0.7819*
1,1,0.0998,0.7819,0.7819*
1,1,0.0998,0.7819,-0.7819*
1,1,0.0998,-0.7819,-0.7819*
%
%ADD88ROUNDEDRECTD88*%
%ADD89C,1.8542*%
G04:AMPARAMS|DCode=90|XSize=1.2032mm|YSize=5.7032mm|CornerRadius=0.2266mm|HoleSize=0mm|Usage=FLASHONLY|Rotation=270.000|XOffset=0mm|YOffset=0mm|HoleType=Round|Shape=RoundedRectangle|*
%AMROUNDEDRECTD90*
21,1,1.2032,5.2500,0,0,270.0*
21,1,0.7500,5.7032,0,0,270.0*
1,1,0.4532,-2.6250,-0.3750*
1,1,0.4532,-2.6250,0.3750*
1,1,0.4532,2.6250,0.3750*
1,1,0.4532,2.6250,-0.3750*
%
%ADD90ROUNDEDRECTD90*%
G04:AMPARAMS|DCode=91|XSize=1.8032mm|YSize=3.2032mm|CornerRadius=0.3016mm|HoleSize=0mm|Usage=FLASHONLY|Rotation=270.000|XOffset=0mm|YOffset=0mm|HoleType=Round|Shape=RoundedRectangle|*
%AMROUNDEDRECTD91*
21,1,1.8032,2.6000,0,0,270.0*
21,1,1.2000,3.2032,0,0,270.0*
1,1,0.6032,-1.3000,-0.6000*
1,1,0.6032,-1.3000,0.6000*
1,1,0.6032,1.3000,0.6000*
1,1,0.6032,1.3000,-0.6000*
%
%ADD91ROUNDEDRECTD91*%
%ADD92C,0.2520*%
%ADD93R,1.6000X2.1500*%
G04:AMPARAMS|DCode=94|XSize=0.4532mm|YSize=0.7032mm|CornerRadius=0.1516mm|HoleSize=0mm|Usage=FLASHONLY|Rotation=90.000|XOffset=0mm|YOffset=0mm|HoleType=Round|Shape=RoundedRectangle|*
%AMROUNDEDRECTD94*
21,1,0.4532,0.4000,0,0,90.0*
21,1,0.1500,0.7032,0,0,90.0*
1,1,0.3032,0.2000,0.0750*
1,1,0.3032,0.2000,-0.0750*
1,1,0.3032,-0.2000,-0.0750*
1,1,0.3032,-0.2000,0.0750*
%
%ADD94ROUNDEDRECTD94*%
G04:AMPARAMS|DCode=95|XSize=1.1032mm|YSize=1.8032mm|CornerRadius=0.1511mm|HoleSize=0mm|Usage=FLASHONLY|Rotation=0.000|XOffset=0mm|YOffset=0mm|HoleType=Round|Shape=RoundedRectangle|*
%AMROUNDEDRECTD95*
21,1,1.1032,1.5010,0,0,0.0*
21,1,0.8010,1.8032,0,0,0.0*
1,1,0.3022,0.4005,-0.7505*
1,1,0.3022,-0.4005,-0.7505*
1,1,0.3022,-0.4005,0.7505*
1,1,0.3022,0.4005,0.7505*
%
%ADD95ROUNDEDRECTD95*%
G04:AMPARAMS|DCode=96|XSize=0.9032mm|YSize=0.8032mm|CornerRadius=0.2516mm|HoleSize=0mm|Usage=FLASHONLY|Rotation=270.000|XOffset=0mm|YOffset=0mm|HoleType=Round|Shape=RoundedRectangle|*
%AMROUNDEDRECTD96*
21,1,0.9032,0.3000,0,0,270.0*
21,1,0.4000,0.8032,0,0,270.0*
1,1,0.5032,-0.1500,-0.2000*
1,1,0.5032,-0.1500,0.2000*
1,1,0.5032,0.1500,0.2000*
1,1,0.5032,0.1500,-0.2000*
%
%ADD96ROUNDEDRECTD96*%
G04:AMPARAMS|DCode=97|XSize=0.9032mm|YSize=1.2032mm|CornerRadius=0.2766mm|HoleSize=0mm|Usage=FLASHONLY|Rotation=270.000|XOffset=0mm|YOffset=0mm|HoleType=Round|Shape=RoundedRectangle|*
%AMROUNDEDRECTD97*
21,1,0.9032,0.6500,0,0,270.0*
21,1,0.3500,1.2032,0,0,270.0*
1,1,0.5532,-0.3250,-0.1750*
1,1,0.5532,-0.3250,0.1750*
1,1,0.5532,0.3250,0.1750*
1,1,0.5532,0.3250,-0.1750*
%
%ADD97ROUNDEDRECTD97*%
G04:AMPARAMS|DCode=98|XSize=1.7032mm|YSize=1.5032mm|CornerRadius=0.4266mm|HoleSize=0mm|Usage=FLASHONLY|Rotation=180.000|XOffset=0mm|YOffset=0mm|HoleType=Round|Shape=RoundedRectangle|*
%AMROUNDEDRECTD98*
21,1,1.7032,0.6500,0,0,180.0*
21,1,0.8500,1.5032,0,0,180.0*
1,1,0.8532,-0.4250,0.3250*
1,1,0.8532,0.4250,0.3250*
1,1,0.8532,0.4250,-0.3250*
1,1,0.8532,-0.4250,-0.3250*
%
%ADD98ROUNDEDRECTD98*%
%ADD99R,2.2032X2.2032*%
%ADD100C,2.2032*%
%ADD101C,1.8032*%
G04:AMPARAMS|DCode=102|XSize=1.8032mm|YSize=1.8032mm|CornerRadius=0.5016mm|HoleSize=0mm|Usage=FLASHONLY|Rotation=180.000|XOffset=0mm|YOffset=0mm|HoleType=Round|Shape=RoundedRectangle|*
%AMROUNDEDRECTD102*
21,1,1.8032,0.8000,0,0,180.0*
21,1,0.8000,1.8032,0,0,180.0*
1,1,1.0032,-0.4000,0.4000*
1,1,1.0032,0.4000,0.4000*
1,1,1.0032,0.4000,-0.4000*
1,1,1.0032,-0.4000,-0.4000*
%
%ADD102ROUNDEDRECTD102*%
%ADD103R,1.6032X1.6032*%
%ADD104C,1.6032*%
%ADD105C,1.8288*%
%ADD106R,1.6012X1.6012*%
%ADD107C,1.6012*%
%ADD108O,1.1032X1.9032*%
%ADD109C,1.1032*%
%ADD110O,1.6632X1.2032*%
%ADD111O,2.0032X1.2032*%
%ADD112C,0.7532*%
%ADD113C,0.7032*%
%ADD114C,0.7112*%
%ADD115C,0.5080*%
%ADD116C,0.5000*%
%ADD117C,0.6400*%
G36*
X818887Y585247D02*
X819147Y585227D01*
X819407Y585197D01*
X819667Y585147D01*
X819917Y585087D01*
X820177Y585017D01*
X820417Y584927D01*
X820657Y584827D01*
X820897Y584717D01*
X821127Y584587D01*
X821347Y584447D01*
X821567Y584307D01*
X821777Y584147D01*
X821977Y583977D01*
X822167Y583797D01*
X822347Y583607D01*
X822517Y583407D01*
X822677Y583197D01*
X822817Y582977D01*
X822957Y582757D01*
X823087Y582527D01*
X823197Y582287D01*
X823297Y582047D01*
X823387Y581807D01*
X823457Y581547D01*
X823517Y581297D01*
X823567Y581037D01*
X823597Y580777D01*
X823617Y580517D01*
X823627Y580257D01*
Y567007D01*
X812127D01*
X811787Y566997D01*
X811447Y566967D01*
X811107Y566927D01*
X810777Y566867D01*
X810447Y566787D01*
X810117Y566687D01*
X809797Y566577D01*
X809487Y566447D01*
X809177Y566297D01*
X808877Y566137D01*
X808587Y565957D01*
X808307Y565767D01*
X808037Y565557D01*
X807777Y565337D01*
X807527Y565107D01*
X807297Y564857D01*
X807077Y564597D01*
X806867Y564327D01*
X806677Y564047D01*
X806497Y563757D01*
X806337Y563457D01*
X806187Y563147D01*
X806057Y562837D01*
X805947Y562517D01*
X805847Y562187D01*
X805767Y561857D01*
X805707Y561527D01*
X805667Y561187D01*
X805637Y560847D01*
X805627Y560507D01*
Y556507D01*
X790836D01*
Y576757D01*
X800627D01*
Y580257D01*
X800637Y580517D01*
X800657Y580777D01*
X800687Y581037D01*
X800737Y581297D01*
X800797Y581547D01*
X800867Y581807D01*
X800957Y582047D01*
X801057Y582287D01*
X801167Y582527D01*
X801297Y582757D01*
X801437Y582977D01*
X801577Y583197D01*
X801737Y583407D01*
X801907Y583607D01*
X802087Y583797D01*
X802277Y583977D01*
X802477Y584147D01*
X802687Y584307D01*
X802907Y584447D01*
X803127Y584587D01*
X803357Y584717D01*
X803597Y584827D01*
X803837Y584927D01*
X804077Y585017D01*
X804337Y585087D01*
X804587Y585147D01*
X804847Y585197D01*
X805107Y585227D01*
X805367Y585247D01*
X805627Y585257D01*
X818627D01*
X818887Y585247D01*
D02*
G37*
G36*
X789627Y554757D02*
X773027D01*
Y576757D01*
X789627D01*
Y554757D01*
D02*
G37*
G36*
X643747Y543072D02*
Y531172D01*
X618747D01*
Y548172D01*
X638647D01*
X643747Y543072D01*
D02*
G37*
G36*
X537703Y526185D02*
Y516533D01*
X525511D01*
Y526185D01*
Y530821D01*
X537703D01*
Y526185D01*
D02*
G37*
G36*
X484664D02*
Y516533D01*
X472472D01*
Y526185D01*
Y530821D01*
X484664D01*
Y526185D01*
D02*
G37*
G36*
X431074Y524803D02*
Y515151D01*
X418882D01*
Y524803D01*
Y529438D01*
X431074D01*
Y524803D01*
D02*
G37*
G36*
X789627Y496757D02*
X773027D01*
Y518757D01*
X789627D01*
Y496757D01*
D02*
G37*
G36*
X684495Y499382D02*
Y493286D01*
X670208D01*
Y505478D01*
X684495D01*
Y499382D01*
D02*
G37*
G36*
X642061D02*
Y493286D01*
X627773D01*
Y505478D01*
X642061D01*
Y499382D01*
D02*
G37*
G36*
X805627Y513007D02*
X805637Y512667D01*
X805667Y512327D01*
X805707Y511987D01*
X805767Y511657D01*
X805847Y511327D01*
X805947Y510997D01*
X806057Y510677D01*
X806187Y510367D01*
X806337Y510057D01*
X806497Y509757D01*
X806677Y509467D01*
X806867Y509187D01*
X807077Y508917D01*
X807297Y508657D01*
X807527Y508407D01*
X807777Y508177D01*
X808037Y507957D01*
X808307Y507747D01*
X808587Y507557D01*
X808877Y507377D01*
X809177Y507217D01*
X809487Y507067D01*
X809797Y506937D01*
X810117Y506827D01*
X810447Y506727D01*
X810777Y506647D01*
X811107Y506587D01*
X811447Y506547D01*
X811787Y506517D01*
X812127Y506507D01*
X823627D01*
Y493257D01*
X823617Y492997D01*
X823597Y492737D01*
X823567Y492477D01*
X823517Y492217D01*
X823457Y491967D01*
X823387Y491707D01*
X823297Y491467D01*
X823197Y491227D01*
X823087Y490987D01*
X822957Y490757D01*
X822817Y490537D01*
X822677Y490317D01*
X822517Y490107D01*
X822347Y489907D01*
X822167Y489717D01*
X821977Y489537D01*
X821777Y489367D01*
X821567Y489207D01*
X821347Y489067D01*
X821127Y488927D01*
X820897Y488797D01*
X820657Y488687D01*
X820417Y488587D01*
X820177Y488497D01*
X819917Y488427D01*
X819667Y488367D01*
X819407Y488317D01*
X819147Y488287D01*
X818887Y488267D01*
X818627Y488257D01*
X805627D01*
X805367Y488267D01*
X805107Y488287D01*
X804847Y488317D01*
X804587Y488367D01*
X804337Y488427D01*
X804077Y488497D01*
X803837Y488587D01*
X803597Y488687D01*
X803357Y488797D01*
X803127Y488927D01*
X802907Y489067D01*
X802687Y489207D01*
X802477Y489367D01*
X802277Y489537D01*
X802087Y489717D01*
X801907Y489907D01*
X801737Y490107D01*
X801577Y490317D01*
X801437Y490537D01*
X801297Y490757D01*
X801167Y490987D01*
X801057Y491227D01*
X800957Y491467D01*
X800867Y491707D01*
X800797Y491967D01*
X800737Y492217D01*
X800687Y492477D01*
X800657Y492737D01*
X800637Y492997D01*
X800627Y493257D01*
Y496757D01*
X790681D01*
Y517007D01*
X805627D01*
Y513007D01*
D02*
G37*
G36*
X644029Y473143D02*
X629742D01*
Y479239D01*
Y485335D01*
X644029D01*
Y473143D01*
D02*
G37*
G36*
X686464Y473109D02*
X672176D01*
Y479205D01*
Y485301D01*
X686464D01*
Y473109D01*
D02*
G37*
G36*
X408800Y434531D02*
Y428435D01*
X394513D01*
Y440627D01*
X408800D01*
Y434531D01*
D02*
G37*
G36*
X619255Y402298D02*
Y392646D01*
X607063D01*
Y402298D01*
Y406934D01*
X619255D01*
Y402298D01*
D02*
G37*
G36*
X611092Y379553D02*
X611125D01*
X611158Y379548D01*
X611191Y379546D01*
X611224Y379540D01*
X611257Y379535D01*
X611650Y379457D01*
X611682Y379449D01*
X611714Y379442D01*
X611746Y379431D01*
X611778Y379423D01*
X611809Y379410D01*
X611841Y379399D01*
X612210Y379246D01*
X612240Y379231D01*
X612271Y379219D01*
X612300Y379202D01*
X612330Y379187D01*
X612357Y379169D01*
X612386Y379152D01*
X612719Y378930D01*
X612746Y378909D01*
X612773Y378891D01*
X612798Y378869D01*
X612825Y378849D01*
X612849Y378825D01*
X612873Y378803D01*
X613157Y378520D01*
X613179Y378495D01*
X613202Y378471D01*
X613222Y378445D01*
X613244Y378420D01*
X613263Y378392D01*
X613283Y378366D01*
X613506Y378033D01*
X613522Y378004D01*
X613541Y377976D01*
X613555Y377947D01*
X613572Y377918D01*
X613585Y377887D01*
X613600Y377857D01*
X613753Y377487D01*
X613764Y377455D01*
X613776Y377425D01*
X613785Y377393D01*
X613796Y377361D01*
X613802Y377328D01*
X613811Y377296D01*
X613889Y376904D01*
X613893Y376871D01*
X613900Y376838D01*
X613902Y376805D01*
X613906Y376772D01*
Y376738D01*
X613908Y376705D01*
Y376505D01*
Y370409D01*
Y370209D01*
X613906Y370175D01*
Y370142D01*
X613902Y370109D01*
X613900Y370076D01*
X613893Y370043D01*
X613889Y370010D01*
X613811Y369617D01*
X613802Y369585D01*
X613796Y369553D01*
X613785Y369521D01*
X613776Y369489D01*
X613764Y369458D01*
X613753Y369426D01*
X613600Y369057D01*
X613585Y369027D01*
X613572Y368996D01*
X613555Y368967D01*
X613541Y368937D01*
X613522Y368909D01*
X613506Y368881D01*
X613283Y368548D01*
X613263Y368521D01*
X613244Y368494D01*
X613222Y368469D01*
X613202Y368442D01*
X613178Y368418D01*
X613157Y368394D01*
X612873Y368110D01*
X612848Y368088D01*
X612825Y368065D01*
X612799Y368045D01*
X612773Y368023D01*
X612746Y368004D01*
X612719Y367984D01*
X612386Y367761D01*
X612357Y367745D01*
X612330Y367726D01*
X612300Y367712D01*
X612271Y367695D01*
X612240Y367682D01*
X612210Y367667D01*
X611841Y367514D01*
X611809Y367504D01*
X611778Y367491D01*
X611746Y367482D01*
X611714Y367471D01*
X611682Y367465D01*
X611650Y367456D01*
X611257Y367378D01*
X611224Y367374D01*
X611191Y367367D01*
X611158Y367365D01*
X611125Y367361D01*
X611092D01*
X611058Y367359D01*
X603746D01*
X603713Y367361D01*
X601240D01*
X601206Y367359D01*
X589449D01*
X589416Y367361D01*
X589383D01*
X589350Y367365D01*
X589316Y367367D01*
X589283Y367374D01*
X589250Y367378D01*
X588858Y367456D01*
X588826Y367465D01*
X588793Y367471D01*
X588761Y367482D01*
X588729Y367491D01*
X588699Y367504D01*
X588667Y367514D01*
X588297Y367667D01*
X588267Y367682D01*
X588236Y367695D01*
X588208Y367711D01*
X588178Y367726D01*
X588150Y367745D01*
X588121Y367761D01*
X587788Y367984D01*
X587762Y368004D01*
X587734Y368023D01*
X587709Y368045D01*
X587683Y368065D01*
X587659Y368088D01*
X587634Y368110D01*
X587351Y368394D01*
X587329Y368419D01*
X587305Y368442D01*
X587285Y368469D01*
X587263Y368494D01*
X587245Y368521D01*
X587224Y368548D01*
X587002Y368881D01*
X586985Y368909D01*
X586967Y368937D01*
X586952Y368967D01*
X586935Y368996D01*
X586922Y369027D01*
X586908Y369057D01*
X586755Y369426D01*
X586744Y369458D01*
X586731Y369489D01*
X586723Y369521D01*
X586712Y369553D01*
X586705Y369585D01*
X586697Y369617D01*
X586619Y370010D01*
X586614Y370043D01*
X586608Y370076D01*
X586606Y370109D01*
X586601Y370142D01*
Y370175D01*
X586599Y370209D01*
Y370409D01*
Y376505D01*
Y376705D01*
X586601Y376738D01*
Y376772D01*
X586606Y376805D01*
X586608Y376838D01*
X586614Y376871D01*
X586619Y376904D01*
X586697Y377296D01*
X586705Y377328D01*
X586712Y377361D01*
X586723Y377393D01*
X586731Y377425D01*
X586744Y377455D01*
X586755Y377487D01*
X586908Y377857D01*
X586923Y377887D01*
X586935Y377918D01*
X586952Y377946D01*
X586967Y377976D01*
X586985Y378004D01*
X587002Y378033D01*
X587224Y378366D01*
X587244Y378392D01*
X587263Y378420D01*
X587285Y378445D01*
X587305Y378471D01*
X587329Y378495D01*
X587351Y378520D01*
X587634Y378803D01*
X587659Y378825D01*
X587683Y378849D01*
X587709Y378869D01*
X587734Y378891D01*
X587762Y378909D01*
X587788Y378930D01*
X588121Y379152D01*
X588150Y379169D01*
X588178Y379187D01*
X588207Y379202D01*
X588236Y379219D01*
X588267Y379231D01*
X588297Y379246D01*
X588667Y379399D01*
X588699Y379410D01*
X588729Y379423D01*
X588761Y379431D01*
X588793Y379442D01*
X588826Y379449D01*
X588858Y379457D01*
X589250Y379535D01*
X589283Y379540D01*
X589316Y379546D01*
X589350Y379548D01*
X589383Y379553D01*
X589416D01*
X589449Y379555D01*
X601206D01*
X601240Y379553D01*
X603713D01*
X603746Y379555D01*
X611058D01*
X611092Y379553D01*
D02*
G37*
G36*
X408102Y376905D02*
Y370809D01*
X393815D01*
Y383001D01*
X408102D01*
Y376905D01*
D02*
G37*
G36*
X704183Y370551D02*
Y365916D01*
X691991D01*
Y370551D01*
Y380203D01*
X704183D01*
Y370551D01*
D02*
G37*
G36*
X554599Y342244D02*
X547470D01*
X546955Y342457D01*
X546562Y342851D01*
X546348Y343366D01*
Y343644D01*
Y343923D01*
X546562Y344437D01*
X546955Y344831D01*
X547470Y345044D01*
X554599D01*
Y342244D01*
D02*
G37*
G36*
X524742Y344831D02*
X525135Y344437D01*
X525349Y343923D01*
Y343644D01*
Y343366D01*
X525135Y342851D01*
X524742Y342457D01*
X524227Y342244D01*
X517099D01*
Y345044D01*
X524227D01*
X524742Y344831D01*
D02*
G37*
G36*
X554599Y337244D02*
X547470D01*
X546955Y337457D01*
X546562Y337851D01*
X546348Y338366D01*
Y338644D01*
Y338923D01*
X546562Y339437D01*
X546955Y339831D01*
X547470Y340044D01*
X547748D01*
Y340044D01*
X554599D01*
Y337244D01*
D02*
G37*
G36*
X524742Y339831D02*
X525135Y339437D01*
X525349Y338923D01*
Y338644D01*
X525349Y338366D01*
X525135Y337851D01*
X524742Y337457D01*
X524227Y337244D01*
X517099D01*
Y340044D01*
X524227D01*
X524742Y339831D01*
D02*
G37*
G36*
X499430Y336752D02*
X485143D01*
Y342848D01*
Y348944D01*
X499430D01*
Y336752D01*
D02*
G37*
G36*
X554599Y332244D02*
X547470D01*
X546955Y332457D01*
X546562Y332851D01*
X546348Y333366D01*
Y333644D01*
Y333923D01*
X546562Y334437D01*
X546955Y334831D01*
X547470Y335044D01*
X554599D01*
Y332244D01*
D02*
G37*
G36*
X524742Y334831D02*
X525135Y334437D01*
X525349Y333923D01*
Y333644D01*
Y333366D01*
X525135Y332851D01*
X524742Y332457D01*
X524227Y332244D01*
X517099D01*
Y335044D01*
X524227D01*
X524742Y334831D01*
D02*
G37*
G36*
X554599Y327244D02*
X547470D01*
X546955Y327457D01*
X546562Y327851D01*
X546348Y328366D01*
Y328644D01*
X546348Y328923D01*
X546562Y329437D01*
X546955Y329831D01*
X547470Y330044D01*
X554599D01*
Y327244D01*
D02*
G37*
G36*
X524742Y329831D02*
X525135Y329437D01*
X525349Y328923D01*
Y328644D01*
Y328366D01*
X525135Y327851D01*
X524742Y327457D01*
X524227Y327244D01*
X523949D01*
Y327244D01*
X517099D01*
Y330044D01*
X524227D01*
X524742Y329831D01*
D02*
G37*
G36*
X614178Y354161D02*
X614211D01*
X614244Y354157D01*
X614277Y354155D01*
X614310Y354148D01*
X614343Y354144D01*
X614736Y354066D01*
X614768Y354057D01*
X614801Y354051D01*
X614832Y354040D01*
X614865Y354031D01*
X614895Y354019D01*
X614927Y354008D01*
X615297Y353855D01*
X615326Y353840D01*
X615357Y353827D01*
X615386Y353811D01*
X615416Y353796D01*
X615444Y353777D01*
X615473Y353761D01*
X615806Y353538D01*
X615832Y353518D01*
X615860Y353499D01*
X615885Y353478D01*
X615911Y353457D01*
X615935Y353434D01*
X615960Y353412D01*
X616243Y353129D01*
X616265Y353103D01*
X616288Y353080D01*
X616309Y353054D01*
X616331Y353028D01*
X616349Y353001D01*
X616369Y352974D01*
X616592Y352641D01*
X616609Y352613D01*
X616627Y352585D01*
X616642Y352555D01*
X616658Y352526D01*
X616671Y352495D01*
X616686Y352466D01*
X616839Y352096D01*
X616850Y352064D01*
X616862Y352033D01*
X616871Y352001D01*
X616882Y351970D01*
X616888Y351937D01*
X616897Y351905D01*
X616975Y351512D01*
X616979Y351479D01*
X616986Y351446D01*
X616988Y351413D01*
X616992Y351380D01*
Y351347D01*
X616995Y351314D01*
Y351113D01*
Y347113D01*
Y344001D01*
X616992Y343968D01*
Y341495D01*
X616995Y341461D01*
Y329904D01*
Y329704D01*
X616992Y329671D01*
Y329638D01*
X616988Y329605D01*
X616986Y329571D01*
X616979Y329539D01*
X616975Y329506D01*
X616897Y329113D01*
X616888Y329081D01*
X616882Y329048D01*
X616871Y329017D01*
X616862Y328984D01*
X616850Y328954D01*
X616839Y328922D01*
X616686Y328552D01*
X616671Y328522D01*
X616658Y328492D01*
X616642Y328463D01*
X616627Y328433D01*
X616609Y328405D01*
X616592Y328376D01*
X616369Y328043D01*
X616349Y328017D01*
X616331Y327989D01*
X616309Y327964D01*
X616288Y327938D01*
X616265Y327914D01*
X616243Y327889D01*
X615960Y327606D01*
X615935Y327584D01*
X615911Y327561D01*
X615885Y327540D01*
X615860Y327518D01*
X615832Y327500D01*
X615806Y327480D01*
X615473Y327257D01*
X615444Y327240D01*
X615416Y327222D01*
X615386Y327207D01*
X615357Y327191D01*
X615326Y327178D01*
X615297Y327163D01*
X614927Y327010D01*
X614895Y326999D01*
X614865Y326986D01*
X614832Y326978D01*
X614801Y326967D01*
X614768Y326960D01*
X614736Y326952D01*
X614343Y326874D01*
X614310Y326870D01*
X614277Y326863D01*
X614244Y326861D01*
X614211Y326856D01*
X614178D01*
X614145Y326854D01*
X607648D01*
X607615Y326856D01*
X607582D01*
X607549Y326861D01*
X607515Y326863D01*
X607483Y326870D01*
X607450Y326874D01*
X607057Y326952D01*
X607025Y326960D01*
X606992Y326967D01*
X606961Y326978D01*
X606928Y326986D01*
X606898Y326999D01*
X606866Y327010D01*
X606496Y327163D01*
X606466Y327178D01*
X606436Y327191D01*
X606407Y327207D01*
X606377Y327222D01*
X606349Y327240D01*
X606320Y327257D01*
X605988Y327480D01*
X605961Y327500D01*
X605933Y327518D01*
X605908Y327540D01*
X605882Y327561D01*
X605858Y327584D01*
X605833Y327606D01*
X605550Y327889D01*
X605528Y327914D01*
X605505Y327938D01*
X605484Y327964D01*
X605462Y327989D01*
X605444Y328017D01*
X605424Y328043D01*
X605201Y328376D01*
X605185Y328405D01*
X605166Y328433D01*
X605151Y328463D01*
X605135Y328492D01*
X605122Y328522D01*
X605107Y328552D01*
X604954Y328922D01*
X604943Y328954D01*
X604930Y328984D01*
X604922Y329017D01*
X604911Y329048D01*
X604905Y329081D01*
X604896Y329113D01*
X604818Y329506D01*
X604813Y329539D01*
X604807Y329571D01*
X604805Y329605D01*
X604800Y329638D01*
Y329671D01*
X604798Y329704D01*
Y329904D01*
Y341461D01*
X604800Y341495D01*
Y343968D01*
X604798Y344001D01*
Y351113D01*
Y351314D01*
X604800Y351347D01*
Y351380D01*
X604805Y351413D01*
X604807Y351446D01*
X604813Y351479D01*
X604818Y351512D01*
X604896Y351905D01*
X604905Y351937D01*
X604911Y351970D01*
X604922Y352001D01*
X604930Y352033D01*
X604943Y352064D01*
X604954Y352096D01*
X605107Y352466D01*
X605122Y352495D01*
X605135Y352526D01*
X605151Y352555D01*
X605166Y352585D01*
X605185Y352613D01*
X605201Y352641D01*
X605424Y352974D01*
X605444Y353001D01*
X605462Y353028D01*
X605484Y353054D01*
X605505Y353080D01*
X605528Y353104D01*
X605550Y353129D01*
X605833Y353412D01*
X605858Y353434D01*
X605882Y353457D01*
X605908Y353477D01*
X605933Y353499D01*
X605961Y353518D01*
X605988Y353538D01*
X606320Y353761D01*
X606349Y353777D01*
X606377Y353796D01*
X606407Y353811D01*
X606436Y353827D01*
X606467Y353840D01*
X606496Y353855D01*
X606866Y354008D01*
X606898Y354019D01*
X606928Y354031D01*
X606961Y354040D01*
X606992Y354051D01*
X607025Y354057D01*
X607057Y354066D01*
X607450Y354144D01*
X607483Y354148D01*
X607515Y354155D01*
X607549Y354157D01*
X607582Y354161D01*
X607615D01*
X607648Y354164D01*
X614145D01*
X614178Y354161D01*
D02*
G37*
G36*
X554599Y322244D02*
X547470D01*
X546955Y322457D01*
X546562Y322851D01*
X546348Y323366D01*
Y323644D01*
Y323923D01*
X546562Y324437D01*
X546955Y324831D01*
X547470Y325044D01*
X554599D01*
Y322244D01*
D02*
G37*
G36*
X524742Y324831D02*
X525135Y324437D01*
X525349Y323923D01*
Y323644D01*
Y323366D01*
X525135Y322851D01*
X524742Y322457D01*
X524227Y322244D01*
X517099D01*
Y325044D01*
X524227D01*
X524742Y324831D01*
D02*
G37*
G36*
X220778Y243741D02*
Y234089D01*
X208586D01*
Y243741D01*
Y248377D01*
X220778D01*
Y243741D01*
D02*
G37*
G36*
X650570Y243111D02*
Y233459D01*
X638378D01*
Y243111D01*
Y247747D01*
X650570D01*
Y243111D01*
D02*
G37*
G36*
X220778Y211544D02*
Y201892D01*
X208586D01*
Y211544D01*
Y216180D01*
X220778D01*
Y211544D01*
D02*
G37*
G36*
X125768Y205270D02*
Y195618D01*
X113576D01*
Y205270D01*
Y209906D01*
X125768D01*
Y205270D01*
D02*
G37*
G36*
X144636Y205211D02*
Y195559D01*
X132444D01*
Y205211D01*
Y209846D01*
X144636D01*
Y205211D01*
D02*
G37*
G36*
X601310Y126179D02*
Y120083D01*
X587022D01*
Y132275D01*
X601310D01*
Y126179D01*
D02*
G37*
G36*
Y103316D02*
Y97220D01*
X587022D01*
Y109412D01*
X601310D01*
Y103316D01*
D02*
G37*
G36*
X596244Y79671D02*
Y73575D01*
X581956D01*
Y85767D01*
X596244D01*
Y79671D01*
D02*
G37*
G36*
Y57796D02*
Y51700D01*
X581956D01*
Y63892D01*
X596244D01*
Y57796D01*
D02*
G37*
D25*
X271230Y258455D02*
D03*
X296230D02*
D03*
D26*
X376181Y305394D02*
D03*
X386181D02*
D03*
X381181Y315894D02*
D03*
X419454Y489382D02*
D03*
X414454Y499882D02*
D03*
X424454D02*
D03*
X473488Y489052D02*
D03*
X468488Y499552D02*
D03*
X478488D02*
D03*
X526395Y488507D02*
D03*
X521395Y499007D02*
D03*
X531395D02*
D03*
D37*
X577929Y308644D02*
D03*
X592929D02*
D03*
D38*
X570618Y349303D02*
D03*
X585429D02*
D03*
D42*
X642779Y92171D02*
D03*
D43*
X635179Y109671D02*
D03*
Y104671D02*
D03*
Y99671D02*
D03*
Y94671D02*
D03*
Y89671D02*
D03*
Y84671D02*
D03*
Y79671D02*
D03*
Y74671D02*
D03*
X650379Y109671D02*
D03*
Y104671D02*
D03*
Y99671D02*
D03*
Y94671D02*
D03*
Y89671D02*
D03*
Y84671D02*
D03*
Y79671D02*
D03*
Y74671D02*
D03*
D51*
X707897Y413491D02*
D03*
Y418491D02*
D03*
Y423491D02*
D03*
Y428491D02*
D03*
X678436D02*
D03*
Y423491D02*
D03*
Y418491D02*
D03*
Y413491D02*
D03*
D52*
X700667Y435722D02*
D03*
X695667D02*
D03*
X690667D02*
D03*
X685667D02*
D03*
Y406261D02*
D03*
X690667D02*
D03*
X695667D02*
D03*
X700667D02*
D03*
D53*
X572004Y388690D02*
D03*
X523493D02*
D03*
D56*
X496347Y322306D02*
D03*
Y307496D02*
D03*
D58*
X639799Y332144D02*
D03*
Y317144D02*
D03*
D59*
X645112Y270000D02*
D03*
X628596D02*
D03*
D63*
X344061Y319928D02*
D03*
Y331928D02*
D03*
Y343928D02*
D03*
Y355928D02*
D03*
Y367928D02*
D03*
Y379928D02*
D03*
Y391928D02*
D03*
Y403928D02*
D03*
Y415928D02*
D03*
Y427928D02*
D03*
Y439928D02*
D03*
Y451928D02*
D03*
Y463928D02*
D03*
Y475928D02*
D03*
Y487928D02*
D03*
Y499928D02*
D03*
Y511928D02*
D03*
Y523928D02*
D03*
Y535928D02*
D03*
Y547928D02*
D03*
X210061Y547928D02*
D03*
Y535928D02*
D03*
Y523928D02*
D03*
Y511928D02*
D03*
Y499928D02*
D03*
Y487928D02*
D03*
Y475928D02*
D03*
Y463928D02*
D03*
Y451928D02*
D03*
Y439928D02*
D03*
Y427928D02*
D03*
Y415928D02*
D03*
Y403928D02*
D03*
Y391928D02*
D03*
Y379928D02*
D03*
Y367928D02*
D03*
Y355928D02*
D03*
Y343928D02*
D03*
Y331928D02*
D03*
Y319928D02*
D03*
D64*
X217023Y305516D02*
D03*
X229023D02*
D03*
X241023D02*
D03*
X253023D02*
D03*
X265023D02*
D03*
X277023D02*
D03*
X289023D02*
D03*
X301023D02*
D03*
X313023D02*
D03*
X325023D02*
D03*
X337023D02*
D03*
D65*
X256207Y356070D02*
D03*
X285443D02*
D03*
Y384619D02*
D03*
X256207D02*
D03*
X287500Y485000D02*
D03*
X265681D02*
D03*
Y507174D02*
D03*
X287500D02*
D03*
D66*
X326084Y278123D02*
D03*
X309084D02*
D03*
X592061Y329084D02*
D03*
X575061D02*
D03*
X56585Y378314D02*
D03*
X73585D02*
D03*
X656937Y33750D02*
D03*
X639937D02*
D03*
X72167Y306740D02*
D03*
X55167D02*
D03*
X274420Y278123D02*
D03*
X291420D02*
D03*
D67*
X642497Y555172D02*
D03*
X637997D02*
D03*
X633497D02*
D03*
X628997D02*
D03*
X624497D02*
D03*
X619997D02*
D03*
Y524172D02*
D03*
X624497D02*
D03*
X628997D02*
D03*
X633497D02*
D03*
X637997D02*
D03*
X642497D02*
D03*
D68*
X701108Y232951D02*
D03*
X718108D02*
D03*
X162620Y390204D02*
D03*
X145620D02*
D03*
X90713Y374899D02*
D03*
X107713D02*
D03*
X746973Y259654D02*
D03*
X763973D02*
D03*
X652562Y367499D02*
D03*
X635563D02*
D03*
X635563Y350991D02*
D03*
X652562D02*
D03*
X659164Y453491D02*
D03*
X676164D02*
D03*
X393515Y415778D02*
D03*
X410515D02*
D03*
X393515Y395778D02*
D03*
X410515D02*
D03*
X690039Y550594D02*
D03*
X673039D02*
D03*
X690039Y529512D02*
D03*
X673039D02*
D03*
X564327Y576756D02*
D03*
X581327D02*
D03*
D69*
X107214Y260230D02*
D03*
Y277230D02*
D03*
X102053Y211452D02*
D03*
Y194452D02*
D03*
X156585Y193722D02*
D03*
Y210722D02*
D03*
X91289Y480262D02*
D03*
Y497262D02*
D03*
X74035Y497262D02*
D03*
Y480262D02*
D03*
X731901Y384557D02*
D03*
Y367557D02*
D03*
X89293Y360782D02*
D03*
Y343782D02*
D03*
X195743Y248676D02*
D03*
Y231676D02*
D03*
Y197509D02*
D03*
Y214509D02*
D03*
X525511Y290054D02*
D03*
Y307054D02*
D03*
X715506Y384557D02*
D03*
Y367557D02*
D03*
X512752Y513515D02*
D03*
Y530515D02*
D03*
X405954Y530530D02*
D03*
Y513530D02*
D03*
X460000D02*
D03*
Y530530D02*
D03*
X89667Y306240D02*
D03*
Y289240D02*
D03*
X686365Y606440D02*
D03*
Y589440D02*
D03*
D70*
X45245Y603645D02*
D03*
X68871Y22296D02*
D03*
X799577Y619310D02*
D03*
D71*
X119672Y193205D02*
D03*
Y210350D02*
D03*
X138540Y210291D02*
D03*
Y193146D02*
D03*
X644474Y248191D02*
D03*
Y231046D02*
D03*
X214682Y248821D02*
D03*
Y231676D02*
D03*
Y199479D02*
D03*
Y216624D02*
D03*
X698087Y382616D02*
D03*
Y365471D02*
D03*
X613159Y407378D02*
D03*
Y390233D02*
D03*
X531607Y531265D02*
D03*
Y514120D02*
D03*
X478568Y531265D02*
D03*
Y514120D02*
D03*
X424978Y529883D02*
D03*
Y512738D02*
D03*
D72*
X184584Y230803D02*
D03*
X168084D02*
D03*
X184584Y240803D02*
D03*
X168084D02*
D03*
D73*
X179578Y214664D02*
D03*
Y197664D02*
D03*
X667664Y369094D02*
D03*
Y386094D02*
D03*
X645471Y578162D02*
D03*
Y595162D02*
D03*
X626675Y578162D02*
D03*
Y595162D02*
D03*
X665537Y590100D02*
D03*
Y607100D02*
D03*
X713543Y569000D02*
D03*
Y552000D02*
D03*
X757587Y584394D02*
D03*
Y601394D02*
D03*
X713543Y509378D02*
D03*
Y526378D02*
D03*
D74*
X58899Y519262D02*
D03*
Y477762D02*
D03*
X37399D02*
D03*
Y519262D02*
D03*
X74398Y362609D02*
D03*
Y321109D02*
D03*
X52899D02*
D03*
Y362609D02*
D03*
X52408Y289240D02*
D03*
Y247740D02*
D03*
X73909D02*
D03*
Y289240D02*
D03*
D75*
X78766Y405618D02*
D03*
X38126D02*
D03*
X78766Y418318D02*
D03*
Y431018D02*
D03*
X38126D02*
D03*
X78766Y443718D02*
D03*
X38126D02*
D03*
X78766Y456418D02*
D03*
X38126D02*
D03*
D76*
X170420Y431679D02*
D03*
X189420D02*
D03*
X760016Y361579D02*
D03*
X779016D02*
D03*
D77*
X545618Y305945D02*
D03*
Y286345D02*
D03*
X185000Y389600D02*
D03*
Y370000D02*
D03*
X636476Y429919D02*
D03*
Y449519D02*
D03*
X635940Y388690D02*
D03*
Y408290D02*
D03*
D78*
X763695Y281281D02*
D03*
X744095D02*
D03*
X582628Y553388D02*
D03*
X563028D02*
D03*
D79*
X734754Y406199D02*
D03*
Y425199D02*
D03*
X613159Y429656D02*
D03*
Y448656D02*
D03*
X604831Y578940D02*
D03*
Y597940D02*
D03*
D80*
X803549Y219678D02*
D03*
X773092Y219805D02*
D03*
X244109Y187254D02*
D03*
X643157Y165516D02*
D03*
X616256Y162500D02*
D03*
X619899Y44829D02*
D03*
X586126Y189770D02*
D03*
X614722Y193000D02*
D03*
X557278Y477969D02*
D03*
X583480Y221611D02*
D03*
X610619Y217986D02*
D03*
X642338Y197872D02*
D03*
X600149Y468802D02*
D03*
X238091Y257141D02*
D03*
X582860Y598725D02*
D03*
X735007Y465856D02*
D03*
X583560Y432833D02*
D03*
D81*
X787198Y193000D02*
D03*
Y36000D02*
D03*
D82*
X680698Y137000D02*
D03*
Y126000D02*
D03*
Y115000D02*
D03*
Y104000D02*
D03*
Y93000D02*
D03*
Y82000D02*
D03*
Y71000D02*
D03*
Y60000D02*
D03*
Y49000D02*
D03*
D83*
X691198Y188500D02*
D03*
Y33500D02*
D03*
D84*
X586577Y126179D02*
D03*
X603722D02*
D03*
X586577Y103316D02*
D03*
X603722D02*
D03*
X598657Y79671D02*
D03*
X581511D02*
D03*
X598657Y57796D02*
D03*
X581511D02*
D03*
X644474Y479239D02*
D03*
X627329D02*
D03*
X686908Y479205D02*
D03*
X669763D02*
D03*
X627329Y499382D02*
D03*
X644474D02*
D03*
X669763D02*
D03*
X686908D02*
D03*
X410515Y376905D02*
D03*
X393370D02*
D03*
X394068Y434531D02*
D03*
X411213D02*
D03*
X482730Y342848D02*
D03*
X499875D02*
D03*
D85*
X696482Y258304D02*
D03*
Y309304D02*
D03*
D86*
X783377Y536757D02*
D03*
Y543257D02*
D03*
Y523757D02*
D03*
Y530257D02*
D03*
Y549757D02*
D03*
D87*
X814127Y546132D02*
D03*
Y527382D02*
D03*
D88*
X693167Y420991D02*
D03*
D89*
X580513Y250623D02*
D03*
X545618Y264404D02*
D03*
D90*
X779682Y405991D02*
D03*
Y425991D02*
D03*
D91*
X802182Y381991D02*
D03*
Y449991D02*
D03*
D92*
X521223Y343644D02*
D03*
Y338644D02*
D03*
X518498Y333644D02*
D03*
Y328644D02*
D03*
Y323644D02*
D03*
X550474D02*
D03*
Y328644D02*
D03*
X550618Y333644D02*
D03*
Y338644D02*
D03*
Y343644D02*
D03*
D93*
X535849Y333644D02*
D03*
D94*
X629379Y303644D02*
D03*
Y298644D02*
D03*
Y293644D02*
D03*
Y288644D02*
D03*
X648379D02*
D03*
Y293644D02*
D03*
Y298644D02*
D03*
Y303644D02*
D03*
D95*
X638879Y296144D02*
D03*
D96*
X757587Y526624D02*
D03*
X738587D02*
D03*
Y546624D02*
D03*
D97*
X755587D02*
D03*
D98*
X734879Y585036D02*
D03*
Y604036D02*
D03*
D99*
X417566Y223303D02*
D03*
D100*
Y48003D02*
D03*
D101*
X444284Y575558D02*
D03*
Y600957D02*
D03*
X469684Y575558D02*
D03*
Y600957D02*
D03*
X495084Y575558D02*
D03*
D102*
Y600957D02*
D03*
D103*
X200399Y105003D02*
D03*
X105036Y105000D02*
D03*
X152631Y105002D02*
D03*
X457500Y435778D02*
D03*
D104*
X200399Y125003D02*
D03*
Y145003D02*
D03*
Y165003D02*
D03*
X105036Y125000D02*
D03*
Y145000D02*
D03*
Y165000D02*
D03*
X152631Y125002D02*
D03*
Y145002D02*
D03*
Y165002D02*
D03*
X457500Y375778D02*
D03*
Y395778D02*
D03*
Y415778D02*
D03*
D105*
X149430Y234723D02*
D03*
X812717Y338644D02*
D03*
X192491Y70000D02*
D03*
X138008D02*
D03*
X112522Y406281D02*
D03*
X813987Y300940D02*
D03*
X137238Y264375D02*
D03*
X406136Y316940D02*
D03*
X434275Y315064D02*
D03*
X112612Y499415D02*
D03*
X112970Y433710D02*
D03*
Y582697D02*
D03*
X112522Y471551D02*
D03*
X112727Y554688D02*
D03*
X112571Y526889D02*
D03*
X549348Y432935D02*
D03*
X503405Y493032D02*
D03*
X390284Y494632D02*
D03*
X450000Y492453D02*
D03*
X598929Y282134D02*
D03*
X141770Y583811D02*
D03*
X610958Y244792D02*
D03*
X468662Y318598D02*
D03*
D106*
X153140Y543443D02*
D03*
D107*
Y518043D02*
D03*
Y492643D02*
D03*
Y467243D02*
D03*
D108*
X791198Y145000D02*
D03*
D109*
Y65000D02*
D03*
D110*
X781327Y561007D02*
D03*
Y512507D02*
D03*
D111*
X812127Y577757D02*
D03*
Y495757D02*
D03*
D112*
X270681Y502174D02*
D03*
X260681D02*
D03*
X270681Y512174D02*
D03*
X260681D02*
D03*
X292500Y502174D02*
D03*
X282500D02*
D03*
X292500Y512174D02*
D03*
X282500D02*
D03*
X270681Y480000D02*
D03*
X260681D02*
D03*
X270681Y490000D02*
D03*
X260681D02*
D03*
X292500Y480000D02*
D03*
X282500D02*
D03*
X292500Y490000D02*
D03*
X282500D02*
D03*
X261207Y379619D02*
D03*
X251207D02*
D03*
X261207Y389619D02*
D03*
X251207D02*
D03*
X290443Y379619D02*
D03*
X280443D02*
D03*
X290443Y389619D02*
D03*
X280443D02*
D03*
X290443Y351070D02*
D03*
X280443D02*
D03*
X290443Y361070D02*
D03*
X280443D02*
D03*
X261207Y351070D02*
D03*
X251207D02*
D03*
X261207Y361070D02*
D03*
X251207D02*
D03*
D113*
X252659Y205492D02*
D03*
X252829Y259433D02*
D03*
X397891Y301602D02*
D03*
D114*
X122720Y451928D02*
D03*
X226884Y415777D02*
D03*
X653853Y607744D02*
D03*
X747037Y555624D02*
D03*
X655992Y511224D02*
D03*
X608387Y529258D02*
D03*
X652856Y380564D02*
D03*
X701832Y504832D02*
D03*
X664053Y409096D02*
D03*
X604833Y611240D02*
D03*
X625913Y607490D02*
D03*
X770635Y601394D02*
D03*
X702621Y569644D02*
D03*
X644201Y607490D02*
D03*
X652075Y564056D02*
D03*
D115*
X687875Y415699D02*
D03*
X698459D02*
D03*
X693167Y420991D02*
D03*
X698459Y426283D02*
D03*
X687875D02*
D03*
D116*
X530849Y341144D02*
D03*
Y326144D02*
D03*
X540849D02*
D03*
Y341144D02*
D03*
X535849Y333644D02*
D03*
D117*
X638879Y300144D02*
D03*
Y292144D02*
D03*
M02*
