G04*
G04 #@! TF.GenerationSoftware,Altium Limited,Altium Designer,24.1.2 (44)*
G04*
G04 Layer_Physical_Order=2*
G04 Layer_Color=36540*
%FSLAX44Y44*%
%MOMM*%
G71*
G04*
G04 #@! TF.SameCoordinates,E849002E-D005-4F9B-B670-832AB9F5597C*
G04*
G04*
G04 #@! TF.FilePolarity,Positive*
G04*
G01*
G75*
%ADD23R,2.0000X2.0000*%
%ADD41C,1.2700*%
%ADD115C,0.5080*%
%ADD116C,0.5000*%
%ADD131C,2.0000*%
%ADD132C,1.6000*%
G04:AMPARAMS|DCode=133|XSize=1.6mm|YSize=1.6mm|CornerRadius=0.4mm|HoleSize=0mm|Usage=FLASHONLY|Rotation=180.000|XOffset=0mm|YOffset=0mm|HoleType=Round|Shape=RoundedRectangle|*
%AMROUNDEDRECTD133*
21,1,1.6000,0.8000,0,0,180.0*
21,1,0.8000,1.6000,0,0,180.0*
1,1,0.8000,-0.4000,0.4000*
1,1,0.8000,0.4000,0.4000*
1,1,0.8000,0.4000,-0.4000*
1,1,0.8000,-0.4000,-0.4000*
%
%ADD133ROUNDEDRECTD133*%
%ADD134R,1.4000X1.4000*%
%ADD135C,1.4000*%
%ADD136C,1.6256*%
%ADD137R,1.3980X1.3980*%
%ADD138C,1.3980*%
%ADD139O,0.9000X1.7000*%
%ADD140C,0.9000*%
%ADD141O,1.4600X1.0000*%
%ADD142O,1.8000X1.0000*%
%ADD143C,0.5500*%
%ADD144C,0.6350*%
G36*
X834821Y14044D02*
X818342Y10946D01*
X776811Y3886D01*
X735162Y-2450D01*
X693412Y-8059D01*
X651568Y-12940D01*
X609646Y-17091D01*
X567658Y-20512D01*
X525618Y-23199D01*
X483536Y-25155D01*
X441427Y-26376D01*
X399304Y-26864D01*
X357176Y-26618D01*
X315060Y-25637D01*
X272970Y-23923D01*
X230912Y-21477D01*
X188906Y-18297D01*
X146962Y-14387D01*
X105091Y-9746D01*
X63307Y-4376D01*
X21624Y1721D01*
X5179Y4420D01*
X5179Y634821D01*
X162969D01*
Y577956D01*
X163363Y575974D01*
X164486Y574293D01*
X165648Y573517D01*
Y571675D01*
X166051Y570703D01*
X167023Y570300D01*
X387023D01*
X387995Y570703D01*
X388397Y571675D01*
Y573017D01*
X389169Y573170D01*
X389174Y573174D01*
X389181Y573176D01*
X390012Y573734D01*
X390849Y574293D01*
X390853Y574299D01*
X390858Y574302D01*
X391415Y575140D01*
X391972Y575974D01*
X391973Y575980D01*
X391977Y575986D01*
X392170Y576971D01*
X392366Y577956D01*
X392365Y577962D01*
X392366Y577969D01*
X392224Y633921D01*
X393121Y634821D01*
X793833D01*
X794021Y633551D01*
X793717Y633458D01*
X791069Y632043D01*
X788749Y630139D01*
X786844Y627818D01*
X785429Y625171D01*
X784558Y622298D01*
X784264Y619310D01*
X784558Y616323D01*
X785429Y613450D01*
X786844Y610802D01*
X788749Y608482D01*
X791069Y606577D01*
X793717Y605162D01*
X796590Y604291D01*
X799577Y603997D01*
X802565Y604291D01*
X805438Y605162D01*
X808085Y606577D01*
X810406Y608482D01*
X812310Y610802D01*
X813725Y613450D01*
X814597Y616323D01*
X814891Y619310D01*
X814597Y622298D01*
X813725Y625171D01*
X812310Y627818D01*
X810406Y630139D01*
X808085Y632043D01*
X805438Y633458D01*
X805134Y633551D01*
X805322Y634821D01*
X834821D01*
X834821Y14044D01*
D02*
G37*
%LPC*%
G36*
X499084Y611108D02*
X496354D01*
Y602227D01*
X505234D01*
Y604958D01*
X504766Y607311D01*
X503433Y609306D01*
X501438Y610639D01*
X499084Y611108D01*
D02*
G37*
G36*
X471005Y610989D02*
X470954D01*
Y602227D01*
X479716D01*
Y602278D01*
X479033Y604830D01*
X477712Y607117D01*
X475844Y608985D01*
X473557Y610306D01*
X471005Y610989D01*
D02*
G37*
G36*
X445605D02*
X445554D01*
Y602227D01*
X454316D01*
Y602278D01*
X453633Y604830D01*
X452312Y607117D01*
X450444Y608985D01*
X448157Y610306D01*
X445605Y610989D01*
D02*
G37*
G36*
X468414D02*
X468364D01*
X465812Y610306D01*
X463525Y608985D01*
X461657Y607117D01*
X460336Y604830D01*
X459652Y602278D01*
Y602227D01*
X468414D01*
Y610989D01*
D02*
G37*
G36*
X443014D02*
X442964D01*
X440412Y610306D01*
X438125Y608985D01*
X436257Y607117D01*
X434936Y604830D01*
X434252Y602278D01*
Y602227D01*
X443014D01*
Y610989D01*
D02*
G37*
G36*
X493814Y611108D02*
X491084D01*
X488731Y610639D01*
X486735Y609306D01*
X485402Y607311D01*
X484934Y604958D01*
Y602227D01*
X493814D01*
Y611108D01*
D02*
G37*
G36*
X479716Y599687D02*
X470954D01*
Y590925D01*
X471005D01*
X473557Y591609D01*
X475844Y592930D01*
X477712Y594798D01*
X479033Y597085D01*
X479716Y599637D01*
Y599687D01*
D02*
G37*
G36*
X468414D02*
X459652D01*
Y599637D01*
X460336Y597085D01*
X461657Y594798D01*
X463525Y592930D01*
X465812Y591609D01*
X468364Y590925D01*
X468414D01*
Y599687D01*
D02*
G37*
G36*
X454316D02*
X445554D01*
Y590925D01*
X445605D01*
X448157Y591609D01*
X450444Y592930D01*
X452312Y594798D01*
X453633Y597085D01*
X454316Y599637D01*
Y599687D01*
D02*
G37*
G36*
X443014D02*
X434252D01*
Y599637D01*
X434936Y597085D01*
X436257Y594798D01*
X438125Y592930D01*
X440412Y591609D01*
X442964Y590925D01*
X443014D01*
Y599687D01*
D02*
G37*
G36*
X505234D02*
X496354D01*
Y590807D01*
X499084D01*
X501438Y591275D01*
X503433Y592609D01*
X504766Y594604D01*
X505234Y596958D01*
Y599687D01*
D02*
G37*
G36*
X493814D02*
X484934D01*
Y596958D01*
X485402Y594604D01*
X486735Y592609D01*
X488731Y591275D01*
X491084Y590807D01*
X493814D01*
Y599687D01*
D02*
G37*
G36*
X114207Y592095D02*
X111733D01*
X109342Y591455D01*
X107199Y590218D01*
X106315Y589333D01*
X104817Y589631D01*
X104805Y589658D01*
X103734Y590730D01*
X102333Y591310D01*
X100817D01*
X99417Y590730D01*
X98345Y589658D01*
X97765Y588258D01*
Y586742D01*
X98345Y585342D01*
X99417Y584270D01*
X100817Y583690D01*
X102333D01*
X103572Y582828D01*
Y581460D01*
X104213Y579070D01*
X105450Y576927D01*
X107199Y575177D01*
X109342Y573940D01*
X111733Y573299D01*
X114207D01*
X116597Y573940D01*
X118741Y575177D01*
X120490Y576927D01*
X121728Y579070D01*
X122368Y581460D01*
Y583935D01*
X121728Y586325D01*
X120490Y588468D01*
X118741Y590218D01*
X116597Y591455D01*
X114207Y592095D01*
D02*
G37*
G36*
X45245Y618959D02*
X42258Y618665D01*
X39385Y617793D01*
X36737Y616378D01*
X34417Y614474D01*
X32513Y612153D01*
X31097Y609506D01*
X30226Y606633D01*
X29932Y603645D01*
X30226Y600658D01*
X31097Y597785D01*
X32513Y595137D01*
X34417Y592817D01*
X36737Y590913D01*
X39385Y589497D01*
X42258Y588626D01*
X45245Y588332D01*
X48233Y588626D01*
X51106Y589497D01*
X53753Y590913D01*
X56074Y592817D01*
X57978Y595137D01*
X59394Y597785D01*
X60265Y600658D01*
X60559Y603645D01*
X60265Y606633D01*
X59394Y609506D01*
X57978Y612153D01*
X56074Y614474D01*
X53753Y616378D01*
X51106Y617793D01*
X48233Y618665D01*
X45245Y618959D01*
D02*
G37*
G36*
X816127Y584850D02*
X813397D01*
Y579027D01*
X823053D01*
X822978Y579593D01*
X822270Y581303D01*
X821143Y582772D01*
X819674Y583899D01*
X817963Y584608D01*
X816127Y584850D01*
D02*
G37*
G36*
X810857D02*
X808127D01*
X806292Y584608D01*
X804581Y583899D01*
X803112Y582772D01*
X801985Y581303D01*
X801276Y579593D01*
X801202Y579027D01*
X810857D01*
Y584850D01*
D02*
G37*
G36*
X143008Y593209D02*
X140533D01*
X138143Y592568D01*
X136000Y591331D01*
X134250Y589581D01*
X133013Y587438D01*
X132372Y585048D01*
Y582573D01*
X133013Y580183D01*
X134250Y578040D01*
X136000Y576290D01*
X138143Y575053D01*
X140533Y574413D01*
X143008D01*
X145398Y575053D01*
X147541Y576290D01*
X149291Y578040D01*
X150528Y580183D01*
X151168Y582573D01*
Y585048D01*
X150528Y587438D01*
X149291Y589581D01*
X147541Y591331D01*
X145398Y592568D01*
X143008Y593209D01*
D02*
G37*
G36*
X823053Y576487D02*
X813397D01*
Y570664D01*
X816127D01*
X817963Y570906D01*
X819674Y571614D01*
X821143Y572742D01*
X822270Y574211D01*
X822978Y575921D01*
X823053Y576487D01*
D02*
G37*
G36*
X810857D02*
X801202D01*
X801276Y575921D01*
X801985Y574211D01*
X803112Y572742D01*
X804581Y571614D01*
X806292Y570906D01*
X808127Y570664D01*
X810857D01*
Y576487D01*
D02*
G37*
G36*
X496305Y584827D02*
X493864D01*
X491506Y584196D01*
X489392Y582975D01*
X487667Y581249D01*
X486446Y579136D01*
X485814Y576778D01*
Y574337D01*
X486446Y571979D01*
X487667Y569866D01*
X489392Y568140D01*
X491506Y566919D01*
X493864Y566287D01*
X496305D01*
X498662Y566919D01*
X500776Y568140D01*
X502502Y569866D01*
X503722Y571979D01*
X504354Y574337D01*
Y576778D01*
X503722Y579136D01*
X502502Y581249D01*
X500776Y582975D01*
X498662Y584196D01*
X496305Y584827D01*
D02*
G37*
G36*
X470905D02*
X468464D01*
X466106Y584196D01*
X463992Y582975D01*
X462267Y581249D01*
X461046Y579136D01*
X460414Y576778D01*
Y574337D01*
X461046Y571979D01*
X462267Y569866D01*
X463992Y568140D01*
X466106Y566919D01*
X468464Y566287D01*
X470905D01*
X473262Y566919D01*
X475376Y568140D01*
X477102Y569866D01*
X478322Y571979D01*
X478954Y574337D01*
Y576778D01*
X478322Y579136D01*
X477102Y581249D01*
X475376Y582975D01*
X473262Y584196D01*
X470905Y584827D01*
D02*
G37*
G36*
X445505D02*
X443064D01*
X440706Y584196D01*
X438592Y582975D01*
X436866Y581249D01*
X435646Y579136D01*
X435014Y576778D01*
Y574337D01*
X435646Y571979D01*
X436866Y569866D01*
X438592Y568140D01*
X440706Y566919D01*
X443064Y566287D01*
X445505D01*
X447862Y566919D01*
X449976Y568140D01*
X451702Y569866D01*
X452923Y571979D01*
X453554Y574337D01*
Y576778D01*
X452923Y579136D01*
X451702Y581249D01*
X449976Y582975D01*
X447862Y584196D01*
X445505Y584827D01*
D02*
G37*
G36*
X145338Y572653D02*
X143822D01*
X142422Y572073D01*
X141350Y571001D01*
X140770Y569601D01*
Y568085D01*
X141350Y566685D01*
X142422Y565613D01*
X143822Y565033D01*
X145338D01*
X146738Y565613D01*
X147810Y566685D01*
X148390Y568085D01*
Y569601D01*
X147810Y571001D01*
X146738Y572073D01*
X145338Y572653D01*
D02*
G37*
G36*
X783627Y568100D02*
X782597D01*
Y562277D01*
X790553D01*
X790478Y562843D01*
X789770Y564553D01*
X788643Y566022D01*
X787174Y567149D01*
X785463Y567858D01*
X783627Y568100D01*
D02*
G37*
G36*
X780057D02*
X779027D01*
X777192Y567858D01*
X775481Y567149D01*
X774012Y566022D01*
X772885Y564553D01*
X772176Y562843D01*
X772102Y562277D01*
X780057D01*
Y568100D01*
D02*
G37*
G36*
X652833Y567866D02*
X651317D01*
X649917Y567286D01*
X648845Y566214D01*
X648265Y564814D01*
Y563298D01*
X648845Y561898D01*
X649917Y560826D01*
X651317Y560246D01*
X652833D01*
X654233Y560826D01*
X655305Y561898D01*
X655885Y563298D01*
Y564814D01*
X655305Y566214D01*
X654233Y567286D01*
X652833Y567866D01*
D02*
G37*
G36*
X790553Y559737D02*
X782597D01*
Y553914D01*
X783627D01*
X785463Y554156D01*
X787174Y554865D01*
X788643Y555992D01*
X789770Y557461D01*
X790478Y559171D01*
X790553Y559737D01*
D02*
G37*
G36*
X780057D02*
X772102D01*
X772176Y559171D01*
X772885Y557461D01*
X774012Y555992D01*
X775481Y554865D01*
X777192Y554156D01*
X779027Y553914D01*
X780057D01*
Y559737D01*
D02*
G37*
G36*
X113965Y564086D02*
X111490D01*
X109100Y563445D01*
X106957Y562208D01*
X105207Y560458D01*
X103970Y558315D01*
X103329Y555925D01*
Y553450D01*
X103970Y551060D01*
X105207Y548917D01*
X106957Y547167D01*
X109100Y545930D01*
X111490Y545289D01*
X113965D01*
X116355Y545930D01*
X118498Y547167D01*
X120248Y548917D01*
X121485Y551060D01*
X122126Y553450D01*
Y555925D01*
X121485Y558315D01*
X120248Y560458D01*
X118498Y562208D01*
X116355Y563445D01*
X113965Y564086D01*
D02*
G37*
G36*
X162162Y552465D02*
X154410D01*
Y544713D01*
X162162D01*
Y552465D01*
D02*
G37*
G36*
X145164Y557549D02*
X143664D01*
X142279Y556975D01*
X141218Y555915D01*
X140644Y554529D01*
Y553029D01*
X141218Y551644D01*
X142279Y550583D01*
X143664Y550009D01*
X144118D01*
Y544713D01*
X151870D01*
Y552465D01*
X148562D01*
X148184Y553030D01*
Y554529D01*
X147610Y555915D01*
X146550Y556975D01*
X145164Y557549D01*
D02*
G37*
G36*
X425736Y552291D02*
X424220D01*
X422820Y551711D01*
X421748Y550639D01*
X421168Y549239D01*
Y547723D01*
X421748Y546323D01*
X422820Y545251D01*
X424220Y544671D01*
X425736D01*
X427136Y545251D01*
X428208Y546323D01*
X428788Y547723D01*
Y549239D01*
X428208Y550639D01*
X427136Y551711D01*
X425736Y552291D01*
D02*
G37*
G36*
X162162Y542173D02*
X154410D01*
Y534421D01*
X162162D01*
Y542173D01*
D02*
G37*
G36*
X151870D02*
X144118D01*
Y534421D01*
X151870D01*
Y542173D01*
D02*
G37*
G36*
X171783Y539738D02*
X170268D01*
X168867Y539158D01*
X167796Y538086D01*
X167215Y536686D01*
Y535170D01*
X167796Y533770D01*
X168867Y532698D01*
X170268Y532118D01*
X171783D01*
X173184Y532698D01*
X174256Y533770D01*
X174835Y535170D01*
Y536686D01*
X174256Y538086D01*
X173184Y539158D01*
X171783Y539738D01*
D02*
G37*
G36*
X220580Y536468D02*
X219081D01*
X217695Y535894D01*
X216634Y534834D01*
X216061Y533448D01*
Y531948D01*
X216634Y530563D01*
X217695Y529502D01*
X219081Y528928D01*
X220580D01*
X221966Y529502D01*
X223027Y530563D01*
X223601Y531948D01*
Y533448D01*
X223027Y534834D01*
X221966Y535894D01*
X220580Y536468D01*
D02*
G37*
G36*
X330820Y536455D02*
X329305D01*
X327904Y535876D01*
X326833Y534804D01*
X326253Y533403D01*
Y531888D01*
X326833Y530487D01*
X327904Y529416D01*
X329305Y528835D01*
X330820D01*
X332221Y529416D01*
X333293Y530487D01*
X333873Y531888D01*
Y533403D01*
X333293Y534804D01*
X332221Y535876D01*
X330820Y536455D01*
D02*
G37*
G36*
X189680Y532738D02*
X188180D01*
X186795Y532164D01*
X185734Y531104D01*
X185160Y529718D01*
Y528218D01*
X185309Y527859D01*
X185254Y527781D01*
X184285Y527013D01*
X183218Y527455D01*
X181702D01*
X180302Y526875D01*
X179230Y525803D01*
X178650Y524403D01*
Y522887D01*
X179230Y521487D01*
X180302Y520415D01*
X181702Y519835D01*
X183218D01*
X184618Y520415D01*
X185690Y521487D01*
X186270Y522887D01*
Y524403D01*
X186112Y524785D01*
X186150Y524839D01*
X187136Y525630D01*
X188180Y525198D01*
X189680D01*
X191066Y525772D01*
X192126Y526832D01*
X192700Y528218D01*
Y529718D01*
X192126Y531104D01*
X191066Y532164D01*
X189680Y532738D01*
D02*
G37*
G36*
X318736Y527455D02*
X317220D01*
X315820Y526875D01*
X314748Y525803D01*
X314168Y524403D01*
Y522887D01*
X314748Y521487D01*
X315820Y520415D01*
X317220Y519835D01*
X318736D01*
X320136Y520415D01*
X321208Y521487D01*
X321788Y522887D01*
Y524403D01*
X321208Y525803D01*
X320136Y526875D01*
X318736Y527455D01*
D02*
G37*
G36*
X113808Y536287D02*
X111334D01*
X108944Y535647D01*
X106801Y534410D01*
X105051Y532660D01*
X103814Y530517D01*
X103173Y528127D01*
Y525652D01*
X103814Y523262D01*
X105051Y521119D01*
X106801Y519369D01*
X108944Y518132D01*
X111334Y517491D01*
X113808D01*
X116199Y518132D01*
X118342Y519369D01*
X120091Y521119D01*
X121329Y523262D01*
X121969Y525652D01*
Y528127D01*
X121329Y530517D01*
X120091Y532660D01*
X118342Y534410D01*
X116199Y535647D01*
X113808Y536287D01*
D02*
G37*
G36*
X220633Y521813D02*
X219133D01*
X217747Y521239D01*
X216687Y520178D01*
X216113Y518793D01*
Y517293D01*
X216687Y515907D01*
X217747Y514847D01*
X219133Y514273D01*
X220633D01*
X222019Y514847D01*
X223079Y515907D01*
X223653Y517293D01*
Y518793D01*
X223079Y520178D01*
X222019Y521239D01*
X220633Y521813D01*
D02*
G37*
G36*
X783627Y519600D02*
X782597D01*
Y513777D01*
X790553D01*
X790478Y514343D01*
X789770Y516053D01*
X788643Y517522D01*
X787174Y518649D01*
X785463Y519358D01*
X783627Y519600D01*
D02*
G37*
G36*
X780057D02*
X779027D01*
X777192Y519358D01*
X775481Y518649D01*
X774012Y517522D01*
X772885Y516053D01*
X772176Y514343D01*
X772102Y513777D01*
X780057D01*
Y519600D01*
D02*
G37*
G36*
X171775Y520699D02*
X170276D01*
X168890Y520125D01*
X167829Y519064D01*
X167255Y517679D01*
Y516179D01*
X167829Y514793D01*
X168890Y513733D01*
X170276Y513159D01*
X171775D01*
X173161Y513733D01*
X174221Y514793D01*
X174795Y516179D01*
Y517679D01*
X174221Y519064D01*
X173161Y520125D01*
X171775Y520699D01*
D02*
G37*
G36*
X639244Y520200D02*
X637728D01*
X636328Y519620D01*
X635256Y518548D01*
X634676Y517148D01*
Y515632D01*
X635256Y514232D01*
X636328Y513160D01*
X637728Y512580D01*
X639244D01*
X640645Y513160D01*
X641716Y514232D01*
X642296Y515632D01*
Y517148D01*
X641716Y518548D01*
X640645Y519620D01*
X639244Y520200D01*
D02*
G37*
G36*
X154228Y526303D02*
X152053D01*
X149952Y525740D01*
X148069Y524652D01*
X146531Y523115D01*
X145443Y521231D01*
X144880Y519130D01*
Y516955D01*
X145443Y514855D01*
X146531Y512971D01*
X148069Y511433D01*
X149952Y510346D01*
X152053Y509783D01*
X154228D01*
X156328Y510346D01*
X158212Y511433D01*
X159750Y512971D01*
X160837Y514855D01*
X161400Y516955D01*
Y519130D01*
X160837Y521231D01*
X159750Y523115D01*
X158212Y524652D01*
X156328Y525740D01*
X154228Y526303D01*
D02*
G37*
G36*
X608314Y516660D02*
X606798D01*
X605398Y516080D01*
X604326Y515008D01*
X603746Y513608D01*
Y512092D01*
X604326Y510692D01*
X605398Y509620D01*
X606798Y509040D01*
X608314D01*
X609714Y509620D01*
X610786Y510692D01*
X611366Y512092D01*
Y513608D01*
X610786Y515008D01*
X609714Y516080D01*
X608314Y516660D01*
D02*
G37*
G36*
X202278Y515776D02*
X200763D01*
X199362Y515196D01*
X198291Y514124D01*
X197710Y512724D01*
Y511208D01*
X198291Y509808D01*
X199362Y508736D01*
X200763Y508156D01*
X202278D01*
X203679Y508736D01*
X204750Y509808D01*
X205331Y511208D01*
Y512724D01*
X204750Y514124D01*
X203679Y515196D01*
X202278Y515776D01*
D02*
G37*
G36*
X656750Y515034D02*
X655234D01*
X653834Y514454D01*
X652762Y513382D01*
X652182Y511982D01*
Y510466D01*
X652762Y509066D01*
X653834Y507994D01*
X655234Y507414D01*
X656750D01*
X658150Y507994D01*
X659222Y509066D01*
X659802Y510466D01*
Y511982D01*
X659222Y513382D01*
X658150Y514454D01*
X656750Y515034D01*
D02*
G37*
G36*
X97253Y515022D02*
X95737D01*
X94337Y514442D01*
X93265Y513371D01*
X92685Y511970D01*
Y510455D01*
X93265Y509054D01*
X94337Y507982D01*
X95737Y507402D01*
X97253D01*
X98653Y507982D01*
X99725Y509054D01*
X100305Y510455D01*
Y511970D01*
X99725Y513371D01*
X98653Y514442D01*
X97253Y515022D01*
D02*
G37*
G36*
X790553Y511237D02*
X782597D01*
Y505414D01*
X783627D01*
X785463Y505656D01*
X787174Y506365D01*
X788643Y507492D01*
X789770Y508961D01*
X790478Y510671D01*
X790553Y511237D01*
D02*
G37*
G36*
X780057D02*
X772102D01*
X772176Y510671D01*
X772885Y508961D01*
X774012Y507492D01*
X775481Y506365D01*
X777192Y505656D01*
X779027Y505414D01*
X780057D01*
Y511237D01*
D02*
G37*
G36*
X190170Y510080D02*
X188670D01*
X187285Y509506D01*
X186224Y508446D01*
X185650Y507060D01*
Y505560D01*
X186224Y504175D01*
X187285Y503114D01*
X188670Y502540D01*
X190170D01*
X191556Y503114D01*
X192616Y504175D01*
X193190Y505560D01*
Y507060D01*
X192616Y508446D01*
X191556Y509506D01*
X190170Y510080D01*
D02*
G37*
G36*
X816127Y502850D02*
X813397D01*
Y497027D01*
X823053D01*
X822978Y497593D01*
X822270Y499303D01*
X821143Y500772D01*
X819674Y501899D01*
X817963Y502608D01*
X816127Y502850D01*
D02*
G37*
G36*
X810857D02*
X808127D01*
X806292Y502608D01*
X804581Y501899D01*
X803112Y500772D01*
X801985Y499303D01*
X801276Y497593D01*
X801202Y497027D01*
X810857D01*
Y502850D01*
D02*
G37*
G36*
X183210Y498402D02*
X181710D01*
X180324Y497828D01*
X179264Y496768D01*
X178690Y495382D01*
Y493882D01*
X179264Y492496D01*
X180324Y491436D01*
X181710Y490862D01*
X183210D01*
X184596Y491436D01*
X185656Y492496D01*
X186230Y493882D01*
Y495382D01*
X185656Y496768D01*
X184596Y497828D01*
X183210Y498402D01*
D02*
G37*
G36*
X113849Y508813D02*
X111374D01*
X108984Y508173D01*
X106841Y506936D01*
X105091Y505186D01*
X103854Y503043D01*
X103214Y500653D01*
Y498178D01*
X103854Y495788D01*
X105091Y493645D01*
X106841Y491895D01*
X108984Y490658D01*
X111374Y490017D01*
X113849D01*
X116239Y490658D01*
X118382Y491895D01*
X120132Y493645D01*
X121369Y495788D01*
X122010Y498178D01*
Y500653D01*
X121369Y503043D01*
X120132Y505186D01*
X118382Y506936D01*
X116239Y508173D01*
X113849Y508813D01*
D02*
G37*
G36*
X823053Y494487D02*
X813397D01*
Y488664D01*
X816127D01*
X817963Y488906D01*
X819674Y489614D01*
X821143Y490742D01*
X822270Y492211D01*
X822978Y493921D01*
X823053Y494487D01*
D02*
G37*
G36*
X810857D02*
X801202D01*
X801276Y493921D01*
X801985Y492211D01*
X803112Y490742D01*
X804581Y489614D01*
X806292Y488906D01*
X808127Y488664D01*
X810857D01*
Y494487D01*
D02*
G37*
G36*
X660171Y494027D02*
X658656D01*
X657255Y493447D01*
X656183Y492375D01*
X655603Y490975D01*
Y489459D01*
X656183Y488059D01*
X657255Y486987D01*
X658656Y486407D01*
X660171D01*
X661572Y486987D01*
X662644Y488059D01*
X663223Y489459D01*
Y490975D01*
X662644Y492375D01*
X661572Y493447D01*
X660171Y494027D01*
D02*
G37*
G36*
X391522Y504030D02*
X389047D01*
X386657Y503390D01*
X384514Y502152D01*
X382764Y500402D01*
X381527Y498260D01*
X380886Y495869D01*
Y493395D01*
X381527Y491004D01*
X382764Y488862D01*
X384514Y487112D01*
X386657Y485874D01*
X389047Y485234D01*
X391522D01*
X393912Y485874D01*
X396055Y487112D01*
X397805Y488862D01*
X399042Y491004D01*
X399682Y493395D01*
Y495869D01*
X399042Y498260D01*
X397805Y500402D01*
X396055Y502152D01*
X393912Y503390D01*
X391522Y504030D01*
D02*
G37*
G36*
X154228Y500903D02*
X152053D01*
X149952Y500340D01*
X148069Y499252D01*
X146531Y497715D01*
X145443Y495831D01*
X144880Y493730D01*
Y491555D01*
X145443Y489455D01*
X146531Y487571D01*
X148069Y486033D01*
X149952Y484946D01*
X152053Y484383D01*
X154228D01*
X156328Y484946D01*
X158212Y486033D01*
X159750Y487571D01*
X160837Y489455D01*
X161400Y491555D01*
Y493730D01*
X160837Y495831D01*
X159750Y497715D01*
X158212Y499252D01*
X156328Y500340D01*
X154228Y500903D01*
D02*
G37*
G36*
X504642Y502430D02*
X502168D01*
X499778Y501790D01*
X497635Y500552D01*
X495885Y498802D01*
X494648Y496660D01*
X494007Y494269D01*
Y491795D01*
X494648Y489404D01*
X495885Y487261D01*
X497635Y485512D01*
X499778Y484274D01*
X502168Y483634D01*
X504642D01*
X507033Y484274D01*
X509176Y485512D01*
X510925Y487261D01*
X512163Y489404D01*
X512803Y491795D01*
Y494269D01*
X512163Y496660D01*
X510925Y498802D01*
X509176Y500552D01*
X507033Y501790D01*
X504642Y502430D01*
D02*
G37*
G36*
X451237Y501851D02*
X448763D01*
X446372Y501210D01*
X444230Y499973D01*
X442480Y498223D01*
X441242Y496080D01*
X440602Y493690D01*
Y491216D01*
X441242Y488825D01*
X442480Y486682D01*
X444230Y484933D01*
X446372Y483695D01*
X448763Y483055D01*
X451237D01*
X453628Y483695D01*
X455770Y484933D01*
X457520Y486682D01*
X458758Y488825D01*
X459398Y491216D01*
Y493690D01*
X458758Y496080D01*
X457520Y498223D01*
X455770Y499973D01*
X453628Y501210D01*
X451237Y501851D01*
D02*
G37*
G36*
X410712Y488942D02*
X409196D01*
X407796Y488362D01*
X406724Y487290D01*
X406144Y485890D01*
Y484374D01*
X406724Y482974D01*
X407796Y481902D01*
X409196Y481322D01*
X410712D01*
X412112Y481902D01*
X413184Y482974D01*
X413764Y484374D01*
Y485890D01*
X413184Y487290D01*
X412112Y488362D01*
X410712Y488942D01*
D02*
G37*
G36*
X468196Y488612D02*
X466680D01*
X465280Y488032D01*
X464208Y486960D01*
X463628Y485560D01*
Y484044D01*
X464208Y482644D01*
X465280Y481572D01*
X466680Y480992D01*
X468196D01*
X469596Y481572D01*
X470668Y482644D01*
X471248Y484044D01*
Y485560D01*
X470668Y486960D01*
X469596Y488032D01*
X468196Y488612D01*
D02*
G37*
G36*
X518260Y483015D02*
X516744D01*
X515344Y482435D01*
X514272Y481363D01*
X513692Y479963D01*
Y478447D01*
X514272Y477047D01*
X515344Y475975D01*
X516744Y475395D01*
X518260D01*
X519661Y475975D01*
X520732Y477047D01*
X521312Y478447D01*
Y479963D01*
X520732Y481363D01*
X519661Y482435D01*
X518260Y483015D01*
D02*
G37*
G36*
X171783Y479738D02*
X170268D01*
X168867Y479158D01*
X167796Y478086D01*
X167215Y476686D01*
Y475170D01*
X167796Y473770D01*
X168867Y472698D01*
X170268Y472118D01*
X171783D01*
X173184Y472698D01*
X174256Y473770D01*
X174835Y475170D01*
Y476686D01*
X174256Y478086D01*
X173184Y479158D01*
X171783Y479738D01*
D02*
G37*
G36*
X459656Y476173D02*
X458140D01*
X456740Y475593D01*
X455668Y474521D01*
X455088Y473121D01*
Y471605D01*
X455668Y470205D01*
X456740Y469133D01*
X458140Y468553D01*
X459656D01*
X461056Y469133D01*
X462128Y470205D01*
X462708Y471605D01*
Y473121D01*
X462128Y474521D01*
X461056Y475593D01*
X459656Y476173D01*
D02*
G37*
G36*
X660171Y475857D02*
X658656D01*
X657255Y475277D01*
X656183Y474206D01*
X655603Y472805D01*
Y471289D01*
X656183Y469889D01*
X657255Y468817D01*
X658656Y468237D01*
X660171D01*
X661572Y468817D01*
X662644Y469889D01*
X663223Y471289D01*
Y472805D01*
X662644Y474206D01*
X661572Y475277D01*
X660171Y475857D01*
D02*
G37*
G36*
X138875Y475321D02*
X137375D01*
X135990Y474747D01*
X134929Y473686D01*
X134355Y472301D01*
Y470801D01*
X134929Y469415D01*
X135990Y468355D01*
X137375Y467781D01*
X138875D01*
X140261Y468355D01*
X141321Y469415D01*
X141895Y470801D01*
Y472301D01*
X141321Y473686D01*
X140261Y474747D01*
X138875Y475321D01*
D02*
G37*
G36*
X445042Y474547D02*
X443526D01*
X442126Y473967D01*
X441054Y472895D01*
X440474Y471494D01*
Y469979D01*
X441054Y468578D01*
X442126Y467507D01*
X443526Y466927D01*
X445042D01*
X446442Y467507D01*
X447514Y468578D01*
X448094Y469979D01*
Y471494D01*
X447514Y472895D01*
X446442Y473967D01*
X445042Y474547D01*
D02*
G37*
G36*
X199032Y471013D02*
X197533D01*
X196147Y470439D01*
X195086Y469378D01*
X194513Y467993D01*
Y466493D01*
X195086Y465107D01*
X196147Y464047D01*
X197533Y463473D01*
X199032D01*
X200418Y464047D01*
X201479Y465107D01*
X202053Y466493D01*
Y467993D01*
X201479Y469378D01*
X200418Y470439D01*
X199032Y471013D01*
D02*
G37*
G36*
X83360Y471079D02*
X81844D01*
X80444Y470499D01*
X79372Y469427D01*
X78792Y468027D01*
Y466511D01*
X79372Y465111D01*
X80444Y464039D01*
X81844Y463459D01*
X83360D01*
X84760Y464039D01*
X85832Y465111D01*
X86412Y466511D01*
Y468027D01*
X85832Y469427D01*
X84760Y470499D01*
X83360Y471079D01*
D02*
G37*
G36*
X113759Y480949D02*
X111285D01*
X108895Y480308D01*
X106752Y479071D01*
X105002Y477321D01*
X103765Y475178D01*
X103124Y472788D01*
Y470314D01*
X103765Y467923D01*
X105002Y465780D01*
X106752Y464031D01*
X108895Y462793D01*
X111285Y462153D01*
X113759D01*
X116150Y462793D01*
X118293Y464031D01*
X120042Y465780D01*
X121280Y467923D01*
X121920Y470314D01*
Y472788D01*
X121280Y475178D01*
X120042Y477321D01*
X118293Y479071D01*
X116150Y480308D01*
X113759Y480949D01*
D02*
G37*
G36*
X622090Y468034D02*
X620574D01*
X619174Y467454D01*
X618102Y466383D01*
X617522Y464982D01*
Y463466D01*
X618102Y462066D01*
X619174Y460994D01*
X620574Y460414D01*
X622090D01*
X623490Y460994D01*
X624562Y462066D01*
X625142Y463466D01*
Y464982D01*
X624562Y466383D01*
X623490Y467454D01*
X622090Y468034D01*
D02*
G37*
G36*
X235758Y467738D02*
X234242D01*
X232842Y467158D01*
X231770Y466086D01*
X231190Y464686D01*
Y463170D01*
X231770Y461770D01*
X232842Y460698D01*
X234242Y460118D01*
X235758D01*
X237158Y460698D01*
X238230Y461770D01*
X238810Y463170D01*
Y464686D01*
X238230Y466086D01*
X237158Y467158D01*
X235758Y467738D01*
D02*
G37*
G36*
X154228Y475503D02*
X152053D01*
X149952Y474940D01*
X148069Y473852D01*
X146531Y472315D01*
X145443Y470431D01*
X144880Y468330D01*
Y466155D01*
X145443Y464055D01*
X146531Y462171D01*
X148069Y460633D01*
X149952Y459546D01*
X152053Y458983D01*
X154228D01*
X156328Y459546D01*
X158212Y460633D01*
X159750Y462171D01*
X160837Y464055D01*
X161400Y466155D01*
Y468330D01*
X160837Y470431D01*
X159750Y472315D01*
X158212Y473852D01*
X156328Y474940D01*
X154228Y475503D01*
D02*
G37*
G36*
X736010Y473476D02*
X734003D01*
X732065Y472957D01*
X730328Y471954D01*
X728909Y470535D01*
X727906Y468798D01*
X727387Y466860D01*
Y464853D01*
X727906Y462915D01*
X728909Y461177D01*
X730328Y459759D01*
X732065Y458756D01*
X734003Y458236D01*
X736010D01*
X737948Y458756D01*
X739685Y459759D01*
X741104Y461177D01*
X742107Y462915D01*
X742627Y464853D01*
Y466860D01*
X742107Y468798D01*
X741104Y470535D01*
X739685Y471954D01*
X737948Y472957D01*
X736010Y473476D01*
D02*
G37*
G36*
X581946Y467738D02*
X580430D01*
X579030Y467158D01*
X577958Y466086D01*
X577378Y464686D01*
Y463170D01*
X577958Y461770D01*
X579030Y460698D01*
X580430Y460118D01*
X581433D01*
X582238Y459454D01*
X582458Y458955D01*
Y457757D01*
X583038Y456357D01*
X584109Y455285D01*
X585510Y454705D01*
X587026D01*
X588426Y455285D01*
X589498Y456357D01*
X590078Y457757D01*
Y459273D01*
X589498Y460673D01*
X588426Y461745D01*
X587026Y462325D01*
X586022D01*
X585217Y462989D01*
X584998Y463488D01*
Y464686D01*
X584418Y466086D01*
X583346Y467158D01*
X581946Y467738D01*
D02*
G37*
G36*
X162869Y460851D02*
X161370D01*
X159984Y460277D01*
X158924Y459216D01*
X158350Y457831D01*
Y456331D01*
X158924Y454945D01*
X159984Y453885D01*
X161370Y453311D01*
X162869D01*
X164255Y453885D01*
X165316Y454945D01*
X165890Y456331D01*
Y457831D01*
X165316Y459216D01*
X164255Y460277D01*
X162869Y460851D01*
D02*
G37*
G36*
X58362Y460161D02*
X56846D01*
X55446Y459581D01*
X54374Y458509D01*
X53794Y457109D01*
Y455593D01*
X54374Y454193D01*
X55446Y453121D01*
X56846Y452541D01*
X58362D01*
X59762Y453121D01*
X60834Y454193D01*
X61414Y455593D01*
Y457109D01*
X60834Y458509D01*
X59762Y459581D01*
X58362Y460161D01*
D02*
G37*
G36*
X123478Y455738D02*
X121962D01*
X120562Y455158D01*
X119490Y454086D01*
X118910Y452686D01*
Y451170D01*
X119490Y449770D01*
X120562Y448698D01*
X121962Y448118D01*
X123478D01*
X124878Y448698D01*
X125950Y449770D01*
X126530Y451170D01*
Y452686D01*
X125950Y454086D01*
X124878Y455158D01*
X123478Y455738D01*
D02*
G37*
G36*
X171783Y448801D02*
X170268D01*
X168867Y448221D01*
X167796Y447149D01*
X167215Y445749D01*
Y444233D01*
X167796Y442833D01*
X168867Y441761D01*
X170268Y441181D01*
X171783D01*
X173184Y441761D01*
X174256Y442833D01*
X174835Y444233D01*
Y445749D01*
X174256Y447149D01*
X173184Y448221D01*
X171783Y448801D01*
D02*
G37*
G36*
X157410Y448230D02*
X155910D01*
X154524Y447656D01*
X153464Y446596D01*
X152890Y445210D01*
Y443710D01*
X153464Y442325D01*
X154524Y441264D01*
X155910Y440690D01*
X157410D01*
X158796Y441264D01*
X159856Y442325D01*
X160430Y443710D01*
Y445210D01*
X159856Y446596D01*
X158796Y447656D01*
X157410Y448230D01*
D02*
G37*
G36*
X241221Y437943D02*
X239721D01*
X238335Y437369D01*
X237275Y436308D01*
X236701Y434922D01*
Y433423D01*
X237275Y432037D01*
X238335Y430976D01*
X239721Y430402D01*
X241221D01*
X242606Y430976D01*
X243667Y432037D01*
X244241Y433423D01*
Y434922D01*
X243667Y436308D01*
X242606Y437369D01*
X241221Y437943D01*
D02*
G37*
G36*
X220863Y437696D02*
X219363D01*
X217978Y437122D01*
X216917Y436062D01*
X216343Y434676D01*
Y433176D01*
X216917Y431790D01*
X217978Y430730D01*
X219363Y430156D01*
X220863D01*
X222249Y430730D01*
X223309Y431790D01*
X223883Y433176D01*
Y434676D01*
X223309Y436062D01*
X222249Y437122D01*
X220863Y437696D01*
D02*
G37*
G36*
X458486Y450697D02*
X456970D01*
X455570Y450117D01*
X454498Y449045D01*
X453918Y447645D01*
Y446129D01*
X454254Y445318D01*
X453520Y444048D01*
X449230D01*
Y427508D01*
X465770D01*
Y444048D01*
X461937D01*
X461202Y445318D01*
X461538Y446129D01*
Y447645D01*
X460958Y449045D01*
X459887Y450117D01*
X458486Y450697D01*
D02*
G37*
G36*
X584564Y440453D02*
X582557D01*
X580619Y439934D01*
X578882Y438930D01*
X577463Y437512D01*
X576460Y435774D01*
X575941Y433836D01*
Y431830D01*
X576460Y429892D01*
X577463Y428154D01*
X578882Y426735D01*
X580619Y425732D01*
X582557Y425213D01*
X584564D01*
X586502Y425732D01*
X588239Y426735D01*
X589658Y428154D01*
X590661Y429892D01*
X591180Y431830D01*
Y433836D01*
X590661Y435774D01*
X589658Y437512D01*
X588239Y438930D01*
X586502Y439934D01*
X584564Y440453D01*
D02*
G37*
G36*
X330820Y432245D02*
X329305D01*
X327904Y431665D01*
X326833Y430594D01*
X326253Y429193D01*
Y427678D01*
X326833Y426277D01*
X327904Y425205D01*
X329305Y424625D01*
X330820D01*
X332221Y425205D01*
X333293Y426277D01*
X333873Y427678D01*
Y429193D01*
X333293Y430594D01*
X332221Y431665D01*
X330820Y432245D01*
D02*
G37*
G36*
X423098Y432196D02*
X421582D01*
X420182Y431616D01*
X419110Y430545D01*
X418530Y429144D01*
Y427629D01*
X419110Y426228D01*
X420182Y425157D01*
X421582Y424576D01*
X423098D01*
X424498Y425157D01*
X425570Y426228D01*
X426150Y427629D01*
Y429144D01*
X425570Y430545D01*
X424498Y431616D01*
X423098Y432196D01*
D02*
G37*
G36*
X114207Y443108D02*
X111733D01*
X109342Y442468D01*
X107199Y441231D01*
X105450Y439481D01*
X104213Y437338D01*
X103572Y434948D01*
Y432473D01*
X104213Y430083D01*
X105450Y427940D01*
X107199Y426190D01*
X109342Y424953D01*
X111733Y424312D01*
X114207D01*
X116597Y424953D01*
X118741Y426190D01*
X120490Y427940D01*
X121728Y430083D01*
X122368Y432473D01*
Y434948D01*
X121728Y437338D01*
X120490Y439481D01*
X118741Y441231D01*
X116597Y442468D01*
X114207Y443108D01*
D02*
G37*
G36*
X655992Y431898D02*
X654476D01*
X653076Y431318D01*
X652004Y430246D01*
X651424Y428846D01*
Y427330D01*
X652004Y425930D01*
X653076Y424858D01*
X654476Y424278D01*
X655992D01*
X657392Y424858D01*
X658464Y425930D01*
X659044Y427330D01*
Y428846D01*
X658464Y430246D01*
X657392Y431318D01*
X655992Y431898D01*
D02*
G37*
G36*
X550585Y442333D02*
X548111D01*
X545721Y441693D01*
X543578Y440456D01*
X541828Y438706D01*
X540591Y436563D01*
X539950Y434173D01*
Y431698D01*
X540591Y429308D01*
X541828Y427165D01*
X543578Y425415D01*
X545721Y424178D01*
X548111Y423537D01*
X550585D01*
X552976Y424178D01*
X555119Y425415D01*
X556868Y427165D01*
X558106Y429308D01*
X558746Y431698D01*
Y434173D01*
X558106Y436563D01*
X556868Y438706D01*
X555119Y440456D01*
X552976Y441693D01*
X550585Y442333D01*
D02*
G37*
G36*
X169348Y422088D02*
X167848D01*
X166462Y421514D01*
X165402Y420453D01*
X164828Y419068D01*
Y417568D01*
X165402Y416182D01*
X166462Y415122D01*
X167848Y414548D01*
X169348D01*
X170734Y415122D01*
X171794Y416182D01*
X172368Y417568D01*
Y419068D01*
X171794Y420453D01*
X170734Y421514D01*
X169348Y422088D01*
D02*
G37*
G36*
X227642Y419587D02*
X226126D01*
X224725Y419007D01*
X223654Y417935D01*
X223074Y416535D01*
Y415019D01*
X223323Y414417D01*
X222246Y413698D01*
X221936Y414008D01*
X220536Y414588D01*
X219020D01*
X217620Y414008D01*
X216548Y412936D01*
X215968Y411536D01*
Y410020D01*
X216548Y408620D01*
X217620Y407548D01*
X219020Y406968D01*
X220536D01*
X221936Y407548D01*
X223008Y408620D01*
X223588Y410020D01*
Y411536D01*
X223339Y412138D01*
X224415Y412858D01*
X224725Y412547D01*
X226126Y411967D01*
X227642D01*
X229042Y412547D01*
X230114Y413619D01*
X230694Y415019D01*
Y416535D01*
X230114Y417935D01*
X229042Y419007D01*
X227642Y419587D01*
D02*
G37*
G36*
X333258Y419738D02*
X331742D01*
X330342Y419158D01*
X329270Y418086D01*
X328690Y416686D01*
Y415170D01*
X329270Y413770D01*
X330342Y412698D01*
X331742Y412118D01*
X333258D01*
X334658Y412698D01*
X335730Y413770D01*
X336310Y415170D01*
Y416686D01*
X335730Y418086D01*
X334658Y419158D01*
X333258Y419738D01*
D02*
G37*
G36*
X458589Y424048D02*
X456411D01*
X454308Y423484D01*
X452422Y422396D01*
X450882Y420856D01*
X449794Y418970D01*
X449230Y416867D01*
Y414689D01*
X449794Y412586D01*
X450882Y410700D01*
X452422Y409160D01*
X454308Y408072D01*
X456411Y407508D01*
X458589D01*
X460692Y408072D01*
X462578Y409160D01*
X464118Y410700D01*
X465206Y412586D01*
X465770Y414689D01*
Y416867D01*
X465206Y418970D01*
X464118Y420856D01*
X462578Y422396D01*
X460692Y423484D01*
X458589Y424048D01*
D02*
G37*
G36*
X664810Y412906D02*
X663295D01*
X661894Y412326D01*
X660823Y411254D01*
X660242Y409854D01*
Y408338D01*
X660823Y406938D01*
X661894Y405866D01*
X663295Y405286D01*
X664810D01*
X666211Y405866D01*
X667282Y406938D01*
X667862Y408338D01*
Y409854D01*
X667282Y411254D01*
X666211Y412326D01*
X664810Y412906D01*
D02*
G37*
G36*
X147234Y410091D02*
X145718D01*
X144318Y409511D01*
X143246Y408439D01*
X142666Y407039D01*
Y405523D01*
X143246Y404123D01*
X144318Y403051D01*
X145718Y402471D01*
X147234D01*
X148634Y403051D01*
X149706Y404123D01*
X150286Y405523D01*
Y407039D01*
X149706Y408439D01*
X148634Y409511D01*
X147234Y410091D01*
D02*
G37*
G36*
X394042Y409600D02*
X392527D01*
X391126Y409020D01*
X390054Y407949D01*
X389474Y406548D01*
Y405033D01*
X390054Y403632D01*
X391126Y402560D01*
X392527Y401980D01*
X394042D01*
X395443Y402560D01*
X396514Y403632D01*
X397094Y405033D01*
Y406548D01*
X396514Y407949D01*
X395443Y409020D01*
X394042Y409600D01*
D02*
G37*
G36*
X97337Y408642D02*
X95837D01*
X94451Y408068D01*
X93391Y407007D01*
X92817Y405621D01*
Y404122D01*
X93391Y402736D01*
X94451Y401676D01*
X95837Y401102D01*
X97337D01*
X98722Y401676D01*
X99783Y402736D01*
X100357Y404122D01*
Y405621D01*
X99783Y407007D01*
X98722Y408068D01*
X97337Y408642D01*
D02*
G37*
G36*
X113759Y415679D02*
X111285D01*
X108895Y415038D01*
X106752Y413801D01*
X105002Y412052D01*
X103765Y409908D01*
X103124Y407518D01*
Y405044D01*
X103765Y402653D01*
X105002Y400510D01*
X106752Y398761D01*
X108895Y397523D01*
X111285Y396883D01*
X113759D01*
X116150Y397523D01*
X118293Y398761D01*
X120042Y400510D01*
X121280Y402653D01*
X121920Y405044D01*
Y407518D01*
X121280Y409908D01*
X120042Y412052D01*
X118293Y413801D01*
X116150Y415038D01*
X113759Y415679D01*
D02*
G37*
G36*
X102333Y397226D02*
X100817D01*
X99417Y396646D01*
X98345Y395574D01*
X97765Y394174D01*
Y392658D01*
X98345Y391258D01*
X99417Y390186D01*
X100817Y389606D01*
X102333D01*
X103734Y390186D01*
X104805Y391258D01*
X105385Y392658D01*
Y394174D01*
X104805Y395574D01*
X103734Y396646D01*
X102333Y397226D01*
D02*
G37*
G36*
X458589Y404048D02*
X456411D01*
X454308Y403484D01*
X452422Y402396D01*
X450882Y400856D01*
X449794Y398970D01*
X449230Y396867D01*
Y394689D01*
X449794Y392586D01*
X450882Y390700D01*
X452422Y389160D01*
X454308Y388072D01*
X456411Y387508D01*
X458589D01*
X460692Y388072D01*
X462578Y389160D01*
X464118Y390700D01*
X465206Y392586D01*
X465770Y394689D01*
Y396867D01*
X465206Y398970D01*
X464118Y400856D01*
X462578Y402396D01*
X460692Y403484D01*
X458589Y404048D01*
D02*
G37*
G36*
X135416Y394014D02*
X133900D01*
X132500Y393434D01*
X131428Y392362D01*
X130848Y390961D01*
Y389446D01*
X131428Y388045D01*
X132500Y386974D01*
X133900Y386394D01*
X135416D01*
X136816Y386974D01*
X137888Y388045D01*
X138468Y389446D01*
Y390961D01*
X137888Y392362D01*
X136816Y393434D01*
X135416Y394014D01*
D02*
G37*
G36*
X113375Y393780D02*
X111875D01*
X110489Y393206D01*
X109429Y392146D01*
X108855Y390760D01*
Y389260D01*
X109429Y387875D01*
X110489Y386814D01*
X111875Y386240D01*
X113375D01*
X114760Y386814D01*
X115821Y387875D01*
X116395Y389260D01*
Y390760D01*
X115821Y392146D01*
X114760Y393206D01*
X113375Y393780D01*
D02*
G37*
G36*
X458770Y384788D02*
Y377048D01*
X466510D01*
X465916Y379264D01*
X464727Y381324D01*
X463046Y383005D01*
X460986Y384194D01*
X458770Y384788D01*
D02*
G37*
G36*
X456230D02*
X454014Y384194D01*
X451954Y383005D01*
X450273Y381324D01*
X449084Y379264D01*
X448490Y377048D01*
X456230D01*
Y384788D01*
D02*
G37*
G36*
X653614Y384374D02*
X652098D01*
X650698Y383793D01*
X649626Y382722D01*
X649046Y381321D01*
Y379806D01*
X649626Y378405D01*
X650698Y377333D01*
X652098Y376754D01*
X653614D01*
X655014Y377333D01*
X656086Y378405D01*
X656666Y379806D01*
Y381321D01*
X656086Y382722D01*
X655014Y383793D01*
X653614Y384374D01*
D02*
G37*
G36*
X118619Y383539D02*
X117103D01*
X115703Y382959D01*
X114631Y381887D01*
X114051Y380487D01*
Y378971D01*
X114631Y377571D01*
X115703Y376499D01*
X117103Y375919D01*
X118619D01*
X120019Y376499D01*
X121091Y377571D01*
X121671Y378971D01*
Y380487D01*
X121091Y381887D01*
X120019Y382959D01*
X118619Y383539D01*
D02*
G37*
G36*
X678649Y403963D02*
X677133D01*
X675733Y403383D01*
X674661Y402311D01*
X674081Y400911D01*
Y399395D01*
X674661Y397995D01*
X675046Y397610D01*
X675632Y396781D01*
X675046Y395951D01*
X674661Y395566D01*
X674081Y394166D01*
Y392650D01*
X674661Y391250D01*
X675365Y390546D01*
X675604Y389751D01*
X675365Y388956D01*
X674661Y388252D01*
X674081Y386852D01*
Y385336D01*
X674661Y383936D01*
X675733Y382864D01*
X677133Y382284D01*
X678649D01*
X680049Y382864D01*
X680248Y383062D01*
X681674Y382705D01*
X681790Y382309D01*
X681709Y382205D01*
X681357Y381853D01*
X680777Y380452D01*
Y378937D01*
X681357Y377536D01*
X682429Y376464D01*
X683829Y375884D01*
X685345D01*
X686746Y376464D01*
X687817Y377536D01*
X688397Y378937D01*
Y380452D01*
X687817Y381853D01*
X687465Y382205D01*
X686830Y383034D01*
X687465Y383864D01*
X687817Y384216D01*
X688397Y385616D01*
Y387132D01*
X687817Y388532D01*
X687274Y389075D01*
X686886Y389905D01*
X687274Y390735D01*
X687817Y391277D01*
X688397Y392678D01*
Y394193D01*
X687817Y395594D01*
X686746Y396666D01*
X685345Y397246D01*
X683829D01*
X682429Y396666D01*
X682055Y396292D01*
X681813Y396104D01*
X681317Y396232D01*
X680802Y397455D01*
X680803Y397677D01*
X681121Y397995D01*
X681701Y399395D01*
Y400911D01*
X681121Y402311D01*
X680049Y403383D01*
X678649Y403963D01*
D02*
G37*
G36*
X363611Y382862D02*
X362095D01*
X360695Y382282D01*
X359623Y381211D01*
X359043Y379810D01*
Y378294D01*
X359623Y376894D01*
X360695Y375822D01*
X362095Y375242D01*
X363611D01*
X365011Y375822D01*
X366083Y376894D01*
X366663Y378294D01*
Y379810D01*
X366083Y381211D01*
X365011Y382282D01*
X363611Y382862D01*
D02*
G37*
G36*
X466510Y374508D02*
X458770D01*
Y366768D01*
X460986Y367361D01*
X463046Y368551D01*
X464727Y370232D01*
X465916Y372292D01*
X466510Y374508D01*
D02*
G37*
G36*
X456230D02*
X448490D01*
X449084Y372292D01*
X450273Y370232D01*
X451954Y368551D01*
X454014Y367361D01*
X456230Y366768D01*
Y374508D01*
D02*
G37*
G36*
X325780Y371738D02*
X324265D01*
X322864Y371158D01*
X321793Y370086D01*
X321213Y368686D01*
Y367170D01*
X321793Y365770D01*
X322864Y364698D01*
X324265Y364118D01*
X325780D01*
X327181Y364698D01*
X328253Y365770D01*
X328833Y367170D01*
Y368686D01*
X328253Y370086D01*
X327181Y371158D01*
X325780Y371738D01*
D02*
G37*
G36*
X105838Y370492D02*
X104322D01*
X102922Y369912D01*
X101850Y368840D01*
X101270Y367440D01*
Y365924D01*
X101850Y364524D01*
X102922Y363452D01*
X104322Y362872D01*
X105838D01*
X107238Y363452D01*
X108310Y364524D01*
X108890Y365924D01*
Y367440D01*
X108310Y368840D01*
X107238Y369912D01*
X105838Y370492D01*
D02*
G37*
G36*
X64397Y369537D02*
X62897D01*
X61511Y368963D01*
X60451Y367902D01*
X59877Y366517D01*
Y365017D01*
X60451Y363631D01*
X61511Y362571D01*
X62897Y361997D01*
X64397D01*
X65782Y362571D01*
X66843Y363631D01*
X67417Y365017D01*
Y366517D01*
X66843Y367902D01*
X65782Y368963D01*
X64397Y369537D01*
D02*
G37*
G36*
X411273Y367308D02*
X409757D01*
X408357Y366728D01*
X407285Y365656D01*
X406705Y364256D01*
Y362740D01*
X407285Y361340D01*
X408357Y360268D01*
X409757Y359688D01*
X411273D01*
X412673Y360268D01*
X413745Y361340D01*
X414325Y362740D01*
Y364256D01*
X413745Y365656D01*
X412673Y366728D01*
X411273Y367308D01*
D02*
G37*
G36*
X792912Y365333D02*
X791396D01*
X789996Y364753D01*
X788924Y363681D01*
X788344Y362281D01*
Y360765D01*
X788924Y359365D01*
X789996Y358293D01*
X791396Y357713D01*
X792912D01*
X794312Y358293D01*
X795384Y359365D01*
X795964Y360765D01*
Y362281D01*
X795384Y363681D01*
X794312Y364753D01*
X792912Y365333D01*
D02*
G37*
G36*
X325780Y359880D02*
X324265D01*
X322864Y359300D01*
X321793Y358228D01*
X321213Y356828D01*
Y355312D01*
X321793Y353911D01*
X322864Y352840D01*
X324265Y352260D01*
X325780D01*
X327181Y352840D01*
X328253Y353911D01*
X328833Y355312D01*
Y356828D01*
X328253Y358228D01*
X327181Y359300D01*
X325780Y359880D01*
D02*
G37*
G36*
X417700Y358791D02*
X416185D01*
X414784Y358211D01*
X413713Y357140D01*
X413133Y355739D01*
Y354224D01*
X413713Y352823D01*
X414784Y351751D01*
X416185Y351171D01*
X417700D01*
X419101Y351751D01*
X420173Y352823D01*
X420752Y354224D01*
Y355739D01*
X420173Y357140D01*
X419101Y358211D01*
X417700Y358791D01*
D02*
G37*
G36*
X665560Y354801D02*
X664044D01*
X662644Y354221D01*
X661572Y353149D01*
X660992Y351749D01*
Y350233D01*
X661572Y348833D01*
X662644Y347761D01*
X664044Y347181D01*
X665560D01*
X666961Y347761D01*
X668032Y348833D01*
X668612Y350233D01*
Y351749D01*
X668032Y353149D01*
X666961Y354221D01*
X665560Y354801D01*
D02*
G37*
G36*
X428725Y353534D02*
X427209D01*
X425809Y352954D01*
X424737Y351882D01*
X424157Y350482D01*
Y348966D01*
X424737Y347566D01*
X425809Y346494D01*
X427209Y345914D01*
X428725D01*
X430125Y346494D01*
X431197Y347566D01*
X431777Y348966D01*
Y350482D01*
X431197Y351882D01*
X430125Y352954D01*
X428725Y353534D01*
D02*
G37*
G36*
X542895Y348698D02*
X528795D01*
Y344398D01*
X542895D01*
Y348698D01*
D02*
G37*
G36*
X141034Y347738D02*
X139518D01*
X138118Y347158D01*
X137046Y346086D01*
X136466Y344686D01*
Y343170D01*
X137046Y341770D01*
X138118Y340698D01*
X139518Y340118D01*
X141034D01*
X142434Y340698D01*
X143506Y341770D01*
X144086Y343170D01*
Y344686D01*
X143506Y346086D01*
X142434Y347158D01*
X141034Y347738D01*
D02*
G37*
G36*
X814055Y348804D02*
X813987D01*
Y339914D01*
X822877D01*
Y339982D01*
X822185Y342566D01*
X820847Y344883D01*
X818955Y346774D01*
X816639Y348112D01*
X814055Y348804D01*
D02*
G37*
G36*
X811447D02*
X811379D01*
X808795Y348112D01*
X806479Y346774D01*
X804587Y344883D01*
X803249Y342566D01*
X802557Y339982D01*
Y339914D01*
X811447D01*
Y348804D01*
D02*
G37*
G36*
X463247Y362663D02*
X463236Y361963D01*
X463282Y360720D01*
Y330019D01*
X478236D01*
X478543Y329712D01*
X479943Y329132D01*
X481459D01*
X482859Y329712D01*
X483166Y330019D01*
X490927D01*
X492255Y328692D01*
Y362084D01*
X464508D01*
X464461Y362106D01*
X463247Y362663D01*
D02*
G37*
G36*
X822877Y337374D02*
X813987D01*
Y328484D01*
X814055D01*
X816639Y329176D01*
X818955Y330514D01*
X820847Y332406D01*
X822185Y334723D01*
X822877Y337307D01*
Y337374D01*
D02*
G37*
G36*
X811447D02*
X802557D01*
Y337307D01*
X803249Y334723D01*
X804587Y332406D01*
X806479Y330514D01*
X808795Y329176D01*
X811379Y328484D01*
X811447D01*
Y337374D01*
D02*
G37*
G36*
X130336Y336055D02*
X128820D01*
X127420Y335475D01*
X126348Y334403D01*
X125768Y333003D01*
Y331487D01*
X126348Y330087D01*
X127420Y329015D01*
X128820Y328435D01*
X130336D01*
X131736Y329015D01*
X132808Y330087D01*
X133388Y331487D01*
Y333003D01*
X132808Y334403D01*
X131736Y335475D01*
X130336Y336055D01*
D02*
G37*
G36*
X410700Y335518D02*
X409185D01*
X407784Y334938D01*
X406713Y333867D01*
X406133Y332466D01*
Y330951D01*
X406713Y329550D01*
X407784Y328479D01*
X409185Y327898D01*
X410700D01*
X412101Y328479D01*
X413172Y329550D01*
X413753Y330951D01*
Y332466D01*
X413172Y333867D01*
X412101Y334938D01*
X410700Y335518D01*
D02*
G37*
G36*
X423900Y333291D02*
X422385D01*
X420984Y332711D01*
X419912Y331639D01*
X419333Y330239D01*
Y328723D01*
X419912Y327323D01*
X420984Y326251D01*
X422385Y325671D01*
X423900D01*
X425301Y326251D01*
X426372Y327323D01*
X426953Y328723D01*
Y330239D01*
X426372Y331639D01*
X425301Y332711D01*
X423900Y333291D01*
D02*
G37*
G36*
X564568Y338469D02*
X563052D01*
X561652Y337889D01*
X560580Y336817D01*
X560000Y335417D01*
Y333901D01*
X560043Y333799D01*
X559194Y332529D01*
X558535D01*
X557135Y331949D01*
X556063Y330877D01*
X555483Y329477D01*
Y327961D01*
X556063Y326561D01*
X557135Y325489D01*
X558535Y324909D01*
X560051D01*
X561451Y325489D01*
X562523Y326561D01*
X563103Y327961D01*
Y329477D01*
X563061Y329579D01*
X563909Y330849D01*
X564568D01*
X565968Y331429D01*
X567040Y332501D01*
X567620Y333901D01*
Y335417D01*
X567040Y336817D01*
X565968Y337889D01*
X564568Y338469D01*
D02*
G37*
G36*
X511468Y332315D02*
X509952D01*
X508551Y331735D01*
X507480Y330663D01*
X506900Y329263D01*
Y327747D01*
X507480Y326347D01*
X508551Y325275D01*
X509952Y324695D01*
X511468D01*
X512868Y325275D01*
X513940Y326347D01*
X514520Y327747D01*
Y329263D01*
X513940Y330663D01*
X512868Y331735D01*
X511468Y332315D01*
D02*
G37*
G36*
X241229Y329081D02*
X239713D01*
X238312Y328501D01*
X237241Y327429D01*
X236661Y326028D01*
Y324513D01*
X237241Y323112D01*
X238312Y322041D01*
X239713Y321460D01*
X241229D01*
X242629Y322041D01*
X243701Y323112D01*
X244281Y324513D01*
Y326028D01*
X243701Y327429D01*
X242629Y328501D01*
X241229Y329081D01*
D02*
G37*
G36*
X381931Y328139D02*
X380431D01*
X379045Y327565D01*
X377985Y326504D01*
X377411Y325118D01*
Y323619D01*
X377985Y322233D01*
X379045Y321172D01*
X380431Y320599D01*
X381931D01*
X383316Y321172D01*
X384377Y322233D01*
X384951Y323619D01*
Y325118D01*
X384377Y326504D01*
X383316Y327565D01*
X381931Y328139D01*
D02*
G37*
G36*
X542895Y322898D02*
X528795D01*
Y318598D01*
X542895D01*
Y322898D01*
D02*
G37*
G36*
X575818Y323369D02*
X574303D01*
X572902Y322789D01*
X571830Y321717D01*
X571250Y320317D01*
Y318801D01*
X571830Y317401D01*
X572902Y316329D01*
X574303Y315749D01*
X575818D01*
X577219Y316329D01*
X578290Y317401D01*
X578871Y318801D01*
Y320317D01*
X578290Y321717D01*
X577219Y322789D01*
X575818Y323369D01*
D02*
G37*
G36*
X246968Y320382D02*
X245453D01*
X244052Y319802D01*
X242980Y318730D01*
X242400Y317330D01*
Y315814D01*
X242980Y314414D01*
X244052Y313342D01*
X245453Y312762D01*
X246968D01*
X248369Y313342D01*
X249440Y314414D01*
X250021Y315814D01*
Y317330D01*
X249440Y318730D01*
X248369Y319802D01*
X246968Y320382D01*
D02*
G37*
G36*
X143113Y318830D02*
X141597D01*
X140197Y318250D01*
X139125Y317178D01*
X138545Y315778D01*
Y314262D01*
X139125Y312862D01*
X140197Y311790D01*
X141597Y311210D01*
X143113D01*
X144513Y311790D01*
X145585Y312862D01*
X146165Y314262D01*
Y315778D01*
X145585Y317178D01*
X144513Y318250D01*
X143113Y318830D01*
D02*
G37*
G36*
X96997Y318675D02*
X95497D01*
X94111Y318101D01*
X93051Y317041D01*
X92477Y315655D01*
Y314155D01*
X93051Y312770D01*
X94111Y311709D01*
X95497Y311135D01*
X96997D01*
X98382Y311709D01*
X99443Y312770D01*
X100017Y314155D01*
Y315655D01*
X99443Y317041D01*
X98382Y318101D01*
X96997Y318675D01*
D02*
G37*
G36*
X65835Y318130D02*
X64335D01*
X62950Y317556D01*
X61889Y316495D01*
X61315Y315110D01*
Y313610D01*
X61889Y312224D01*
X62950Y311164D01*
X64335Y310590D01*
X65835D01*
X67221Y311164D01*
X68281Y312224D01*
X68855Y313610D01*
Y315110D01*
X68281Y316495D01*
X67221Y317556D01*
X65835Y318130D01*
D02*
G37*
G36*
X469899Y327996D02*
X467425D01*
X465035Y327356D01*
X462892Y326118D01*
X461142Y324369D01*
X459905Y322225D01*
X459264Y319835D01*
Y317361D01*
X459905Y314970D01*
X461142Y312827D01*
X462892Y311078D01*
X465035Y309841D01*
X467425Y309200D01*
X469899D01*
X472290Y309841D01*
X474433Y311078D01*
X476183Y312827D01*
X477420Y314970D01*
X478060Y317361D01*
Y319835D01*
X477420Y322225D01*
X476183Y324369D01*
X474433Y326118D01*
X472290Y327356D01*
X469899Y327996D01*
D02*
G37*
G36*
X407373Y326338D02*
X404898D01*
X402508Y325698D01*
X400365Y324460D01*
X398615Y322711D01*
X397378Y320568D01*
X396738Y318177D01*
Y315703D01*
X397378Y313313D01*
X398615Y311170D01*
X400365Y309420D01*
X402508Y308183D01*
X404898Y307542D01*
X407373D01*
X409763Y308183D01*
X411906Y309420D01*
X413656Y311170D01*
X414893Y313313D01*
X415534Y315703D01*
Y318177D01*
X414893Y320568D01*
X413656Y322711D01*
X411906Y324460D01*
X409763Y325698D01*
X407373Y326338D01*
D02*
G37*
G36*
X435513Y324462D02*
X433038D01*
X430648Y323822D01*
X428505Y322584D01*
X426755Y320835D01*
X425518Y318692D01*
X424877Y316301D01*
Y313827D01*
X425518Y311437D01*
X426755Y309294D01*
X428505Y307544D01*
X430648Y306307D01*
X433038Y305666D01*
X435513D01*
X437903Y306307D01*
X440046Y307544D01*
X441796Y309294D01*
X443033Y311437D01*
X443673Y313827D01*
Y316301D01*
X443033Y318692D01*
X441796Y320835D01*
X440046Y322584D01*
X437903Y323822D01*
X435513Y324462D01*
D02*
G37*
G36*
X815325Y311100D02*
X815257D01*
Y302210D01*
X824147D01*
Y302278D01*
X823455Y304862D01*
X822117Y307179D01*
X820225Y309070D01*
X817909Y310408D01*
X815325Y311100D01*
D02*
G37*
G36*
X812717D02*
X812649D01*
X810065Y310408D01*
X807749Y309070D01*
X805857Y307179D01*
X804519Y304862D01*
X803827Y302278D01*
Y302210D01*
X812717D01*
Y311100D01*
D02*
G37*
G36*
X356672Y309326D02*
X355157D01*
X353756Y308746D01*
X352684Y307674D01*
X352104Y306274D01*
Y304758D01*
X352684Y303358D01*
X353756Y302286D01*
X355157Y301706D01*
X356672D01*
X358073Y302286D01*
X359144Y303358D01*
X359724Y304758D01*
Y306274D01*
X359144Y307674D01*
X358073Y308746D01*
X356672Y309326D01*
D02*
G37*
G36*
X208178Y307559D02*
X206662D01*
X205262Y306979D01*
X204190Y305907D01*
X203610Y304507D01*
Y302991D01*
X204190Y301591D01*
X205262Y300519D01*
X206662Y299939D01*
X208178D01*
X209578Y300519D01*
X210650Y301591D01*
X211230Y302991D01*
Y304507D01*
X210650Y305907D01*
X209578Y306979D01*
X208178Y307559D01*
D02*
G37*
G36*
X398641Y305372D02*
X397141D01*
X395755Y304798D01*
X394695Y303738D01*
X394121Y302352D01*
Y300852D01*
X394695Y299467D01*
X395755Y298406D01*
X397141Y297832D01*
X398641D01*
X400027Y298406D01*
X401087Y299467D01*
X401661Y300852D01*
Y302352D01*
X401087Y303738D01*
X400027Y304798D01*
X398641Y305372D01*
D02*
G37*
G36*
X111293Y301236D02*
X109778D01*
X108378Y300656D01*
X107306Y299584D01*
X106726Y298184D01*
Y296668D01*
X107306Y295268D01*
X108378Y294196D01*
X109778Y293616D01*
X111293D01*
X112694Y294196D01*
X113766Y295268D01*
X114346Y296668D01*
Y298184D01*
X113766Y299584D01*
X112694Y300656D01*
X111293Y301236D01*
D02*
G37*
G36*
X337772Y298800D02*
X336273D01*
X334887Y298226D01*
X333826Y297165D01*
X333253Y295780D01*
Y294280D01*
X333826Y292894D01*
X334887Y291834D01*
X336273Y291260D01*
X337772D01*
X339158Y291834D01*
X340219Y292894D01*
X340793Y294280D01*
Y295780D01*
X340219Y297165D01*
X339158Y298226D01*
X337772Y298800D01*
D02*
G37*
G36*
X824147Y299670D02*
X815257D01*
Y290780D01*
X815325D01*
X817909Y291473D01*
X820225Y292810D01*
X822117Y294702D01*
X823455Y297019D01*
X824147Y299603D01*
Y299670D01*
D02*
G37*
G36*
X812717D02*
X803827D01*
Y299603D01*
X804519Y297019D01*
X805857Y294702D01*
X807749Y292810D01*
X810065Y291473D01*
X812649Y290780D01*
X812717D01*
Y299670D01*
D02*
G37*
G36*
X622173Y290786D02*
X620657D01*
X619257Y290206D01*
X618185Y289135D01*
X617605Y287734D01*
Y286219D01*
X618185Y284818D01*
X619257Y283746D01*
X620657Y283166D01*
X622173D01*
X623573Y283746D01*
X624645Y284818D01*
X625225Y286219D01*
Y287734D01*
X624645Y289135D01*
X623573Y290206D01*
X622173Y290786D01*
D02*
G37*
G36*
X337701Y287804D02*
X336202D01*
X334816Y287230D01*
X333755Y286170D01*
X333181Y284784D01*
Y283284D01*
X333755Y281899D01*
X334816Y280838D01*
X336202Y280264D01*
X337701D01*
X339087Y280838D01*
X340148Y281899D01*
X340721Y283284D01*
Y284784D01*
X340148Y286170D01*
X339087Y287230D01*
X337701Y287804D01*
D02*
G37*
G36*
X446156Y287454D02*
X444640D01*
X443240Y286874D01*
X442168Y285802D01*
X441588Y284402D01*
Y282886D01*
X442168Y281486D01*
X443240Y280414D01*
X444640Y279834D01*
X446156D01*
X447556Y280414D01*
X448628Y281486D01*
X449208Y282886D01*
Y284402D01*
X448628Y285802D01*
X447556Y286874D01*
X446156Y287454D01*
D02*
G37*
G36*
X142883Y285408D02*
X141367D01*
X139967Y284828D01*
X138895Y283756D01*
X138315Y282356D01*
Y280840D01*
X138895Y279440D01*
X139967Y278368D01*
X141367Y277788D01*
X142883D01*
X144283Y278368D01*
X145355Y279440D01*
X145935Y280840D01*
Y282356D01*
X145355Y283756D01*
X144283Y284828D01*
X142883Y285408D01*
D02*
G37*
G36*
X560246Y283018D02*
X558730D01*
X557330Y282438D01*
X556258Y281366D01*
X555678Y279966D01*
Y278450D01*
X556258Y277050D01*
X557330Y275978D01*
X558730Y275398D01*
X560246D01*
X561646Y275978D01*
X562718Y277050D01*
X563298Y278450D01*
Y279966D01*
X562718Y281366D01*
X561646Y282438D01*
X560246Y283018D01*
D02*
G37*
G36*
X600166Y291532D02*
X597691D01*
X595301Y290892D01*
X593158Y289654D01*
X591408Y287905D01*
X590171Y285762D01*
X589531Y283371D01*
Y280897D01*
X590171Y278507D01*
X591408Y276364D01*
X593158Y274614D01*
X595301Y273377D01*
X597691Y272736D01*
X600166D01*
X602556Y273377D01*
X604699Y274614D01*
X606449Y276364D01*
X607686Y278507D01*
X608327Y280897D01*
Y283371D01*
X607686Y285762D01*
X606449Y287905D01*
X604699Y289654D01*
X602556Y290892D01*
X600166Y291532D01*
D02*
G37*
G36*
X155200Y278810D02*
X153684D01*
X152283Y278230D01*
X151212Y277158D01*
X150632Y275758D01*
Y274242D01*
X151212Y272842D01*
X152283Y271770D01*
X153684Y271190D01*
X155200D01*
X156600Y271770D01*
X157672Y272842D01*
X158252Y274242D01*
Y275758D01*
X157672Y277158D01*
X156600Y278230D01*
X155200Y278810D01*
D02*
G37*
G36*
X163378Y272934D02*
X161862D01*
X160462Y272354D01*
X159390Y271283D01*
X158810Y269882D01*
Y268366D01*
X159390Y266966D01*
X160462Y265894D01*
X161862Y265314D01*
X163378D01*
X164778Y265894D01*
X165850Y266966D01*
X166430Y268366D01*
Y269882D01*
X165850Y271283D01*
X164778Y272354D01*
X163378Y272934D01*
D02*
G37*
G36*
X596176Y270449D02*
X594660D01*
X593260Y269869D01*
X592188Y268798D01*
X591608Y267397D01*
Y265882D01*
X592188Y264481D01*
X593260Y263409D01*
X594660Y262829D01*
X596176D01*
X597576Y263409D01*
X598648Y264481D01*
X599228Y265882D01*
Y267397D01*
X598648Y268798D01*
X597576Y269869D01*
X596176Y270449D01*
D02*
G37*
G36*
X253579Y263204D02*
X252079D01*
X250693Y262630D01*
X249633Y261569D01*
X249059Y260183D01*
Y258684D01*
X249633Y257298D01*
X250693Y256238D01*
X252079Y255664D01*
X253579D01*
X254964Y256238D01*
X256025Y257298D01*
X256599Y258684D01*
Y260183D01*
X256025Y261569D01*
X254964Y262630D01*
X253579Y263204D01*
D02*
G37*
G36*
X138476Y273773D02*
X136001D01*
X133611Y273132D01*
X131468Y271895D01*
X129718Y270145D01*
X128481Y268002D01*
X127840Y265612D01*
Y263137D01*
X128481Y260747D01*
X129718Y258604D01*
X131468Y256854D01*
X133611Y255617D01*
X136001Y254977D01*
X138476D01*
X140866Y255617D01*
X143009Y256854D01*
X144759Y258604D01*
X145996Y260747D01*
X146636Y263137D01*
Y265612D01*
X145996Y268002D01*
X144759Y270145D01*
X143009Y271895D01*
X140866Y273132D01*
X138476Y273773D01*
D02*
G37*
G36*
X188880Y260496D02*
X187365D01*
X185964Y259916D01*
X184893Y258844D01*
X184313Y257444D01*
Y255928D01*
X184893Y254528D01*
X185964Y253456D01*
X187365Y252876D01*
X188880D01*
X190281Y253456D01*
X191353Y254528D01*
X191933Y255928D01*
Y257444D01*
X191353Y258844D01*
X190281Y259916D01*
X188880Y260496D01*
D02*
G37*
G36*
X108471Y252726D02*
X106955D01*
X105555Y252146D01*
X104483Y251075D01*
X103903Y249674D01*
Y248159D01*
X104483Y246758D01*
X105555Y245686D01*
X106955Y245107D01*
X108471D01*
X109872Y245686D01*
X110943Y246758D01*
X111523Y248159D01*
Y249674D01*
X110943Y251075D01*
X109872Y252146D01*
X108471Y252726D01*
D02*
G37*
G36*
X333250Y248943D02*
X331750D01*
X330364Y248369D01*
X329304Y247308D01*
X328730Y245923D01*
Y244423D01*
X329304Y243037D01*
X330364Y241977D01*
X331750Y241403D01*
X333250D01*
X334636Y241977D01*
X335696Y243037D01*
X336270Y244423D01*
Y245923D01*
X335696Y247308D01*
X334636Y248369D01*
X333250Y248943D01*
D02*
G37*
G36*
X247102Y243417D02*
X245586D01*
X244186Y242837D01*
X243114Y241765D01*
X242534Y240364D01*
Y238849D01*
X243114Y237449D01*
X244186Y236377D01*
X245586Y235797D01*
X247102D01*
X248502Y236377D01*
X249574Y237449D01*
X250154Y238849D01*
Y240364D01*
X249574Y241765D01*
X248502Y242837D01*
X247102Y243417D01*
D02*
G37*
G36*
X612196Y254191D02*
X609721D01*
X607331Y253550D01*
X605188Y252313D01*
X603438Y250563D01*
X602201Y248420D01*
X601560Y246030D01*
Y243555D01*
X602201Y241165D01*
X603438Y239022D01*
X605188Y237272D01*
X607331Y236035D01*
X609721Y235394D01*
X612196D01*
X614586Y236035D01*
X616729Y237272D01*
X618479Y239022D01*
X619716Y241165D01*
X620356Y243555D01*
Y246030D01*
X619716Y248420D01*
X618479Y250563D01*
X616729Y252313D01*
X614586Y253550D01*
X612196Y254191D01*
D02*
G37*
G36*
X565326Y240825D02*
X563810D01*
X562410Y240245D01*
X561338Y239173D01*
X560758Y237773D01*
Y236257D01*
X561338Y234857D01*
X562410Y233785D01*
X563810Y233205D01*
X565326D01*
X566726Y233785D01*
X567798Y234857D01*
X568378Y236257D01*
Y237773D01*
X567798Y239173D01*
X566726Y240245D01*
X565326Y240825D01*
D02*
G37*
G36*
X150667Y244121D02*
X148193D01*
X145802Y243480D01*
X143659Y242243D01*
X141910Y240493D01*
X140672Y238350D01*
X140032Y235960D01*
Y233486D01*
X140672Y231095D01*
X141910Y228952D01*
X143659Y227202D01*
X145802Y225965D01*
X148193Y225325D01*
X150667D01*
X153057Y225965D01*
X155201Y227202D01*
X156950Y228952D01*
X158188Y231095D01*
X158828Y233486D01*
Y235960D01*
X158188Y238350D01*
X156950Y240493D01*
X155201Y242243D01*
X153057Y243480D01*
X150667Y244121D01*
D02*
G37*
G36*
X630637Y228996D02*
X629121D01*
X627721Y228416D01*
X626649Y227344D01*
X626069Y225944D01*
Y224428D01*
X626649Y223028D01*
X627721Y221956D01*
X629121Y221376D01*
X630637D01*
X632037Y221956D01*
X633109Y223028D01*
X633689Y224428D01*
Y225944D01*
X633109Y227344D01*
X632037Y228416D01*
X630637Y228996D01*
D02*
G37*
G36*
X658150Y235386D02*
X656635D01*
X655234Y234806D01*
X654163Y233734D01*
X653582Y232334D01*
Y230818D01*
X654163Y229418D01*
X654565Y229015D01*
X655178Y228263D01*
X654565Y227356D01*
X654238Y227029D01*
X653658Y225628D01*
Y224112D01*
X654238Y222712D01*
X655008Y221943D01*
X655229Y221255D01*
X655044Y220376D01*
X654562Y219893D01*
X653806Y219754D01*
X653049Y219893D01*
X652213Y220730D01*
X650812Y221310D01*
X649297D01*
X647896Y220730D01*
X646825Y219658D01*
X645456D01*
X644385Y220730D01*
X642984Y221310D01*
X641469D01*
X640068Y220730D01*
X639284Y219946D01*
X638513Y219769D01*
X637741Y219946D01*
X636957Y220730D01*
X635557Y221310D01*
X634041D01*
X632641Y220730D01*
X631569Y219658D01*
X630989Y218258D01*
Y216742D01*
X631569Y215342D01*
X632430Y214481D01*
X631456Y213507D01*
X630876Y212106D01*
Y210591D01*
X631456Y209190D01*
X632528Y208118D01*
X633928Y207539D01*
X635444D01*
X636844Y208118D01*
X637787Y209061D01*
X638512Y209132D01*
X639237Y209061D01*
X640180Y208118D01*
X641580Y207539D01*
X643096D01*
X644496Y208118D01*
X645484Y209107D01*
X646196Y209151D01*
X646908Y209107D01*
X647896Y208118D01*
X649297Y207539D01*
X650812D01*
X652213Y208118D01*
X652996Y208902D01*
X653768Y209079D01*
X654540Y208902D01*
X655323Y208118D01*
X656723Y207539D01*
X658239D01*
X659639Y208118D01*
X660711Y209190D01*
X661291Y210591D01*
Y212106D01*
X660711Y213507D01*
X659831Y214386D01*
X660787Y215342D01*
X661367Y216742D01*
Y218258D01*
X660787Y219658D01*
X660017Y220428D01*
X659796Y221115D01*
X659980Y221995D01*
X660698Y222712D01*
X661278Y224112D01*
Y225628D01*
X660698Y227029D01*
X660295Y227431D01*
X659683Y228184D01*
X660295Y229091D01*
X660622Y229418D01*
X661202Y230818D01*
Y232334D01*
X660622Y233734D01*
X659551Y234806D01*
X658150Y235386D01*
D02*
G37*
G36*
X169146Y227113D02*
X167630D01*
X166230Y226533D01*
X165158Y225462D01*
X164578Y224061D01*
Y222546D01*
X165158Y221145D01*
X166230Y220073D01*
X167630Y219493D01*
X169146D01*
X170546Y220073D01*
X171618Y221145D01*
X172198Y222546D01*
Y224061D01*
X171618Y225462D01*
X170546Y226533D01*
X169146Y227113D01*
D02*
G37*
G36*
X121333Y225564D02*
X119833D01*
X118447Y224991D01*
X117387Y223930D01*
X116813Y222544D01*
Y221045D01*
X117387Y219659D01*
X118447Y218598D01*
X119833Y218024D01*
X121333D01*
X122718Y218598D01*
X123779Y219659D01*
X124353Y221045D01*
Y222544D01*
X123779Y223930D01*
X122718Y224991D01*
X121333Y225564D01*
D02*
G37*
G36*
X139123Y223572D02*
X137608D01*
X136207Y222992D01*
X135136Y221921D01*
X134556Y220520D01*
Y219005D01*
X135136Y217604D01*
X136207Y216532D01*
X137608Y215952D01*
X139123D01*
X140524Y216532D01*
X141596Y217604D01*
X142176Y219005D01*
Y220520D01*
X141596Y221921D01*
X140524Y222992D01*
X139123Y223572D01*
D02*
G37*
G36*
X110431Y223272D02*
X108915D01*
X107514Y222692D01*
X106443Y221621D01*
X105863Y220220D01*
Y218705D01*
X106443Y217304D01*
X107514Y216232D01*
X108915Y215652D01*
X110431D01*
X111831Y216232D01*
X112903Y217304D01*
X113483Y218705D01*
Y220220D01*
X112903Y221621D01*
X111831Y222692D01*
X110431Y223272D01*
D02*
G37*
G36*
X428836Y234573D02*
X406296D01*
Y212033D01*
X428836D01*
Y234573D01*
D02*
G37*
G36*
X303342Y222016D02*
X301826D01*
X300426Y221436D01*
X299354Y220364D01*
X298774Y218964D01*
Y217449D01*
X299354Y216048D01*
X300426Y214976D01*
X301826Y214396D01*
X303342D01*
X304743Y214976D01*
X304863Y215097D01*
X305854Y214424D01*
X305274Y213024D01*
Y211508D01*
X305854Y210108D01*
X306926Y209036D01*
X308326Y208456D01*
X309842D01*
X311243Y209036D01*
X312314Y210108D01*
X312894Y211508D01*
Y213024D01*
X312314Y214424D01*
X311243Y215496D01*
X309842Y216076D01*
X308326D01*
X306926Y215496D01*
X306806Y215375D01*
X305814Y216048D01*
X306394Y217449D01*
Y218964D01*
X305814Y220364D01*
X304743Y221436D01*
X303342Y222016D01*
D02*
G37*
G36*
X169047Y210762D02*
X167531D01*
X166131Y210182D01*
X165059Y209110D01*
X164479Y207710D01*
Y206194D01*
X165059Y204793D01*
X166131Y203722D01*
X167531Y203142D01*
X169047D01*
X170448Y203722D01*
X171519Y204793D01*
X172099Y206194D01*
Y207710D01*
X171519Y209110D01*
X170448Y210182D01*
X169047Y210762D01*
D02*
G37*
G36*
X253409Y209262D02*
X251909D01*
X250523Y208689D01*
X249463Y207628D01*
X248889Y206242D01*
Y204743D01*
X249463Y203357D01*
X250523Y202296D01*
X251909Y201722D01*
X253409D01*
X254794Y202296D01*
X255855Y203357D01*
X256429Y204743D01*
Y206242D01*
X255855Y207628D01*
X254794Y208689D01*
X253409Y209262D01*
D02*
G37*
G36*
X205005Y199773D02*
X203489D01*
X202089Y199193D01*
X201017Y198121D01*
X200437Y196721D01*
Y195205D01*
X201017Y193805D01*
X202089Y192733D01*
X203489Y192153D01*
X205005D01*
X206405Y192733D01*
X207477Y193805D01*
X208057Y195205D01*
Y196721D01*
X207477Y198121D01*
X206405Y199193D01*
X205005Y199773D01*
D02*
G37*
G36*
X168948D02*
X167432D01*
X166032Y199193D01*
X164960Y198121D01*
X164380Y196721D01*
Y195205D01*
X164960Y193805D01*
X166032Y192733D01*
X167432Y192153D01*
X168948D01*
X170348Y192733D01*
X171420Y193805D01*
X172000Y195205D01*
Y196721D01*
X171420Y198121D01*
X170348Y199193D01*
X168948Y199773D01*
D02*
G37*
G36*
X629553Y187957D02*
X628054D01*
X626668Y187383D01*
X625607Y186323D01*
X625033Y184937D01*
Y183438D01*
X625607Y182052D01*
X626668Y180991D01*
X628054Y180417D01*
X629553D01*
X630939Y180991D01*
X632000Y182052D01*
X632574Y183438D01*
Y184937D01*
X632000Y186323D01*
X630939Y187383D01*
X629553Y187957D01*
D02*
G37*
G36*
X164700Y183248D02*
X163200D01*
X161814Y182674D01*
X160754Y181614D01*
X160180Y180228D01*
Y178729D01*
X160754Y177343D01*
X161814Y176282D01*
X163200Y175708D01*
X164700D01*
X166085Y176282D01*
X167146Y177343D01*
X167720Y178729D01*
Y180228D01*
X167146Y181614D01*
X166085Y182674D01*
X164700Y183248D01*
D02*
G37*
G36*
X201669Y174014D02*
Y166273D01*
X209410D01*
X208816Y168489D01*
X207627Y170549D01*
X205945Y172231D01*
X203886Y173420D01*
X201669Y174014D01*
D02*
G37*
G36*
X199129D02*
X196913Y173420D01*
X194854Y172231D01*
X193172Y170549D01*
X191983Y168489D01*
X191389Y166273D01*
X199129D01*
Y174014D01*
D02*
G37*
G36*
X153901Y174012D02*
Y166272D01*
X161642D01*
X161048Y168488D01*
X159859Y170548D01*
X158177Y172229D01*
X156117Y173419D01*
X153901Y174012D01*
D02*
G37*
G36*
X151361D02*
X149145Y173419D01*
X147086Y172229D01*
X145404Y170548D01*
X144215Y168488D01*
X143621Y166272D01*
X151361D01*
Y174012D01*
D02*
G37*
G36*
X106306Y174010D02*
Y166270D01*
X114046D01*
X113452Y168486D01*
X112263Y170546D01*
X110581Y172227D01*
X108522Y173416D01*
X106306Y174010D01*
D02*
G37*
G36*
X103766D02*
X101550Y173416D01*
X99490Y172227D01*
X97808Y170546D01*
X96619Y168486D01*
X96025Y166270D01*
X103766D01*
Y174010D01*
D02*
G37*
G36*
X209410Y163733D02*
X201669D01*
Y155993D01*
X203886Y156587D01*
X205945Y157776D01*
X207627Y159457D01*
X208816Y161517D01*
X209410Y163733D01*
D02*
G37*
G36*
X199129D02*
X191389D01*
X191983Y161517D01*
X193172Y159457D01*
X194854Y157776D01*
X196913Y156587D01*
X199129Y155993D01*
Y163733D01*
D02*
G37*
G36*
X161642Y163732D02*
X153901D01*
Y155992D01*
X156117Y156586D01*
X158177Y157775D01*
X159859Y159456D01*
X161048Y161516D01*
X161642Y163732D01*
D02*
G37*
G36*
X151361D02*
X143621D01*
X144215Y161516D01*
X145404Y159456D01*
X147086Y157775D01*
X149145Y156586D01*
X151361Y155992D01*
Y163732D01*
D02*
G37*
G36*
X114046Y163730D02*
X106306D01*
Y155990D01*
X108522Y156583D01*
X110581Y157773D01*
X112263Y159454D01*
X113452Y161514D01*
X114046Y163730D01*
D02*
G37*
G36*
X103766D02*
X96025D01*
X96619Y161514D01*
X97808Y159454D01*
X99490Y157773D01*
X101550Y156583D01*
X103766Y155990D01*
Y163730D01*
D02*
G37*
G36*
X643096Y144443D02*
X641580D01*
X640180Y143863D01*
X639108Y142792D01*
X638528Y141391D01*
Y139876D01*
X639108Y138475D01*
X640180Y137403D01*
X641580Y136823D01*
X643096D01*
X644496Y137403D01*
X645568Y138475D01*
X646148Y139876D01*
Y141391D01*
X645568Y142792D01*
X644496Y143863D01*
X643096Y144443D01*
D02*
G37*
G36*
X201488Y153273D02*
X199311D01*
X197207Y152710D01*
X195322Y151621D01*
X193782Y150081D01*
X192693Y148195D01*
X192129Y146092D01*
Y143914D01*
X192693Y141811D01*
X193782Y139925D01*
X195322Y138385D01*
X197207Y137297D01*
X199311Y136733D01*
X201488D01*
X203591Y137297D01*
X205477Y138385D01*
X207017Y139925D01*
X208106Y141811D01*
X208669Y143914D01*
Y146092D01*
X208106Y148195D01*
X207017Y150081D01*
X205477Y151621D01*
X203591Y152710D01*
X201488Y153273D01*
D02*
G37*
G36*
X153720Y153272D02*
X151543D01*
X149439Y152709D01*
X147554Y151620D01*
X146014Y150080D01*
X144925Y148194D01*
X144361Y146091D01*
Y143913D01*
X144925Y141810D01*
X146014Y139924D01*
X147554Y138385D01*
X149439Y137296D01*
X151543Y136732D01*
X153720D01*
X155823Y137296D01*
X157709Y138385D01*
X159249Y139924D01*
X160338Y141810D01*
X160901Y143913D01*
Y146091D01*
X160338Y148194D01*
X159249Y150080D01*
X157709Y151620D01*
X155823Y152709D01*
X153720Y153272D01*
D02*
G37*
G36*
X106124Y153270D02*
X103947D01*
X101844Y152706D01*
X99958Y151618D01*
X98418Y150078D01*
X97329Y148192D01*
X96766Y146089D01*
Y143911D01*
X97329Y141808D01*
X98418Y139922D01*
X99958Y138382D01*
X101844Y137294D01*
X103947Y136730D01*
X106124D01*
X108228Y137294D01*
X110114Y138382D01*
X111653Y139922D01*
X112742Y141808D01*
X113306Y143911D01*
Y146089D01*
X112742Y148192D01*
X111653Y150078D01*
X110114Y151618D01*
X108228Y152706D01*
X106124Y153270D01*
D02*
G37*
G36*
X140546Y143770D02*
X139046D01*
X137661Y143196D01*
X136600Y142135D01*
X136026Y140750D01*
Y139250D01*
X136600Y137864D01*
X137661Y136804D01*
X139046Y136230D01*
X140546D01*
X141932Y136804D01*
X142992Y137864D01*
X143566Y139250D01*
Y140750D01*
X142992Y142135D01*
X141932Y143196D01*
X140546Y143770D01*
D02*
G37*
G36*
X791198Y154883D02*
X788946Y154435D01*
X787038Y153160D01*
X785762Y151251D01*
X785315Y149000D01*
Y141000D01*
X785762Y138749D01*
X787038Y136840D01*
X788946Y135565D01*
X791198Y135117D01*
X793449Y135565D01*
X795358Y136840D01*
X796633Y138749D01*
X797081Y141000D01*
Y149000D01*
X796633Y151251D01*
X795358Y153160D01*
X793449Y154435D01*
X791198Y154883D01*
D02*
G37*
G36*
X623038Y142030D02*
X621522D01*
X620122Y141450D01*
X619050Y140378D01*
X618470Y138978D01*
Y137462D01*
X619050Y136062D01*
X620122Y134990D01*
X621522Y134410D01*
X623038D01*
X624438Y134990D01*
X625510Y136062D01*
X626090Y137462D01*
Y138978D01*
X625510Y140378D01*
X624438Y141450D01*
X623038Y142030D01*
D02*
G37*
G36*
X368258Y139724D02*
X366742D01*
X365342Y139144D01*
X364270Y138072D01*
X363690Y136671D01*
Y135156D01*
X364270Y133755D01*
X365342Y132684D01*
X366742Y132104D01*
X368258D01*
X369658Y132684D01*
X370730Y133755D01*
X371310Y135156D01*
Y136671D01*
X370730Y138072D01*
X369658Y139144D01*
X368258Y139724D01*
D02*
G37*
G36*
X164829Y134343D02*
X163329D01*
X161944Y133770D01*
X160883Y132709D01*
X160309Y131323D01*
Y130745D01*
X159906Y130492D01*
X159039Y130290D01*
X157709Y131620D01*
X155823Y132709D01*
X153720Y133272D01*
X151543D01*
X149439Y132709D01*
X147554Y131620D01*
X146014Y130080D01*
X144925Y128194D01*
X144361Y126091D01*
Y123913D01*
X144925Y121810D01*
X146014Y119924D01*
X147554Y118385D01*
X149439Y117296D01*
X151543Y116732D01*
X153720D01*
X155823Y117296D01*
X157709Y118385D01*
X159249Y119924D01*
X160338Y121810D01*
X160901Y123913D01*
Y126091D01*
X160706Y126819D01*
X161845Y127476D01*
X161944Y127377D01*
X163329Y126803D01*
X164829D01*
X166215Y127377D01*
X167275Y128438D01*
X167849Y129824D01*
Y131323D01*
X167275Y132709D01*
X166215Y133770D01*
X164829Y134343D01*
D02*
G37*
G36*
X201488Y133273D02*
X199311D01*
X197207Y132710D01*
X195322Y131621D01*
X193782Y130081D01*
X192693Y128195D01*
X192129Y126092D01*
Y123914D01*
X192693Y121811D01*
X193782Y119925D01*
X195322Y118385D01*
X197207Y117297D01*
X199311Y116733D01*
X201488D01*
X203591Y117297D01*
X205477Y118385D01*
X207017Y119925D01*
X208106Y121811D01*
X208669Y123914D01*
Y126092D01*
X208106Y128195D01*
X207017Y130081D01*
X205477Y131621D01*
X203591Y132710D01*
X201488Y133273D01*
D02*
G37*
G36*
X106124Y133270D02*
X103947D01*
X101844Y132706D01*
X99958Y131618D01*
X98418Y130078D01*
X97329Y128192D01*
X96766Y126089D01*
Y123911D01*
X97329Y121808D01*
X98418Y119922D01*
X99958Y118382D01*
X101844Y117294D01*
X103947Y116730D01*
X106124D01*
X108228Y117294D01*
X110114Y118382D01*
X111653Y119922D01*
X112742Y121808D01*
X113306Y123911D01*
Y126089D01*
X112742Y128192D01*
X111653Y130078D01*
X110114Y131618D01*
X108228Y132706D01*
X106124Y133270D01*
D02*
G37*
G36*
X180579Y121270D02*
X179079D01*
X177693Y120696D01*
X176633Y119635D01*
X176059Y118250D01*
Y116750D01*
X176633Y115365D01*
X177693Y114304D01*
X179079Y113730D01*
X180579D01*
X181964Y114304D01*
X183025Y115365D01*
X183599Y116750D01*
Y118250D01*
X183025Y119635D01*
X181964Y120696D01*
X180579Y121270D01*
D02*
G37*
G36*
X667245Y108066D02*
X665730D01*
X664329Y107486D01*
X663258Y106415D01*
X662678Y105014D01*
Y103498D01*
X662989Y102748D01*
X662017Y101776D01*
X661285Y102079D01*
X659770D01*
X658369Y101499D01*
X657298Y100427D01*
X656717Y99026D01*
Y97511D01*
X657298Y96110D01*
X658369Y95039D01*
X659770Y94459D01*
X661285D01*
X662686Y95039D01*
X663757Y96110D01*
X664337Y97511D01*
Y99026D01*
X664026Y99777D01*
X664998Y100749D01*
X665730Y100446D01*
X667245D01*
X668646Y101026D01*
X669717Y102098D01*
X670297Y103498D01*
Y105014D01*
X669717Y106415D01*
X668646Y107486D01*
X667245Y108066D01*
D02*
G37*
G36*
X208669Y113273D02*
X192129D01*
Y96733D01*
X208669D01*
Y101058D01*
X209939Y101638D01*
X211014Y101193D01*
X212529D01*
X213930Y101773D01*
X215001Y102845D01*
X215581Y104245D01*
Y105761D01*
X215001Y107161D01*
X213930Y108233D01*
X212529Y108813D01*
X211014D01*
X209939Y108368D01*
X208669Y108949D01*
Y113273D01*
D02*
G37*
G36*
X173493Y108811D02*
X171977D01*
X170577Y108231D01*
X169505Y107159D01*
X168925Y105759D01*
Y104243D01*
X169505Y102843D01*
X170577Y101771D01*
X171977Y101191D01*
X173493D01*
X174893Y101771D01*
X175965Y102843D01*
X176545Y104243D01*
Y105759D01*
X175965Y107159D01*
X174893Y108231D01*
X173493Y108811D01*
D02*
G37*
G36*
X128870Y108810D02*
X127355D01*
X125954Y108230D01*
X124882Y107158D01*
X124303Y105758D01*
Y104242D01*
X124882Y102842D01*
X125954Y101770D01*
X127355Y101190D01*
X128870D01*
X130271Y101770D01*
X131342Y102842D01*
X131923Y104242D01*
Y105758D01*
X131342Y107158D01*
X130271Y108230D01*
X128870Y108810D01*
D02*
G37*
G36*
X617698Y108066D02*
X616183D01*
X614782Y107486D01*
X613711Y106415D01*
X613130Y105014D01*
Y103498D01*
X613711Y102098D01*
X614782Y101026D01*
X616183Y100446D01*
X617698D01*
X619099Y101026D01*
X620170Y102098D01*
X620750Y103498D01*
Y105014D01*
X620170Y106415D01*
X619099Y107486D01*
X617698Y108066D01*
D02*
G37*
G36*
X229273Y107127D02*
X227758D01*
X226357Y106546D01*
X225286Y105475D01*
X224706Y104074D01*
Y102559D01*
X225286Y101158D01*
X226357Y100087D01*
X227758Y99507D01*
X229273D01*
X230674Y100087D01*
X231746Y101158D01*
X232326Y102559D01*
Y104074D01*
X231746Y105475D01*
X230674Y106546D01*
X229273Y107127D01*
D02*
G37*
G36*
X160901Y113272D02*
X144361D01*
Y96732D01*
X160901D01*
Y113272D01*
D02*
G37*
G36*
X113306Y113270D02*
X96766D01*
Y96730D01*
X113306D01*
Y113270D01*
D02*
G37*
G36*
X140546Y93770D02*
X139046D01*
X137661Y93196D01*
X136600Y92136D01*
X136026Y90750D01*
Y89250D01*
X136600Y87865D01*
X137661Y86804D01*
X139046Y86230D01*
X140546D01*
X141932Y86804D01*
X142992Y87865D01*
X143566Y89250D01*
Y90750D01*
X142992Y92136D01*
X141932Y93196D01*
X140546Y93770D01*
D02*
G37*
G36*
X626207Y93481D02*
X624691D01*
X623291Y92901D01*
X622219Y91830D01*
X621639Y90429D01*
Y88913D01*
X622219Y87513D01*
X623291Y86441D01*
X624691Y85861D01*
X626207D01*
X627607Y86441D01*
X628679Y87513D01*
X629259Y88913D01*
Y90429D01*
X628679Y91830D01*
X627607Y92901D01*
X626207Y93481D01*
D02*
G37*
G36*
X611910Y90981D02*
X610394D01*
X608994Y90401D01*
X607922Y89330D01*
X607342Y87929D01*
Y86413D01*
X607922Y85013D01*
X608994Y83941D01*
X610394Y83361D01*
X611910D01*
X613310Y83941D01*
X614382Y85013D01*
X614962Y86413D01*
Y87929D01*
X614382Y89330D01*
X613310Y90401D01*
X611910Y90981D01*
D02*
G37*
G36*
X180835Y83441D02*
X179335D01*
X177949Y82867D01*
X176889Y81807D01*
X176315Y80421D01*
Y78921D01*
X176889Y77536D01*
X177949Y76475D01*
X179335Y75901D01*
X180835D01*
X182220Y76475D01*
X183281Y77536D01*
X183855Y78921D01*
Y80421D01*
X183281Y81807D01*
X182220Y82867D01*
X180835Y83441D01*
D02*
G37*
G36*
X224194Y83481D02*
X222678D01*
X221278Y82901D01*
X220206Y81830D01*
X219626Y80429D01*
Y78913D01*
X220206Y77513D01*
X221278Y76441D01*
X222678Y75861D01*
X224194D01*
X225594Y76441D01*
X226666Y77513D01*
X227246Y78913D01*
Y80429D01*
X226666Y81830D01*
X225594Y82901D01*
X224194Y83481D01*
D02*
G37*
G36*
X193728Y79398D02*
X191254D01*
X188863Y78758D01*
X186720Y77520D01*
X184971Y75771D01*
X183733Y73628D01*
X183093Y71237D01*
Y68763D01*
X183733Y66372D01*
X184971Y64229D01*
X186720Y62480D01*
X188863Y61242D01*
X191254Y60602D01*
X193728D01*
X196118Y61242D01*
X198261Y62480D01*
X200011Y64229D01*
X201248Y66372D01*
X201889Y68763D01*
Y71237D01*
X201248Y73628D01*
X200011Y75771D01*
X198261Y77520D01*
X196118Y78758D01*
X193728Y79398D01*
D02*
G37*
G36*
X139246D02*
X136771D01*
X134381Y78758D01*
X132238Y77520D01*
X130488Y75771D01*
X129251Y73628D01*
X128610Y71237D01*
Y68763D01*
X129251Y66372D01*
X130488Y64229D01*
X132238Y62480D01*
X134381Y61242D01*
X136771Y60602D01*
X139246D01*
X141636Y61242D01*
X143779Y62480D01*
X145529Y64229D01*
X146766Y66372D01*
X147407Y68763D01*
Y71237D01*
X146766Y73628D01*
X145529Y75771D01*
X143779Y77520D01*
X141636Y78758D01*
X139246Y79398D01*
D02*
G37*
G36*
X238100Y68148D02*
X236584D01*
X235184Y67568D01*
X234112Y66497D01*
X233532Y65096D01*
Y63580D01*
X234112Y62180D01*
X235184Y61108D01*
X236584Y60528D01*
X238100D01*
X239500Y61108D01*
X240572Y62180D01*
X241152Y63580D01*
Y65096D01*
X240572Y66497D01*
X239500Y67568D01*
X238100Y68148D01*
D02*
G37*
G36*
X630534Y68084D02*
X629018D01*
X627618Y67504D01*
X626546Y66432D01*
X625966Y65031D01*
Y63516D01*
X626546Y62116D01*
X627618Y61044D01*
X629018Y60464D01*
X630534D01*
X631934Y61044D01*
X633006Y62116D01*
X633586Y63516D01*
Y65031D01*
X633006Y66432D01*
X631934Y67504D01*
X630534Y68084D01*
D02*
G37*
G36*
X792345Y70770D02*
X790050D01*
X787929Y69892D01*
X786306Y68268D01*
X785428Y66148D01*
Y63852D01*
X786306Y61732D01*
X787929Y60108D01*
X790050Y59230D01*
X792345D01*
X794466Y60108D01*
X796089Y61732D01*
X796968Y63852D01*
Y66148D01*
X796089Y68268D01*
X794466Y69892D01*
X792345Y70770D01*
D02*
G37*
G36*
X419150Y60035D02*
X418836D01*
Y49273D01*
X429598D01*
Y49587D01*
X428778Y52648D01*
X427194Y55391D01*
X424953Y57631D01*
X422210Y59215D01*
X419150Y60035D01*
D02*
G37*
G36*
X416296D02*
X415982D01*
X412921Y59215D01*
X410178Y57631D01*
X407938Y55391D01*
X406354Y52648D01*
X405534Y49587D01*
Y49273D01*
X416296D01*
Y60035D01*
D02*
G37*
G36*
X641232Y48337D02*
X639716D01*
X638316Y47757D01*
X637244Y46686D01*
X636664Y45285D01*
Y43769D01*
X637244Y42369D01*
X638316Y41297D01*
X639716Y40717D01*
X641232D01*
X642632Y41297D01*
X643704Y42369D01*
X644284Y43769D01*
Y45285D01*
X643704Y46686D01*
X642632Y47757D01*
X641232Y48337D01*
D02*
G37*
G36*
X429598Y46733D02*
X418836D01*
Y35971D01*
X419150D01*
X422210Y36791D01*
X424953Y38375D01*
X427194Y40616D01*
X428778Y43359D01*
X429598Y46419D01*
Y46733D01*
D02*
G37*
G36*
X416296D02*
X405534D01*
Y46419D01*
X406354Y43359D01*
X407938Y40616D01*
X410178Y38375D01*
X412921Y36791D01*
X415982Y35971D01*
X416296D01*
Y46733D01*
D02*
G37*
G36*
X68871Y36386D02*
X65224Y35906D01*
X61826Y34499D01*
X58907Y32259D01*
X56668Y29341D01*
X55261Y25943D01*
X54780Y22296D01*
X55261Y18649D01*
X56668Y15251D01*
X58907Y12332D01*
X61826Y10093D01*
X65224Y8685D01*
X68871Y8205D01*
X72518Y8685D01*
X75916Y10093D01*
X78834Y12332D01*
X81074Y15251D01*
X82481Y18649D01*
X82961Y22296D01*
X82481Y25943D01*
X81074Y29341D01*
X78834Y32259D01*
X75916Y34499D01*
X72518Y35906D01*
X68871Y36386D01*
D02*
G37*
%LPD*%
D23*
X417566Y223303D02*
D03*
D41*
X735007Y465856D02*
D03*
X583560Y432833D02*
D03*
D115*
X355914Y305516D02*
D03*
X285443Y289532D02*
D03*
X325584Y260729D02*
D03*
X328253Y319928D02*
D03*
X302584Y218206D02*
D03*
X246344Y239607D02*
D03*
X246210Y316572D02*
D03*
X309084Y212266D02*
D03*
X107713Y248916D02*
D03*
X559293Y328719D02*
D03*
X510710Y328505D02*
D03*
X188123Y256686D02*
D03*
X46003Y378314D02*
D03*
X163834Y246059D02*
D03*
X168388Y223303D02*
D03*
X52900Y352428D02*
D03*
X53011Y331928D02*
D03*
X63667Y299120D02*
D03*
X82602Y467269D02*
D03*
X62037Y250315D02*
D03*
X441104Y48418D02*
D03*
X640474Y44527D02*
D03*
X616940Y104256D02*
D03*
X622280Y138220D02*
D03*
X642338Y140633D02*
D03*
X611152Y87171D02*
D03*
X625449Y89671D02*
D03*
X595418Y266639D02*
D03*
X237342Y64338D02*
D03*
X564568Y237015D02*
D03*
X559488Y279208D02*
D03*
X110536Y297426D02*
D03*
X129578Y332245D02*
D03*
X140276Y343928D02*
D03*
X168190Y195963D02*
D03*
X168289Y206952D02*
D03*
X595787Y319559D02*
D03*
X589698D02*
D03*
X575061D02*
D03*
X427967Y349724D02*
D03*
X416942Y354981D02*
D03*
X422340Y428386D02*
D03*
X444284Y470737D02*
D03*
X458898Y472363D02*
D03*
X109673Y219462D02*
D03*
X117861Y379729D02*
D03*
X122720Y451928D02*
D03*
X134658Y390204D02*
D03*
X792622Y300445D02*
D03*
X794159Y338108D02*
D03*
X210930Y165003D02*
D03*
X211772Y105003D02*
D03*
X223436Y79671D02*
D03*
X228516Y103316D02*
D03*
X219778Y410778D02*
D03*
X198283Y355368D02*
D03*
X208790Y312366D02*
D03*
X445398Y283644D02*
D03*
X423143Y329481D02*
D03*
X457728Y446887D02*
D03*
Y361340D02*
D03*
X473164Y333898D02*
D03*
X128112Y105000D02*
D03*
X172735Y105001D02*
D03*
X170460Y165000D02*
D03*
X122846D02*
D03*
X138366Y219762D02*
D03*
X179136Y224364D02*
D03*
X182460Y523645D02*
D03*
X409943Y331708D02*
D03*
X204247Y195963D02*
D03*
X57604Y456351D02*
D03*
Y444381D02*
D03*
X142355Y315020D02*
D03*
X101575Y393416D02*
D03*
X96495Y511212D02*
D03*
X37399Y508190D02*
D03*
Y488763D02*
D03*
X240471Y325271D02*
D03*
X201521Y511966D02*
D03*
X226540Y544528D02*
D03*
X171026Y535928D02*
D03*
X317978Y523645D02*
D03*
X330063Y532645D02*
D03*
X171026Y475928D02*
D03*
X146476Y406281D02*
D03*
X101575Y587500D02*
D03*
X322874Y547928D02*
D03*
X312500Y439928D02*
D03*
X144580Y568843D02*
D03*
X171026Y444991D02*
D03*
X235000Y463928D02*
D03*
X207420Y303749D02*
D03*
X222968Y439928D02*
D03*
X226884Y415777D02*
D03*
X387104Y565800D02*
D03*
X365207Y565510D02*
D03*
X343807Y565480D02*
D03*
X399148Y594662D02*
D03*
X398461Y612480D02*
D03*
X398450Y627818D02*
D03*
X158220Y603645D02*
D03*
X159856Y629398D02*
D03*
X406070Y548481D02*
D03*
X634799Y217500D02*
D03*
X743945Y297130D02*
D03*
X33362Y414251D02*
D03*
X154442Y275000D02*
D03*
X162620Y269124D02*
D03*
X105080Y366682D02*
D03*
X63649Y285724D02*
D03*
X33362Y422668D02*
D03*
X142125Y281598D02*
D03*
X367500Y135914D02*
D03*
X787773Y219678D02*
D03*
X756737Y219805D02*
D03*
X660527Y98269D02*
D03*
X666488Y104256D02*
D03*
X629776Y64274D02*
D03*
X783844Y51875D02*
D03*
X702876Y49243D02*
D03*
X662595Y82040D02*
D03*
X585585Y339242D02*
D03*
X665637Y188250D02*
D03*
X807210Y193250D02*
D03*
X783637Y178459D02*
D03*
X687949Y170000D02*
D03*
X746324Y361579D02*
D03*
X731837Y354302D02*
D03*
X629879Y225186D02*
D03*
X642226Y217500D02*
D03*
X634686Y211348D02*
D03*
X642338D02*
D03*
X650054Y217500D02*
D03*
X657481Y211348D02*
D03*
X657468Y224870D02*
D03*
X657392Y231576D02*
D03*
X616940Y266639D02*
D03*
X616391Y291144D02*
D03*
X616257Y297812D02*
D03*
X677891Y400153D02*
D03*
Y386094D02*
D03*
Y393408D02*
D03*
X684587Y393436D02*
D03*
Y386374D02*
D03*
Y379694D02*
D03*
X783432Y395260D02*
D03*
X790681D02*
D03*
X798154D02*
D03*
X806131Y395495D02*
D03*
X814838Y396012D02*
D03*
X822957Y396075D02*
D03*
X822677Y403130D02*
D03*
X822212Y410280D02*
D03*
X815031Y403218D02*
D03*
X814628Y409854D02*
D03*
X472472Y341400D02*
D03*
Y348451D02*
D03*
Y355278D02*
D03*
X481108Y355217D02*
D03*
X480701Y332942D02*
D03*
X563810Y334659D02*
D03*
X653853Y607744D02*
D03*
X687875Y415699D02*
D03*
X698459D02*
D03*
X693167Y420991D02*
D03*
X698459Y426283D02*
D03*
X687875D02*
D03*
X621332Y464224D02*
D03*
X747037Y555624D02*
D03*
X332500Y415928D02*
D03*
X330063Y428435D02*
D03*
X410515Y363498D02*
D03*
X393284Y405790D02*
D03*
X362853Y379052D02*
D03*
X792154Y361523D02*
D03*
X621415Y286976D02*
D03*
X467438Y484802D02*
D03*
X517502Y479205D02*
D03*
X657557Y217500D02*
D03*
X650054Y211348D02*
D03*
X409954Y485132D02*
D03*
X325023Y356070D02*
D03*
Y367928D02*
D03*
X424978Y548481D02*
D03*
X638486Y516390D02*
D03*
X607556Y512850D02*
D03*
X655992Y511224D02*
D03*
X581188Y463928D02*
D03*
X586268Y458515D02*
D03*
X597650Y448656D02*
D03*
X608387Y529258D02*
D03*
X512752Y547844D02*
D03*
X712966Y449751D02*
D03*
X692910Y392265D02*
D03*
X460000Y547844D02*
D03*
X545619Y296143D02*
D03*
X655234Y428088D02*
D03*
X495084Y614470D02*
D03*
X469707Y615087D02*
D03*
X444284Y615002D02*
D03*
X664802Y350991D02*
D03*
X635563Y341219D02*
D03*
X659414Y490217D02*
D03*
Y472047D02*
D03*
X510849Y301356D02*
D03*
X652856Y380564D02*
D03*
X701832Y504832D02*
D03*
X742741Y392647D02*
D03*
X715384Y351057D02*
D03*
X671727Y350991D02*
D03*
X659715Y443292D02*
D03*
X664053Y409096D02*
D03*
X604833Y611240D02*
D03*
X625913Y607490D02*
D03*
X770635Y601394D02*
D03*
X702621Y569644D02*
D03*
X644201Y607490D02*
D03*
X652075Y564056D02*
D03*
D116*
X332500Y245173D02*
D03*
X336951Y284034D02*
D03*
X337023Y295030D02*
D03*
X252659Y205492D02*
D03*
X252829Y259433D02*
D03*
X397891Y301602D02*
D03*
X381181Y324369D02*
D03*
X63647Y365767D02*
D03*
X65085Y314360D02*
D03*
X164079Y130573D02*
D03*
X163950Y179478D02*
D03*
X628803Y184187D02*
D03*
X120583Y221794D02*
D03*
X180085Y79671D02*
D03*
X139796Y90000D02*
D03*
Y140000D02*
D03*
X179829Y117500D02*
D03*
X96247Y314905D02*
D03*
X219883Y518043D02*
D03*
X188930Y528968D02*
D03*
X182460Y494632D02*
D03*
X96587Y404872D02*
D03*
X112625Y390010D02*
D03*
X138125Y471551D02*
D03*
X168598Y418318D02*
D03*
X220114Y433926D02*
D03*
X240471Y434173D02*
D03*
X189420Y506310D02*
D03*
X219830Y532698D02*
D03*
X198283Y467243D02*
D03*
X171026Y516929D02*
D03*
X144414Y553779D02*
D03*
X156660Y444460D02*
D03*
X162120Y457081D02*
D03*
X530849Y341144D02*
D03*
Y326144D02*
D03*
X540849D02*
D03*
Y341144D02*
D03*
X535849Y333644D02*
D03*
X638879Y300144D02*
D03*
Y292144D02*
D03*
D131*
X417566Y48003D02*
D03*
D132*
X444284Y575558D02*
D03*
Y600957D02*
D03*
X469684Y575558D02*
D03*
Y600957D02*
D03*
X495084Y575558D02*
D03*
D133*
Y600957D02*
D03*
D134*
X200399Y105003D02*
D03*
X105036Y105000D02*
D03*
X152631Y105002D02*
D03*
X457500Y435778D02*
D03*
D135*
X200399Y125003D02*
D03*
Y145003D02*
D03*
Y165003D02*
D03*
X105036Y125000D02*
D03*
Y145000D02*
D03*
Y165000D02*
D03*
X152631Y125002D02*
D03*
Y145002D02*
D03*
Y165002D02*
D03*
X457500Y375778D02*
D03*
Y395778D02*
D03*
Y415778D02*
D03*
D136*
X149430Y234723D02*
D03*
X812717Y338644D02*
D03*
X192491Y70000D02*
D03*
X138008D02*
D03*
X112522Y406281D02*
D03*
X813987Y300940D02*
D03*
X137238Y264375D02*
D03*
X406136Y316940D02*
D03*
X434275Y315064D02*
D03*
X112612Y499415D02*
D03*
X112970Y433710D02*
D03*
Y582697D02*
D03*
X112522Y471551D02*
D03*
X112727Y554688D02*
D03*
X112571Y526889D02*
D03*
X549348Y432935D02*
D03*
X503405Y493032D02*
D03*
X390284Y494632D02*
D03*
X450000Y492453D02*
D03*
X598929Y282134D02*
D03*
X141770Y583811D02*
D03*
X610958Y244792D02*
D03*
X468662Y318598D02*
D03*
D137*
X153140Y543443D02*
D03*
D138*
Y518043D02*
D03*
Y492643D02*
D03*
Y467243D02*
D03*
D139*
X791198Y145000D02*
D03*
D140*
Y65000D02*
D03*
D141*
X781327Y561007D02*
D03*
Y512507D02*
D03*
D142*
X812127Y577757D02*
D03*
Y495757D02*
D03*
D143*
X270681Y502174D02*
D03*
X260681D02*
D03*
X270681Y512174D02*
D03*
X260681D02*
D03*
X292500Y502174D02*
D03*
X282500D02*
D03*
X292500Y512174D02*
D03*
X282500D02*
D03*
X270681Y480000D02*
D03*
X260681D02*
D03*
X270681Y490000D02*
D03*
X260681D02*
D03*
X292500Y480000D02*
D03*
X282500D02*
D03*
X292500Y490000D02*
D03*
X282500D02*
D03*
X261207Y379619D02*
D03*
X251207D02*
D03*
X261207Y389619D02*
D03*
X251207D02*
D03*
X290443Y379619D02*
D03*
X280443D02*
D03*
X290443Y389619D02*
D03*
X280443D02*
D03*
X290443Y351070D02*
D03*
X280443D02*
D03*
X290443Y361070D02*
D03*
X280443D02*
D03*
X261207Y351070D02*
D03*
X251207D02*
D03*
X261207Y361070D02*
D03*
X251207D02*
D03*
D144*
X642779Y118841D02*
D03*
Y65501D02*
D03*
M02*
