G04*
G04 #@! TF.GenerationSoftware,Altium Limited,Altium Designer,24.1.2 (44)*
G04*
G04 Layer_Physical_Order=3*
G04 Layer_Color=16440176*
%FSLAX44Y44*%
%MOMM*%
G71*
G04*
G04 #@! TF.SameCoordinates,E849002E-D005-4F9B-B670-832AB9F5597C*
G04*
G04*
G04 #@! TF.FilePolarity,Positive*
G04*
G01*
G75*
%ADD23R,2.0000X2.0000*%
%ADD41C,1.2700*%
%ADD115C,0.5080*%
%ADD116C,0.5000*%
%ADD131C,2.0000*%
%ADD132C,1.6000*%
G04:AMPARAMS|DCode=133|XSize=1.6mm|YSize=1.6mm|CornerRadius=0.4mm|HoleSize=0mm|Usage=FLASHONLY|Rotation=180.000|XOffset=0mm|YOffset=0mm|HoleType=Round|Shape=RoundedRectangle|*
%AMROUNDEDRECTD133*
21,1,1.6000,0.8000,0,0,180.0*
21,1,0.8000,1.6000,0,0,180.0*
1,1,0.8000,-0.4000,0.4000*
1,1,0.8000,0.4000,0.4000*
1,1,0.8000,0.4000,-0.4000*
1,1,0.8000,-0.4000,-0.4000*
%
%ADD133ROUNDEDRECTD133*%
%ADD134R,1.4000X1.4000*%
%ADD135C,1.4000*%
%ADD136C,1.6256*%
%ADD137R,1.3980X1.3980*%
%ADD138C,1.3980*%
%ADD139O,0.9000X1.7000*%
%ADD140C,0.9000*%
%ADD141O,1.4600X1.0000*%
%ADD142O,1.8000X1.0000*%
%ADD143C,0.5500*%
%ADD144C,0.6350*%
G36*
X710000Y452173D02*
X709736Y451909D01*
X709156Y450509D01*
Y448993D01*
X709736Y447593D01*
X710000Y447328D01*
Y375445D01*
X710756Y374689D01*
X706872Y370805D01*
X585254D01*
Y425398D01*
X586502Y425732D01*
X588239Y426735D01*
X589658Y428154D01*
X590661Y429892D01*
X591180Y431830D01*
Y433836D01*
X590661Y435774D01*
X589658Y437512D01*
X588239Y438930D01*
X586502Y439934D01*
X585254Y440268D01*
Y454534D01*
X585510Y454705D01*
X587026D01*
X588426Y455285D01*
X589498Y456357D01*
X590078Y457757D01*
Y459273D01*
X589498Y460673D01*
X588426Y461745D01*
X587026Y462325D01*
X585510D01*
X585254Y462496D01*
Y503881D01*
X586268Y504895D01*
X586268D01*
X586268Y504895D01*
X586268Y504895D01*
X698022Y504895D01*
Y504075D01*
X698602Y502674D01*
X699674Y501602D01*
X701074Y501022D01*
X702590D01*
X703990Y501602D01*
X705062Y502674D01*
X705642Y504075D01*
Y504895D01*
X710000Y504895D01*
Y452173D01*
D02*
G37*
G36*
X386350Y505040D02*
X386334Y504884D01*
X386376Y504745D01*
X386334Y504606D01*
X386555Y503774D01*
X385885Y502944D01*
X384514Y502152D01*
X382764Y500402D01*
X381527Y498260D01*
X380886Y495869D01*
Y493395D01*
X381527Y491004D01*
X382764Y488862D01*
X384514Y487112D01*
X385693Y486431D01*
X385750Y486381D01*
X385928Y486197D01*
X386137Y484785D01*
X386162Y484693D01*
X386125Y484605D01*
Y480000D01*
X386528Y479028D01*
X387500Y478625D01*
X461744D01*
Y476564D01*
X460474Y475834D01*
X459656Y476173D01*
X458140D01*
X456740Y475593D01*
X455668Y474521D01*
X455088Y473121D01*
Y471605D01*
X455668Y470205D01*
X456740Y469133D01*
X458140Y468553D01*
X459656D01*
X460474Y468892D01*
X461744Y468161D01*
Y444810D01*
X458770D01*
Y435778D01*
Y426746D01*
X461744D01*
Y424156D01*
X460474Y423543D01*
X458589Y424048D01*
X456411D01*
X454308Y423484D01*
X452422Y422396D01*
X450882Y420856D01*
X449794Y418970D01*
X449230Y416867D01*
Y414689D01*
X449794Y412586D01*
X450882Y410700D01*
X452422Y409160D01*
X454308Y408072D01*
X456411Y407508D01*
X458589D01*
X460474Y408013D01*
X461744Y407400D01*
Y404156D01*
X460474Y403543D01*
X458589Y404048D01*
X456411D01*
X454308Y403484D01*
X452422Y402396D01*
X450882Y400856D01*
X449794Y398970D01*
X449230Y396867D01*
Y394689D01*
X449794Y392586D01*
X450882Y390700D01*
X452422Y389160D01*
X454308Y388072D01*
X456411Y387508D01*
X458589D01*
X460474Y388013D01*
X461744Y387400D01*
Y384156D01*
X460474Y383543D01*
X458589Y384048D01*
X456411D01*
X454308Y383484D01*
X452422Y382396D01*
X450882Y380856D01*
X449794Y378970D01*
X449230Y376867D01*
Y374689D01*
X449794Y372586D01*
X450882Y370700D01*
X452422Y369160D01*
X454308Y368072D01*
X456411Y367508D01*
X458589D01*
X460474Y368013D01*
X461744Y367400D01*
Y364508D01*
X460474Y363982D01*
X459887Y364570D01*
X458486Y365150D01*
X456970D01*
X455570Y364570D01*
X454498Y363498D01*
X453918Y362098D01*
Y360582D01*
X454498Y359182D01*
X455570Y358110D01*
X456970Y357530D01*
X458486D01*
X459887Y358110D01*
X460474Y358698D01*
X461744Y358172D01*
Y324971D01*
X461142Y324369D01*
X459905Y322225D01*
X459264Y319835D01*
Y317361D01*
X459905Y314970D01*
X461142Y312827D01*
X461744Y312225D01*
Y153410D01*
X580836D01*
Y337432D01*
X582107Y337685D01*
X582355Y337084D01*
X583427Y336012D01*
X584827Y335432D01*
X586343D01*
X587743Y336012D01*
X588815Y337084D01*
X589395Y338484D01*
Y340000D01*
X588815Y341400D01*
X587743Y342472D01*
X586343Y343052D01*
X584827D01*
X583427Y342472D01*
X582355Y341400D01*
X582107Y340799D01*
X580836Y341052D01*
Y369431D01*
X706872D01*
X706872Y369431D01*
X706872Y369431D01*
X831374D01*
X831476Y287415D01*
X831476Y287334D01*
X831478Y286218D01*
X831478Y286218D01*
X831497Y271048D01*
X831498Y269869D01*
X831498Y269869D01*
X831598Y190020D01*
X831598Y189440D01*
X831598Y189440D01*
X831598Y189440D01*
X831618Y173810D01*
X831618Y173810D01*
X831618Y173810D01*
X831658Y141391D01*
X831658Y141391D01*
X831658Y141391D01*
X831662Y138749D01*
X831662Y138749D01*
X831662Y138749D01*
X831663Y137462D01*
X831663Y137462D01*
X831663Y137462D01*
X831709Y101026D01*
X831709Y101026D01*
X831709Y101026D01*
X831723Y89330D01*
X831723Y89330D01*
X831723Y89330D01*
X831732Y82798D01*
X831732Y82798D01*
X831732Y82798D01*
X831758Y62116D01*
X831758Y62116D01*
X831758Y62116D01*
X831771Y51401D01*
X831771Y51401D01*
X831771Y51401D01*
X831818Y13479D01*
X818342Y10946D01*
X776811Y3886D01*
X735162Y-2450D01*
X693412Y-8059D01*
X651568Y-12940D01*
X581178D01*
X580836Y-12116D01*
Y1250D01*
X461744D01*
Y-25787D01*
X441427Y-26376D01*
X399304Y-26864D01*
X357176Y-26618D01*
X315060Y-25637D01*
X272970Y-23923D01*
X230912Y-21477D01*
X188906Y-18297D01*
X146962Y-14387D01*
X105091Y-9746D01*
X63307Y-4376D01*
X21624Y1721D01*
X5179Y4420D01*
X5179Y506310D01*
X34054D01*
X34169Y506032D01*
X35241Y504961D01*
X36641Y504380D01*
X38157D01*
X39557Y504961D01*
X40629Y506032D01*
X40744Y506310D01*
X104626D01*
X104638Y506280D01*
X105007Y505040D01*
X103854Y503043D01*
X103214Y500653D01*
Y498178D01*
X103854Y495788D01*
X105091Y493645D01*
X106841Y491895D01*
X108984Y490658D01*
X111374Y490017D01*
X113849D01*
X116239Y490658D01*
X118382Y491895D01*
X120132Y493645D01*
X121369Y495788D01*
X122010Y498178D01*
Y500653D01*
X121369Y503043D01*
X120216Y505040D01*
X120585Y506280D01*
X120597Y506310D01*
X185650D01*
Y505560D01*
X186224Y504175D01*
X187285Y503114D01*
X188670Y502540D01*
X190170D01*
X191556Y503114D01*
X192616Y504175D01*
X193190Y505560D01*
Y506310D01*
X257336D01*
X257862Y505040D01*
X257273Y504451D01*
X256661Y502974D01*
Y501375D01*
X257273Y499897D01*
X258404Y498766D01*
X259882Y498154D01*
X261481D01*
X262959Y498766D01*
X264089Y499897D01*
X264701Y501375D01*
Y502974D01*
X264089Y504451D01*
X263501Y505040D01*
X264027Y506310D01*
X267336D01*
X267862Y505040D01*
X267273Y504451D01*
X266661Y502974D01*
Y501375D01*
X267273Y499897D01*
X268404Y498766D01*
X269882Y498154D01*
X271481D01*
X272959Y498766D01*
X274089Y499897D01*
X274701Y501375D01*
Y502974D01*
X274089Y504451D01*
X273501Y505040D01*
X274027Y506310D01*
X279155D01*
X279681Y505040D01*
X279092Y504451D01*
X278480Y502974D01*
Y501375D01*
X279092Y499897D01*
X280223Y498766D01*
X281700Y498154D01*
X283300D01*
X284777Y498766D01*
X285908Y499897D01*
X286520Y501375D01*
Y502974D01*
X285908Y504451D01*
X285319Y505040D01*
X285845Y506310D01*
X289155D01*
X289681Y505040D01*
X289092Y504451D01*
X288480Y502974D01*
Y501375D01*
X289092Y499897D01*
X290223Y498766D01*
X291700Y498154D01*
X293300D01*
X294777Y498766D01*
X295908Y499897D01*
X296520Y501375D01*
Y502974D01*
X295908Y504451D01*
X295319Y505040D01*
X295845Y506310D01*
X385312D01*
X386350Y505040D01*
D02*
G37*
G36*
X574919Y506074D02*
Y358397D01*
X574449Y358084D01*
X501564D01*
X500592Y357681D01*
X500189Y356709D01*
Y326884D01*
X473107D01*
X472290Y327356D01*
X469899Y327996D01*
X467425D01*
X466513Y328696D01*
Y480000D01*
X387500D01*
Y484605D01*
X388508Y485378D01*
X389047Y485234D01*
X391522D01*
X393912Y485874D01*
X396055Y487112D01*
X397805Y488862D01*
X399042Y491004D01*
X399682Y493395D01*
Y495869D01*
X399042Y498260D01*
X397805Y500402D01*
X396055Y502152D01*
X393912Y503390D01*
X391522Y504030D01*
X389047D01*
X388697Y503936D01*
X387702Y504746D01*
X387807Y505791D01*
X466513D01*
Y506396D01*
X574018Y506970D01*
X574919Y506074D01*
D02*
G37*
G36*
X574449Y323369D02*
X574303D01*
X572902Y322789D01*
X571830Y321717D01*
X571250Y320317D01*
Y318801D01*
X571830Y317401D01*
X572902Y316329D01*
X574303Y315749D01*
X574449D01*
Y312225D01*
X501564D01*
Y356436D01*
X501644Y356629D01*
X501837Y356709D01*
X574449D01*
Y323369D01*
D02*
G37*
%LPC*%
G36*
X660171Y494027D02*
X658656D01*
X657255Y493447D01*
X656183Y492375D01*
X655603Y490975D01*
Y489459D01*
X656183Y488059D01*
X657255Y486987D01*
X658656Y486407D01*
X660171D01*
X661572Y486987D01*
X662644Y488059D01*
X663223Y489459D01*
Y490975D01*
X662644Y492375D01*
X661572Y493447D01*
X660171Y494027D01*
D02*
G37*
G36*
Y475857D02*
X658656D01*
X657255Y475277D01*
X656183Y474206D01*
X655603Y472805D01*
Y471289D01*
X656183Y469889D01*
X657255Y468817D01*
X658656Y468237D01*
X660171D01*
X661572Y468817D01*
X662644Y469889D01*
X663223Y471289D01*
Y472805D01*
X662644Y474206D01*
X661572Y475277D01*
X660171Y475857D01*
D02*
G37*
G36*
X598408Y452466D02*
X596892D01*
X595492Y451886D01*
X594420Y450815D01*
X593840Y449414D01*
Y447898D01*
X594420Y446498D01*
X595492Y445426D01*
X596892Y444846D01*
X598408D01*
X599809Y445426D01*
X600880Y446498D01*
X601460Y447898D01*
Y449414D01*
X600880Y450815D01*
X599809Y451886D01*
X598408Y452466D01*
D02*
G37*
G36*
X660473Y447102D02*
X658957D01*
X657557Y446522D01*
X656485Y445450D01*
X655905Y444050D01*
Y442534D01*
X656485Y441134D01*
X657557Y440062D01*
X658957Y439482D01*
X660473D01*
X661873Y440062D01*
X662945Y441134D01*
X663525Y442534D01*
Y444050D01*
X662945Y445450D01*
X661873Y446522D01*
X660473Y447102D01*
D02*
G37*
G36*
X699217Y430093D02*
X697701D01*
X696301Y429513D01*
X695229Y428442D01*
X694649Y427041D01*
Y425876D01*
X694216Y425234D01*
X693574Y424801D01*
X692759D01*
X692117Y425234D01*
X691685Y425876D01*
Y427041D01*
X691105Y428442D01*
X690033Y429513D01*
X688633Y430093D01*
X687117D01*
X685717Y429513D01*
X684645Y428442D01*
X684065Y427041D01*
Y425525D01*
X684645Y424125D01*
X685717Y423053D01*
X687117Y422473D01*
X688282D01*
X688924Y422041D01*
X689357Y421399D01*
Y420584D01*
X688924Y419942D01*
X688282Y419509D01*
X687117D01*
X685717Y418929D01*
X684645Y417857D01*
X684065Y416457D01*
Y414941D01*
X684645Y413541D01*
X685717Y412469D01*
X687117Y411889D01*
X688633D01*
X690033Y412469D01*
X691105Y413541D01*
X691685Y414941D01*
Y416106D01*
X692117Y416749D01*
X692759Y417181D01*
X693574D01*
X694216Y416749D01*
X694649Y416106D01*
Y414941D01*
X695229Y413541D01*
X696301Y412469D01*
X697701Y411889D01*
X699217D01*
X700617Y412469D01*
X701689Y413541D01*
X702269Y414941D01*
Y416457D01*
X701689Y417857D01*
X700617Y418929D01*
X699217Y419509D01*
X698052D01*
X697410Y419942D01*
X696977Y420584D01*
Y421399D01*
X697410Y422041D01*
X698052Y422473D01*
X699217D01*
X700617Y423053D01*
X701689Y424125D01*
X702269Y425525D01*
Y427041D01*
X701689Y428442D01*
X700617Y429513D01*
X699217Y430093D01*
D02*
G37*
G36*
X655992Y431898D02*
X654476D01*
X653076Y431318D01*
X652004Y430246D01*
X651424Y428846D01*
Y427330D01*
X652004Y425930D01*
X653076Y424858D01*
X654476Y424278D01*
X655992D01*
X657392Y424858D01*
X658464Y425930D01*
X659044Y427330D01*
Y428846D01*
X658464Y430246D01*
X657392Y431318D01*
X655992Y431898D01*
D02*
G37*
G36*
X664810Y412906D02*
X663295D01*
X661894Y412326D01*
X660823Y411254D01*
X660242Y409854D01*
Y408338D01*
X660823Y406938D01*
X661894Y405866D01*
X663295Y405286D01*
X664810D01*
X666211Y405866D01*
X667282Y406938D01*
X667862Y408338D01*
Y409854D01*
X667282Y411254D01*
X666211Y412326D01*
X664810Y412906D01*
D02*
G37*
G36*
X693668Y396075D02*
X692152D01*
X690752Y395495D01*
X689680Y394423D01*
X689100Y393023D01*
Y391507D01*
X689680Y390107D01*
X690752Y389035D01*
X692152Y388455D01*
X693668D01*
X695069Y389035D01*
X696140Y390107D01*
X696720Y391507D01*
Y393023D01*
X696140Y394423D01*
X695069Y395495D01*
X693668Y396075D01*
D02*
G37*
G36*
X653614Y384374D02*
X652098D01*
X650698Y383793D01*
X649626Y382722D01*
X649046Y381321D01*
Y379806D01*
X649626Y378405D01*
X650698Y377333D01*
X652098Y376754D01*
X653614D01*
X655014Y377333D01*
X656086Y378405D01*
X656666Y379806D01*
Y381321D01*
X656086Y382722D01*
X655014Y383793D01*
X653614Y384374D01*
D02*
G37*
G36*
X183210Y498402D02*
X181710D01*
X180324Y497828D01*
X179264Y496768D01*
X178690Y495382D01*
Y493882D01*
X179264Y492496D01*
X180324Y491436D01*
X181710Y490862D01*
X183210D01*
X184596Y491436D01*
X185656Y492496D01*
X186230Y493882D01*
Y495382D01*
X185656Y496768D01*
X184596Y497828D01*
X183210Y498402D01*
D02*
G37*
G36*
X293300Y494020D02*
X291700D01*
X290223Y493408D01*
X289092Y492277D01*
X288480Y490800D01*
Y489200D01*
X289092Y487723D01*
X290223Y486592D01*
X291700Y485980D01*
X293300D01*
X294777Y486592D01*
X295908Y487723D01*
X296520Y489200D01*
Y490800D01*
X295908Y492277D01*
X294777Y493408D01*
X293300Y494020D01*
D02*
G37*
G36*
X283300D02*
X281700D01*
X280223Y493408D01*
X279092Y492277D01*
X278480Y490800D01*
Y489200D01*
X279092Y487723D01*
X280223Y486592D01*
X281700Y485980D01*
X283300D01*
X284777Y486592D01*
X285908Y487723D01*
X286520Y489200D01*
Y490800D01*
X285908Y492277D01*
X284777Y493408D01*
X283300Y494020D01*
D02*
G37*
G36*
X271481D02*
X269882D01*
X268404Y493408D01*
X267273Y492277D01*
X266661Y490800D01*
Y489200D01*
X267273Y487723D01*
X268404Y486592D01*
X269882Y485980D01*
X271481D01*
X272959Y486592D01*
X274089Y487723D01*
X274701Y489200D01*
Y490800D01*
X274089Y492277D01*
X272959Y493408D01*
X271481Y494020D01*
D02*
G37*
G36*
X261481D02*
X259882D01*
X258404Y493408D01*
X257273Y492277D01*
X256661Y490800D01*
Y489200D01*
X257273Y487723D01*
X258404Y486592D01*
X259882Y485980D01*
X261481D01*
X262959Y486592D01*
X264089Y487723D01*
X264701Y489200D01*
Y490800D01*
X264089Y492277D01*
X262959Y493408D01*
X261481Y494020D01*
D02*
G37*
G36*
X38157Y492573D02*
X36641D01*
X35241Y491993D01*
X34169Y490921D01*
X33589Y489521D01*
Y488005D01*
X34169Y486605D01*
X35241Y485533D01*
X36641Y484953D01*
X38157D01*
X39557Y485533D01*
X40629Y486605D01*
X41209Y488005D01*
Y489521D01*
X40629Y490921D01*
X39557Y491993D01*
X38157Y492573D01*
D02*
G37*
G36*
X154228Y500903D02*
X152053D01*
X149952Y500340D01*
X148069Y499252D01*
X146531Y497715D01*
X145443Y495831D01*
X144880Y493730D01*
Y491555D01*
X145443Y489455D01*
X146531Y487571D01*
X148069Y486033D01*
X149952Y484946D01*
X152053Y484383D01*
X154228D01*
X156328Y484946D01*
X158212Y486033D01*
X159750Y487571D01*
X160837Y489455D01*
X161400Y491555D01*
Y493730D01*
X160837Y495831D01*
X159750Y497715D01*
X158212Y499252D01*
X156328Y500340D01*
X154228Y500903D01*
D02*
G37*
G36*
X293300Y484020D02*
X291700D01*
X290223Y483408D01*
X289092Y482277D01*
X288480Y480800D01*
Y479200D01*
X289092Y477723D01*
X290223Y476592D01*
X291700Y475980D01*
X293300D01*
X294777Y476592D01*
X295908Y477723D01*
X296520Y479200D01*
Y480800D01*
X295908Y482277D01*
X294777Y483408D01*
X293300Y484020D01*
D02*
G37*
G36*
X283300D02*
X281700D01*
X280223Y483408D01*
X279092Y482277D01*
X278480Y480800D01*
Y479200D01*
X279092Y477723D01*
X280223Y476592D01*
X281700Y475980D01*
X283300D01*
X284777Y476592D01*
X285908Y477723D01*
X286520Y479200D01*
Y480800D01*
X285908Y482277D01*
X284777Y483408D01*
X283300Y484020D01*
D02*
G37*
G36*
X271481D02*
X269882D01*
X268404Y483408D01*
X267273Y482277D01*
X266661Y480800D01*
Y479200D01*
X267273Y477723D01*
X268404Y476592D01*
X269882Y475980D01*
X271481D01*
X272959Y476592D01*
X274089Y477723D01*
X274701Y479200D01*
Y480800D01*
X274089Y482277D01*
X272959Y483408D01*
X271481Y484020D01*
D02*
G37*
G36*
X261481D02*
X259882D01*
X258404Y483408D01*
X257273Y482277D01*
X256661Y480800D01*
Y479200D01*
X257273Y477723D01*
X258404Y476592D01*
X259882Y475980D01*
X261481D01*
X262959Y476592D01*
X264089Y477723D01*
X264701Y479200D01*
Y480800D01*
X264089Y482277D01*
X262959Y483408D01*
X261481Y484020D01*
D02*
G37*
G36*
X138875Y475321D02*
X137375D01*
X135990Y474747D01*
X134929Y473686D01*
X134355Y472301D01*
Y470801D01*
X134929Y469415D01*
X135990Y468355D01*
X137375Y467781D01*
X138875D01*
X140261Y468355D01*
X141321Y469415D01*
X141895Y470801D01*
Y472301D01*
X141321Y473686D01*
X140261Y474747D01*
X138875Y475321D01*
D02*
G37*
G36*
X445042Y474547D02*
X443526D01*
X442126Y473967D01*
X441054Y472895D01*
X440474Y471494D01*
Y469979D01*
X441054Y468578D01*
X442126Y467507D01*
X443526Y466927D01*
X445042D01*
X446442Y467507D01*
X447514Y468578D01*
X448094Y469979D01*
Y471494D01*
X447514Y472895D01*
X446442Y473967D01*
X445042Y474547D01*
D02*
G37*
G36*
X199032Y471013D02*
X197533D01*
X196147Y470439D01*
X195086Y469378D01*
X194513Y467993D01*
Y466493D01*
X195086Y465107D01*
X196147Y464047D01*
X197533Y463473D01*
X199032D01*
X200418Y464047D01*
X201479Y465107D01*
X202053Y466493D01*
Y467993D01*
X201479Y469378D01*
X200418Y470439D01*
X199032Y471013D01*
D02*
G37*
G36*
X113759Y480949D02*
X111285D01*
X108895Y480308D01*
X106752Y479071D01*
X105002Y477321D01*
X103765Y475178D01*
X103124Y472788D01*
Y470314D01*
X103765Y467923D01*
X105002Y465780D01*
X106752Y464031D01*
X108895Y462793D01*
X111285Y462153D01*
X113759D01*
X116150Y462793D01*
X118293Y464031D01*
X120042Y465780D01*
X121280Y467923D01*
X121920Y470314D01*
Y472788D01*
X121280Y475178D01*
X120042Y477321D01*
X118293Y479071D01*
X116150Y480308D01*
X113759Y480949D01*
D02*
G37*
G36*
X235758Y467738D02*
X234242D01*
X232842Y467158D01*
X231770Y466086D01*
X231190Y464686D01*
Y463170D01*
X231770Y461770D01*
X232842Y460698D01*
X234242Y460118D01*
X235758D01*
X237158Y460698D01*
X238230Y461770D01*
X238810Y463170D01*
Y464686D01*
X238230Y466086D01*
X237158Y467158D01*
X235758Y467738D01*
D02*
G37*
G36*
X154228Y475503D02*
X152053D01*
X149952Y474940D01*
X148069Y473852D01*
X146531Y472315D01*
X145443Y470431D01*
X144880Y468330D01*
Y466155D01*
X145443Y464055D01*
X146531Y462171D01*
X148069Y460633D01*
X149952Y459546D01*
X152053Y458983D01*
X154228D01*
X156328Y459546D01*
X158212Y460633D01*
X159750Y462171D01*
X160837Y464055D01*
X161400Y466155D01*
Y468330D01*
X160837Y470431D01*
X159750Y472315D01*
X158212Y473852D01*
X156328Y474940D01*
X154228Y475503D01*
D02*
G37*
G36*
X162869Y460851D02*
X161370D01*
X159984Y460277D01*
X158924Y459216D01*
X158350Y457831D01*
Y456331D01*
X158924Y454945D01*
X159984Y453885D01*
X161370Y453311D01*
X162869D01*
X164255Y453885D01*
X165316Y454945D01*
X165890Y456331D01*
Y457831D01*
X165316Y459216D01*
X164255Y460277D01*
X162869Y460851D01*
D02*
G37*
G36*
X123478Y455738D02*
X121962D01*
X120562Y455158D01*
X119490Y454086D01*
X118910Y452686D01*
Y451170D01*
X119490Y449770D01*
X120562Y448698D01*
X121962Y448118D01*
X123478D01*
X124878Y448698D01*
X125950Y449770D01*
X126530Y451170D01*
Y452686D01*
X125950Y454086D01*
X124878Y455158D01*
X123478Y455738D01*
D02*
G37*
G36*
X157410Y448230D02*
X155910D01*
X154524Y447656D01*
X153464Y446596D01*
X152890Y445210D01*
Y443710D01*
X153464Y442325D01*
X154524Y441264D01*
X155910Y440690D01*
X157410D01*
X158796Y441264D01*
X159856Y442325D01*
X160430Y443710D01*
Y445210D01*
X159856Y446596D01*
X158796Y447656D01*
X157410Y448230D01*
D02*
G37*
G36*
X58362Y448191D02*
X56846D01*
X55446Y447611D01*
X54374Y446539D01*
X53794Y445139D01*
Y443623D01*
X54374Y442223D01*
X55446Y441151D01*
X56846Y440571D01*
X58362D01*
X59762Y441151D01*
X60834Y442223D01*
X61414Y443623D01*
Y445139D01*
X60834Y446539D01*
X59762Y447611D01*
X58362Y448191D01*
D02*
G37*
G36*
X456230Y444810D02*
X448468D01*
Y437048D01*
X456230D01*
Y444810D01*
D02*
G37*
G36*
X313258Y443738D02*
X311742D01*
X310342Y443158D01*
X309270Y442086D01*
X308690Y440686D01*
Y439170D01*
X309270Y437770D01*
X310342Y436698D01*
X311742Y436118D01*
X313258D01*
X314658Y436698D01*
X315730Y437770D01*
X316310Y439170D01*
Y440686D01*
X315730Y442086D01*
X314658Y443158D01*
X313258Y443738D01*
D02*
G37*
G36*
X241221Y437943D02*
X239721D01*
X238335Y437369D01*
X237275Y436308D01*
X236701Y434922D01*
Y433423D01*
X237275Y432037D01*
X238335Y430976D01*
X239721Y430402D01*
X241221D01*
X242606Y430976D01*
X243667Y432037D01*
X244241Y433423D01*
Y434922D01*
X243667Y436308D01*
X242606Y437369D01*
X241221Y437943D01*
D02*
G37*
G36*
X223726Y443738D02*
X222210D01*
X220810Y443158D01*
X219738Y442086D01*
X219158Y440686D01*
Y439170D01*
X219260Y438923D01*
X219267Y438839D01*
X218536Y437353D01*
X217978Y437122D01*
X216917Y436062D01*
X216343Y434676D01*
Y433176D01*
X216917Y431790D01*
X217978Y430730D01*
X219363Y430156D01*
X220863D01*
X222249Y430730D01*
X223309Y431790D01*
X223883Y433176D01*
Y434676D01*
X223799Y434879D01*
X223726Y436118D01*
X225126Y436698D01*
X226198Y437770D01*
X226778Y439170D01*
Y440686D01*
X226198Y442086D01*
X225126Y443158D01*
X223726Y443738D01*
D02*
G37*
G36*
X456230Y434508D02*
X448468D01*
Y426746D01*
X456230D01*
Y434508D01*
D02*
G37*
G36*
X330820Y432245D02*
X329305D01*
X327904Y431665D01*
X326833Y430594D01*
X326253Y429193D01*
Y427678D01*
X326833Y426277D01*
X327904Y425205D01*
X329305Y424625D01*
X330820D01*
X332221Y425205D01*
X333293Y426277D01*
X333873Y427678D01*
Y429193D01*
X333293Y430594D01*
X332221Y431665D01*
X330820Y432245D01*
D02*
G37*
G36*
X423098Y432196D02*
X421582D01*
X420182Y431616D01*
X419110Y430545D01*
X418530Y429144D01*
Y427629D01*
X419110Y426228D01*
X420182Y425157D01*
X421582Y424576D01*
X423098D01*
X424498Y425157D01*
X425570Y426228D01*
X426150Y427629D01*
Y429144D01*
X425570Y430545D01*
X424498Y431616D01*
X423098Y432196D01*
D02*
G37*
G36*
X114207Y443108D02*
X111733D01*
X109342Y442468D01*
X107199Y441231D01*
X105450Y439481D01*
X104213Y437338D01*
X103572Y434948D01*
Y432473D01*
X104213Y430083D01*
X105450Y427940D01*
X107199Y426190D01*
X109342Y424953D01*
X111733Y424312D01*
X114207D01*
X116597Y424953D01*
X118741Y426190D01*
X120490Y427940D01*
X121728Y430083D01*
X122368Y432473D01*
Y434948D01*
X121728Y437338D01*
X120490Y439481D01*
X118741Y441231D01*
X116597Y442468D01*
X114207Y443108D01*
D02*
G37*
G36*
X169348Y422088D02*
X167848D01*
X166462Y421514D01*
X165402Y420453D01*
X164828Y419068D01*
Y417568D01*
X165402Y416182D01*
X166462Y415122D01*
X167848Y414548D01*
X169348D01*
X170734Y415122D01*
X171794Y416182D01*
X172368Y417568D01*
Y419068D01*
X171794Y420453D01*
X170734Y421514D01*
X169348Y422088D01*
D02*
G37*
G36*
X227642Y419587D02*
X226126D01*
X224725Y419007D01*
X223654Y417935D01*
X223074Y416535D01*
Y415019D01*
X223323Y414417D01*
X222246Y413698D01*
X221936Y414008D01*
X220536Y414588D01*
X219020D01*
X217620Y414008D01*
X216548Y412936D01*
X215968Y411536D01*
Y410020D01*
X216548Y408620D01*
X217620Y407548D01*
X219020Y406968D01*
X220536D01*
X221936Y407548D01*
X223008Y408620D01*
X223588Y410020D01*
Y411536D01*
X223339Y412138D01*
X224415Y412858D01*
X224725Y412547D01*
X226126Y411967D01*
X227642D01*
X229042Y412547D01*
X230114Y413619D01*
X230694Y415019D01*
Y416535D01*
X230114Y417935D01*
X229042Y419007D01*
X227642Y419587D01*
D02*
G37*
G36*
X333258Y419738D02*
X331742D01*
X330342Y419158D01*
X329270Y418086D01*
X328690Y416686D01*
Y415170D01*
X329270Y413770D01*
X330342Y412698D01*
X331742Y412118D01*
X333258D01*
X334658Y412698D01*
X335730Y413770D01*
X336310Y415170D01*
Y416686D01*
X335730Y418086D01*
X334658Y419158D01*
X333258Y419738D01*
D02*
G37*
G36*
X34120Y426478D02*
X32604D01*
X31204Y425898D01*
X30132Y424826D01*
X29552Y423426D01*
Y421910D01*
X30132Y420510D01*
X31204Y419438D01*
X31907Y419147D01*
Y417772D01*
X31204Y417481D01*
X30132Y416409D01*
X29552Y415009D01*
Y413493D01*
X30132Y412093D01*
X31204Y411021D01*
X32604Y410441D01*
X34120D01*
X35520Y411021D01*
X36592Y412093D01*
X37172Y413493D01*
Y415009D01*
X36592Y416409D01*
X35520Y417481D01*
X34817Y417772D01*
Y419147D01*
X35520Y419438D01*
X36592Y420510D01*
X37172Y421910D01*
Y423426D01*
X36592Y424826D01*
X35520Y425898D01*
X34120Y426478D01*
D02*
G37*
G36*
X147234Y410091D02*
X145718D01*
X144318Y409511D01*
X143246Y408439D01*
X142666Y407039D01*
Y405523D01*
X143246Y404123D01*
X144318Y403051D01*
X145718Y402471D01*
X147234D01*
X148634Y403051D01*
X149706Y404123D01*
X150286Y405523D01*
Y407039D01*
X149706Y408439D01*
X148634Y409511D01*
X147234Y410091D01*
D02*
G37*
G36*
X97337Y408642D02*
X95837D01*
X94451Y408068D01*
X93391Y407007D01*
X92817Y405621D01*
Y404122D01*
X93391Y402736D01*
X94451Y401676D01*
X95837Y401102D01*
X97337D01*
X98722Y401676D01*
X99783Y402736D01*
X100357Y404122D01*
Y405621D01*
X99783Y407007D01*
X98722Y408068D01*
X97337Y408642D01*
D02*
G37*
G36*
X113759Y415679D02*
X111285D01*
X108895Y415038D01*
X106752Y413801D01*
X105002Y412052D01*
X103765Y409908D01*
X103124Y407518D01*
Y405044D01*
X103765Y402653D01*
X105002Y400510D01*
X106752Y398761D01*
X108895Y397523D01*
X111285Y396883D01*
X113759D01*
X116150Y397523D01*
X118293Y398761D01*
X120042Y400510D01*
X121280Y402653D01*
X121920Y405044D01*
Y407518D01*
X121280Y409908D01*
X120042Y412052D01*
X118293Y413801D01*
X116150Y415038D01*
X113759Y415679D01*
D02*
G37*
G36*
X102333Y397226D02*
X100817D01*
X99417Y396646D01*
X98345Y395574D01*
X97765Y394174D01*
Y392658D01*
X98345Y391258D01*
X99417Y390186D01*
X100817Y389606D01*
X102333D01*
X103734Y390186D01*
X104805Y391258D01*
X105385Y392658D01*
Y394174D01*
X104805Y395574D01*
X103734Y396646D01*
X102333Y397226D01*
D02*
G37*
G36*
X113375Y393780D02*
X111875D01*
X110489Y393206D01*
X109429Y392146D01*
X108855Y390760D01*
Y389260D01*
X109429Y387875D01*
X110489Y386814D01*
X111875Y386240D01*
X113375D01*
X114760Y386814D01*
X115821Y387875D01*
X116395Y389260D01*
Y390760D01*
X115821Y392146D01*
X114760Y393206D01*
X113375Y393780D01*
D02*
G37*
G36*
X291242Y393639D02*
X289643D01*
X288165Y393027D01*
X287035Y391896D01*
X286423Y390419D01*
Y388820D01*
X287035Y387342D01*
X288165Y386211D01*
X289643Y385599D01*
X291242D01*
X292720Y386211D01*
X293851Y387342D01*
X294463Y388820D01*
Y390419D01*
X293851Y391896D01*
X292720Y393027D01*
X291242Y393639D01*
D02*
G37*
G36*
X281242D02*
X279643D01*
X278165Y393027D01*
X277035Y391896D01*
X276423Y390419D01*
Y388820D01*
X277035Y387342D01*
X278165Y386211D01*
X279643Y385599D01*
X281242D01*
X282720Y386211D01*
X283851Y387342D01*
X284463Y388820D01*
Y390419D01*
X283851Y391896D01*
X282720Y393027D01*
X281242Y393639D01*
D02*
G37*
G36*
X262007D02*
X260408D01*
X258930Y393027D01*
X257799Y391896D01*
X257187Y390419D01*
Y388820D01*
X257799Y387342D01*
X258930Y386211D01*
X260408Y385599D01*
X262007D01*
X263484Y386211D01*
X264615Y387342D01*
X265227Y388820D01*
Y390419D01*
X264615Y391896D01*
X263484Y393027D01*
X262007Y393639D01*
D02*
G37*
G36*
X252007D02*
X250408D01*
X248930Y393027D01*
X247799Y391896D01*
X247187Y390419D01*
Y388820D01*
X247799Y387342D01*
X248930Y386211D01*
X250408Y385599D01*
X252007D01*
X253484Y386211D01*
X254615Y387342D01*
X255227Y388820D01*
Y390419D01*
X254615Y391896D01*
X253484Y393027D01*
X252007Y393639D01*
D02*
G37*
G36*
X118619Y383539D02*
X117103D01*
X115703Y382959D01*
X114631Y381887D01*
X114051Y380487D01*
Y378971D01*
X114631Y377571D01*
X115703Y376499D01*
X117103Y375919D01*
X118619D01*
X120019Y376499D01*
X121091Y377571D01*
X121671Y378971D01*
Y380487D01*
X121091Y381887D01*
X120019Y382959D01*
X118619Y383539D01*
D02*
G37*
G36*
X291242Y383639D02*
X289643D01*
X288165Y383027D01*
X287035Y381896D01*
X286423Y380419D01*
Y378820D01*
X287035Y377342D01*
X288165Y376211D01*
X289643Y375599D01*
X291242D01*
X292720Y376211D01*
X293851Y377342D01*
X294463Y378820D01*
Y380419D01*
X293851Y381896D01*
X292720Y383027D01*
X291242Y383639D01*
D02*
G37*
G36*
X281242D02*
X279643D01*
X278165Y383027D01*
X277035Y381896D01*
X276423Y380419D01*
Y378820D01*
X277035Y377342D01*
X278165Y376211D01*
X279643Y375599D01*
X281242D01*
X282720Y376211D01*
X283851Y377342D01*
X284463Y378820D01*
Y380419D01*
X283851Y381896D01*
X282720Y383027D01*
X281242Y383639D01*
D02*
G37*
G36*
X262007D02*
X260408D01*
X258930Y383027D01*
X257799Y381896D01*
X257187Y380419D01*
Y378820D01*
X257799Y377342D01*
X258930Y376211D01*
X260408Y375599D01*
X262007D01*
X263484Y376211D01*
X264615Y377342D01*
X265227Y378820D01*
Y380419D01*
X264615Y381896D01*
X263484Y383027D01*
X262007Y383639D01*
D02*
G37*
G36*
X252007D02*
X250408D01*
X248930Y383027D01*
X247799Y381896D01*
X247187Y380419D01*
Y378820D01*
X247799Y377342D01*
X248930Y376211D01*
X250408Y375599D01*
X252007D01*
X253484Y376211D01*
X254615Y377342D01*
X255227Y378820D01*
Y380419D01*
X254615Y381896D01*
X253484Y383027D01*
X252007Y383639D01*
D02*
G37*
G36*
X363611Y382862D02*
X362095D01*
X360695Y382282D01*
X359623Y381211D01*
X359043Y379810D01*
Y378294D01*
X359623Y376894D01*
X360695Y375822D01*
X362095Y375242D01*
X363611D01*
X365011Y375822D01*
X366083Y376894D01*
X366663Y378294D01*
Y379810D01*
X366083Y381211D01*
X365011Y382282D01*
X363611Y382862D01*
D02*
G37*
G36*
X46761Y382124D02*
X45245D01*
X43845Y381544D01*
X42773Y380473D01*
X42193Y379072D01*
Y377556D01*
X42773Y376156D01*
X43845Y375084D01*
X45245Y374504D01*
X46761D01*
X48161Y375084D01*
X49233Y376156D01*
X49813Y377556D01*
Y379072D01*
X49233Y380473D01*
X48161Y381544D01*
X46761Y382124D01*
D02*
G37*
G36*
X325780Y371738D02*
X324265D01*
X322864Y371158D01*
X321793Y370086D01*
X321213Y368686D01*
Y367170D01*
X321793Y365770D01*
X322864Y364698D01*
X324265Y364118D01*
X325780D01*
X327181Y364698D01*
X328253Y365770D01*
X328833Y367170D01*
Y368686D01*
X328253Y370086D01*
X327181Y371158D01*
X325780Y371738D01*
D02*
G37*
G36*
X64397Y369537D02*
X62897D01*
X61511Y368963D01*
X60451Y367902D01*
X59877Y366517D01*
Y365017D01*
X60451Y363631D01*
X61511Y362571D01*
X62897Y361997D01*
X64397D01*
X65782Y362571D01*
X66843Y363631D01*
X67417Y365017D01*
Y366517D01*
X66843Y367902D01*
X65782Y368963D01*
X64397Y369537D01*
D02*
G37*
G36*
X411273Y367308D02*
X409757D01*
X408357Y366728D01*
X407285Y365656D01*
X406705Y364256D01*
Y362740D01*
X407285Y361340D01*
X408357Y360268D01*
X409757Y359688D01*
X411273D01*
X412673Y360268D01*
X413745Y361340D01*
X414325Y362740D01*
Y364256D01*
X413745Y365656D01*
X412673Y366728D01*
X411273Y367308D01*
D02*
G37*
G36*
X747082Y365389D02*
X745566D01*
X744166Y364809D01*
X743094Y363737D01*
X742514Y362337D01*
Y360821D01*
X743094Y359421D01*
X744166Y358349D01*
X745566Y357769D01*
X747082D01*
X748483Y358349D01*
X749554Y359421D01*
X750134Y360821D01*
Y362337D01*
X749554Y363737D01*
X748483Y364809D01*
X747082Y365389D01*
D02*
G37*
G36*
X291242Y365090D02*
X289643D01*
X288165Y364478D01*
X287035Y363347D01*
X286423Y361869D01*
Y360270D01*
X287035Y358792D01*
X288165Y357662D01*
X289643Y357050D01*
X291242D01*
X292720Y357662D01*
X293851Y358792D01*
X294463Y360270D01*
Y361869D01*
X293851Y363347D01*
X292720Y364478D01*
X291242Y365090D01*
D02*
G37*
G36*
X281242D02*
X279643D01*
X278165Y364478D01*
X277035Y363347D01*
X276423Y361869D01*
Y360270D01*
X277035Y358792D01*
X278165Y357662D01*
X279643Y357050D01*
X281242D01*
X282720Y357662D01*
X283851Y358792D01*
X284463Y360270D01*
Y361869D01*
X283851Y363347D01*
X282720Y364478D01*
X281242Y365090D01*
D02*
G37*
G36*
X262007D02*
X260408D01*
X258930Y364478D01*
X257799Y363347D01*
X257187Y361869D01*
Y360270D01*
X257799Y358792D01*
X258930Y357662D01*
X260408Y357050D01*
X262007D01*
X263484Y357662D01*
X264615Y358792D01*
X265227Y360270D01*
Y361869D01*
X264615Y363347D01*
X263484Y364478D01*
X262007Y365090D01*
D02*
G37*
G36*
X252007D02*
X250408D01*
X248930Y364478D01*
X247799Y363347D01*
X247187Y361869D01*
Y360270D01*
X247799Y358792D01*
X248930Y357662D01*
X250408Y357050D01*
X252007D01*
X253484Y357662D01*
X254615Y358792D01*
X255227Y360270D01*
Y361869D01*
X254615Y363347D01*
X253484Y364478D01*
X252007Y365090D01*
D02*
G37*
G36*
X672485Y354801D02*
X670969D01*
X669569Y354221D01*
X669094Y353747D01*
X668265Y353280D01*
X667435Y353747D01*
X666961Y354221D01*
X665560Y354801D01*
X664044D01*
X662644Y354221D01*
X661572Y353149D01*
X660992Y351749D01*
Y350233D01*
X661572Y348833D01*
X662644Y347761D01*
X664044Y347181D01*
X665560D01*
X666961Y347761D01*
X667435Y348236D01*
X668265Y348702D01*
X669094Y348236D01*
X669569Y347761D01*
X670969Y347181D01*
X672485D01*
X673885Y347761D01*
X674957Y348833D01*
X675537Y350233D01*
Y351749D01*
X674957Y353149D01*
X673885Y354221D01*
X672485Y354801D01*
D02*
G37*
G36*
X325780Y359880D02*
X324265D01*
X322864Y359300D01*
X321793Y358228D01*
X321213Y356828D01*
Y355312D01*
X321793Y353911D01*
X322864Y352840D01*
X324265Y352260D01*
X325780D01*
X327181Y352840D01*
X328253Y353911D01*
X328833Y355312D01*
Y356828D01*
X328253Y358228D01*
X327181Y359300D01*
X325780Y359880D01*
D02*
G37*
G36*
X199040Y359179D02*
X197525D01*
X196124Y358598D01*
X195053Y357527D01*
X194473Y356126D01*
Y354611D01*
X195053Y353210D01*
X196124Y352138D01*
X197525Y351558D01*
X199040D01*
X200441Y352138D01*
X201513Y353210D01*
X202093Y354611D01*
Y356126D01*
X201513Y357527D01*
X200441Y358598D01*
X199040Y359179D01*
D02*
G37*
G36*
X417700Y358791D02*
X416185D01*
X414784Y358211D01*
X413713Y357140D01*
X413133Y355739D01*
Y354224D01*
X413713Y352823D01*
X414784Y351751D01*
X416185Y351171D01*
X417700D01*
X419101Y351751D01*
X420173Y352823D01*
X420752Y354224D01*
Y355739D01*
X420173Y357140D01*
X419101Y358211D01*
X417700Y358791D01*
D02*
G37*
G36*
X732595Y358112D02*
X731079D01*
X729679Y357533D01*
X728607Y356461D01*
X728027Y355060D01*
Y353545D01*
X728607Y352144D01*
X729679Y351073D01*
X731079Y350493D01*
X732595D01*
X733996Y351073D01*
X735067Y352144D01*
X735647Y353545D01*
Y355060D01*
X735067Y356461D01*
X733996Y357533D01*
X732595Y358112D01*
D02*
G37*
G36*
X53658Y356238D02*
X52142D01*
X50742Y355658D01*
X49670Y354586D01*
X49090Y353186D01*
Y351670D01*
X49670Y350270D01*
X50742Y349198D01*
X52142Y348618D01*
X53658D01*
X55058Y349198D01*
X56130Y350270D01*
X56710Y351670D01*
Y353186D01*
X56130Y354586D01*
X55058Y355658D01*
X53658Y356238D01*
D02*
G37*
G36*
X716142Y354867D02*
X714627D01*
X713226Y354287D01*
X712154Y353215D01*
X711574Y351815D01*
Y350299D01*
X712154Y348899D01*
X713226Y347827D01*
X714627Y347247D01*
X716142D01*
X717543Y347827D01*
X718614Y348899D01*
X719194Y350299D01*
Y351815D01*
X718614Y353215D01*
X717543Y354287D01*
X716142Y354867D01*
D02*
G37*
G36*
X291242Y355090D02*
X289643D01*
X288165Y354478D01*
X287035Y353347D01*
X286423Y351869D01*
Y350270D01*
X287035Y348792D01*
X288165Y347662D01*
X289643Y347050D01*
X291242D01*
X292720Y347662D01*
X293851Y348792D01*
X294463Y350270D01*
Y351869D01*
X293851Y353347D01*
X292720Y354478D01*
X291242Y355090D01*
D02*
G37*
G36*
X281242D02*
X279643D01*
X278165Y354478D01*
X277035Y353347D01*
X276423Y351869D01*
Y350270D01*
X277035Y348792D01*
X278165Y347662D01*
X279643Y347050D01*
X281242D01*
X282720Y347662D01*
X283851Y348792D01*
X284463Y350270D01*
Y351869D01*
X283851Y353347D01*
X282720Y354478D01*
X281242Y355090D01*
D02*
G37*
G36*
X262007D02*
X260408D01*
X258930Y354478D01*
X257799Y353347D01*
X257187Y351869D01*
Y350270D01*
X257799Y348792D01*
X258930Y347662D01*
X260408Y347050D01*
X262007D01*
X263484Y347662D01*
X264615Y348792D01*
X265227Y350270D01*
Y351869D01*
X264615Y353347D01*
X263484Y354478D01*
X262007Y355090D01*
D02*
G37*
G36*
X252007D02*
X250408D01*
X248930Y354478D01*
X247799Y353347D01*
X247187Y351869D01*
Y350270D01*
X247799Y348792D01*
X248930Y347662D01*
X250408Y347050D01*
X252007D01*
X253484Y347662D01*
X254615Y348792D01*
X255227Y350270D01*
Y351869D01*
X254615Y353347D01*
X253484Y354478D01*
X252007Y355090D01*
D02*
G37*
G36*
X428725Y353534D02*
X427209D01*
X425809Y352954D01*
X424737Y351882D01*
X424157Y350482D01*
Y348966D01*
X424737Y347566D01*
X425809Y346494D01*
X427209Y345914D01*
X428725D01*
X430125Y346494D01*
X431197Y347566D01*
X431777Y348966D01*
Y350482D01*
X431197Y351882D01*
X430125Y352954D01*
X428725Y353534D01*
D02*
G37*
G36*
X141034Y347738D02*
X139518D01*
X138118Y347158D01*
X137046Y346086D01*
X136466Y344686D01*
Y343170D01*
X137046Y341770D01*
X138118Y340698D01*
X139518Y340118D01*
X141034D01*
X142434Y340698D01*
X143506Y341770D01*
X144086Y343170D01*
Y344686D01*
X143506Y346086D01*
X142434Y347158D01*
X141034Y347738D01*
D02*
G37*
G36*
X636320Y345029D02*
X634805D01*
X633404Y344449D01*
X632332Y343377D01*
X631753Y341977D01*
Y340461D01*
X632332Y339061D01*
X633404Y337989D01*
X634805Y337409D01*
X636320D01*
X637721Y337989D01*
X638792Y339061D01*
X639372Y340461D01*
Y341977D01*
X638792Y343377D01*
X637721Y344449D01*
X636320Y345029D01*
D02*
G37*
G36*
X794917Y341918D02*
X793401D01*
X792001Y341338D01*
X790929Y340266D01*
X790349Y338866D01*
Y337351D01*
X790929Y335950D01*
X792001Y334878D01*
X793401Y334298D01*
X794917D01*
X796318Y334878D01*
X797389Y335950D01*
X797969Y337351D01*
Y338866D01*
X797389Y340266D01*
X796318Y341338D01*
X794917Y341918D01*
D02*
G37*
G36*
X813954Y348042D02*
X811480D01*
X809090Y347402D01*
X806946Y346164D01*
X805197Y344415D01*
X803960Y342272D01*
X803319Y339881D01*
Y337407D01*
X803960Y335017D01*
X805197Y332874D01*
X806946Y331124D01*
X809090Y329887D01*
X811480Y329246D01*
X813954D01*
X816345Y329887D01*
X818488Y331124D01*
X820237Y332874D01*
X821475Y335017D01*
X822115Y337407D01*
Y339881D01*
X821475Y342272D01*
X820237Y344415D01*
X818488Y346164D01*
X816345Y347402D01*
X813954Y348042D01*
D02*
G37*
G36*
X130336Y336055D02*
X128820D01*
X127420Y335475D01*
X126348Y334403D01*
X125768Y333003D01*
Y331487D01*
X126348Y330087D01*
X127420Y329015D01*
X128820Y328435D01*
X130336D01*
X131736Y329015D01*
X132808Y330087D01*
X133388Y331487D01*
Y333003D01*
X132808Y334403D01*
X131736Y335475D01*
X130336Y336055D01*
D02*
G37*
G36*
X53769Y335738D02*
X52254D01*
X50853Y335158D01*
X49781Y334086D01*
X49201Y332686D01*
Y331170D01*
X49781Y329770D01*
X50853Y328698D01*
X52254Y328118D01*
X53769D01*
X55170Y328698D01*
X56241Y329770D01*
X56821Y331170D01*
Y332686D01*
X56241Y334086D01*
X55170Y335158D01*
X53769Y335738D01*
D02*
G37*
G36*
X410700Y335518D02*
X409185D01*
X407784Y334938D01*
X406713Y333867D01*
X406133Y332466D01*
Y330951D01*
X406713Y329550D01*
X407784Y328479D01*
X409185Y327898D01*
X410700D01*
X412101Y328479D01*
X413172Y329550D01*
X413753Y330951D01*
Y332466D01*
X413172Y333867D01*
X412101Y334938D01*
X410700Y335518D01*
D02*
G37*
G36*
X423900Y333291D02*
X422385D01*
X420984Y332711D01*
X419912Y331639D01*
X419333Y330239D01*
Y328723D01*
X419912Y327323D01*
X420984Y326251D01*
X422385Y325671D01*
X423900D01*
X425301Y326251D01*
X426372Y327323D01*
X426953Y328723D01*
Y330239D01*
X426372Y331639D01*
X425301Y332711D01*
X423900Y333291D01*
D02*
G37*
G36*
X596544Y323369D02*
X595029D01*
X593628Y322789D01*
X592742Y321903D01*
X591856Y322789D01*
X590456Y323369D01*
X588940D01*
X587540Y322789D01*
X586468Y321717D01*
X585888Y320317D01*
Y318801D01*
X586468Y317401D01*
X587540Y316329D01*
X588940Y315749D01*
X590456D01*
X591856Y316329D01*
X592742Y317215D01*
X593628Y316329D01*
X595029Y315749D01*
X596544D01*
X597945Y316329D01*
X599017Y317401D01*
X599597Y318801D01*
Y320317D01*
X599017Y321717D01*
X597945Y322789D01*
X596544Y323369D01*
D02*
G37*
G36*
X241229Y329081D02*
X239713D01*
X238312Y328501D01*
X237241Y327429D01*
X236661Y326028D01*
Y324513D01*
X237241Y323112D01*
X238312Y322041D01*
X239713Y321460D01*
X241229D01*
X242629Y322041D01*
X243701Y323112D01*
X244281Y324513D01*
Y326028D01*
X243701Y327429D01*
X242629Y328501D01*
X241229Y329081D01*
D02*
G37*
G36*
X329010Y323738D02*
X327495D01*
X326094Y323158D01*
X325023Y322086D01*
X324443Y320686D01*
Y319170D01*
X325023Y317770D01*
X326094Y316698D01*
X327495Y316118D01*
X329010D01*
X330411Y316698D01*
X331483Y317770D01*
X332063Y319170D01*
Y320686D01*
X331483Y322086D01*
X330411Y323158D01*
X329010Y323738D01*
D02*
G37*
G36*
X246968Y320382D02*
X245453D01*
X244052Y319802D01*
X242980Y318730D01*
X242400Y317330D01*
Y315814D01*
X242980Y314414D01*
X244052Y313342D01*
X245453Y312762D01*
X246968D01*
X248369Y313342D01*
X249440Y314414D01*
X250021Y315814D01*
Y317330D01*
X249440Y318730D01*
X248369Y319802D01*
X246968Y320382D01*
D02*
G37*
G36*
X143113Y318830D02*
X141597D01*
X140197Y318250D01*
X139125Y317178D01*
X138545Y315778D01*
Y314262D01*
X139125Y312862D01*
X140197Y311790D01*
X141597Y311210D01*
X143113D01*
X144513Y311790D01*
X145585Y312862D01*
X146165Y314262D01*
Y315778D01*
X145585Y317178D01*
X144513Y318250D01*
X143113Y318830D01*
D02*
G37*
G36*
X96997Y318675D02*
X95497D01*
X94111Y318101D01*
X93051Y317041D01*
X92477Y315655D01*
Y314155D01*
X93051Y312770D01*
X94111Y311709D01*
X95497Y311135D01*
X96997D01*
X98382Y311709D01*
X99443Y312770D01*
X100017Y314155D01*
Y315655D01*
X99443Y317041D01*
X98382Y318101D01*
X96997Y318675D01*
D02*
G37*
G36*
X65835Y318130D02*
X64335D01*
X62950Y317556D01*
X61889Y316495D01*
X61315Y315110D01*
Y313610D01*
X61889Y312224D01*
X62950Y311164D01*
X64335Y310590D01*
X65835D01*
X67221Y311164D01*
X68281Y312224D01*
X68855Y313610D01*
Y315110D01*
X68281Y316495D01*
X67221Y317556D01*
X65835Y318130D01*
D02*
G37*
G36*
X209548Y316176D02*
X208033D01*
X206632Y315596D01*
X205560Y314524D01*
X204980Y313124D01*
Y311608D01*
X205560Y310208D01*
X206632Y309136D01*
X208033Y308556D01*
X209548D01*
X210949Y309136D01*
X212020Y310208D01*
X212600Y311608D01*
Y313124D01*
X212020Y314524D01*
X210949Y315596D01*
X209548Y316176D01*
D02*
G37*
G36*
X407373Y326338D02*
X404898D01*
X402508Y325698D01*
X400365Y324460D01*
X398615Y322711D01*
X397378Y320568D01*
X396738Y318177D01*
Y315703D01*
X397378Y313313D01*
X398615Y311170D01*
X400365Y309420D01*
X402508Y308183D01*
X404898Y307542D01*
X407373D01*
X409763Y308183D01*
X411906Y309420D01*
X413656Y311170D01*
X414893Y313313D01*
X415534Y315703D01*
Y318177D01*
X414893Y320568D01*
X413656Y322711D01*
X411906Y324460D01*
X409763Y325698D01*
X407373Y326338D01*
D02*
G37*
G36*
X435513Y324462D02*
X433038D01*
X430648Y323822D01*
X428505Y322584D01*
X426755Y320835D01*
X425518Y318692D01*
X424877Y316301D01*
Y313827D01*
X425518Y311437D01*
X426755Y309294D01*
X428505Y307544D01*
X430648Y306307D01*
X433038Y305666D01*
X435513D01*
X437903Y306307D01*
X440046Y307544D01*
X441796Y309294D01*
X443033Y311437D01*
X443673Y313827D01*
Y316301D01*
X443033Y318692D01*
X441796Y320835D01*
X440046Y322584D01*
X437903Y323822D01*
X435513Y324462D01*
D02*
G37*
G36*
X356672Y309326D02*
X355157D01*
X353756Y308746D01*
X352684Y307674D01*
X352104Y306274D01*
Y304758D01*
X352684Y303358D01*
X353756Y302286D01*
X355157Y301706D01*
X356672D01*
X358073Y302286D01*
X359144Y303358D01*
X359724Y304758D01*
Y306274D01*
X359144Y307674D01*
X358073Y308746D01*
X356672Y309326D01*
D02*
G37*
G36*
X398641Y305372D02*
X397141D01*
X395755Y304798D01*
X394695Y303738D01*
X394121Y302352D01*
Y300852D01*
X394695Y299467D01*
X395755Y298406D01*
X397141Y297832D01*
X398641D01*
X400027Y298406D01*
X401087Y299467D01*
X401661Y300852D01*
Y302352D01*
X401087Y303738D01*
X400027Y304798D01*
X398641Y305372D01*
D02*
G37*
G36*
X793380Y304255D02*
X791864D01*
X790463Y303675D01*
X789392Y302603D01*
X788812Y301203D01*
Y299688D01*
X789392Y298287D01*
X790463Y297215D01*
X791864Y296635D01*
X793380D01*
X794780Y297215D01*
X795852Y298287D01*
X796432Y299688D01*
Y301203D01*
X795852Y302603D01*
X794780Y303675D01*
X793380Y304255D01*
D02*
G37*
G36*
X64424Y302930D02*
X62909D01*
X61508Y302350D01*
X60437Y301278D01*
X59857Y299878D01*
Y298362D01*
X60437Y296962D01*
X61508Y295890D01*
X62909Y295310D01*
X64424D01*
X65825Y295890D01*
X66897Y296962D01*
X67477Y298362D01*
Y299878D01*
X66897Y301278D01*
X65825Y302350D01*
X64424Y302930D01*
D02*
G37*
G36*
X111293Y301236D02*
X109778D01*
X108378Y300656D01*
X107306Y299584D01*
X106726Y298184D01*
Y296668D01*
X107306Y295268D01*
X108378Y294196D01*
X109778Y293616D01*
X111293D01*
X112694Y294196D01*
X113766Y295268D01*
X114346Y296668D01*
Y298184D01*
X113766Y299584D01*
X112694Y300656D01*
X111293Y301236D01*
D02*
G37*
G36*
X744702Y300940D02*
X743187D01*
X741786Y300360D01*
X740715Y299288D01*
X740135Y297888D01*
Y296372D01*
X740715Y294972D01*
X741786Y293900D01*
X743187Y293320D01*
X744702D01*
X746103Y293900D01*
X747175Y294972D01*
X747755Y296372D01*
Y297888D01*
X747175Y299288D01*
X746103Y300360D01*
X744702Y300940D01*
D02*
G37*
G36*
X815224Y310338D02*
X812750D01*
X810359Y309698D01*
X808216Y308461D01*
X806467Y306711D01*
X805229Y304568D01*
X804589Y302178D01*
Y299703D01*
X805229Y297313D01*
X806467Y295170D01*
X808216Y293420D01*
X810359Y292183D01*
X812750Y291542D01*
X815224D01*
X817615Y292183D01*
X819758Y293420D01*
X821507Y295170D01*
X822745Y297313D01*
X823385Y299703D01*
Y302178D01*
X822745Y304568D01*
X821507Y306711D01*
X819758Y308461D01*
X817615Y309698D01*
X815224Y310338D01*
D02*
G37*
G36*
X337772Y298800D02*
X336273D01*
X334887Y298226D01*
X333826Y297165D01*
X333253Y295780D01*
Y294280D01*
X333826Y292894D01*
X334887Y291834D01*
X336273Y291260D01*
X337772D01*
X339158Y291834D01*
X340219Y292894D01*
X340793Y294280D01*
Y295780D01*
X340219Y297165D01*
X339158Y298226D01*
X337772Y298800D01*
D02*
G37*
G36*
X639629Y303914D02*
X638129D01*
X636744Y303340D01*
X635683Y302279D01*
X635109Y300894D01*
Y299394D01*
X635683Y298008D01*
X636744Y296948D01*
X637025Y296831D01*
Y295457D01*
X636744Y295340D01*
X635683Y294279D01*
X635109Y292894D01*
Y291394D01*
X635683Y290008D01*
X636744Y288948D01*
X638129Y288374D01*
X639629D01*
X641015Y288948D01*
X642075Y290008D01*
X642649Y291394D01*
Y292894D01*
X642075Y294279D01*
X641015Y295340D01*
X640733Y295457D01*
Y296831D01*
X641015Y296948D01*
X642075Y298008D01*
X642649Y299394D01*
Y300894D01*
X642075Y302279D01*
X641015Y303340D01*
X639629Y303914D01*
D02*
G37*
G36*
X286201Y293342D02*
X284685D01*
X283284Y292762D01*
X282213Y291690D01*
X281633Y290290D01*
Y288774D01*
X282213Y287374D01*
X283284Y286302D01*
X284685Y285722D01*
X286201D01*
X287601Y286302D01*
X288673Y287374D01*
X289253Y288774D01*
Y290290D01*
X288673Y291690D01*
X287601Y292762D01*
X286201Y293342D01*
D02*
G37*
G36*
X617015Y301621D02*
X615499D01*
X614099Y301042D01*
X613027Y299970D01*
X612447Y298569D01*
Y297054D01*
X613027Y295653D01*
X613440Y295241D01*
X614076Y294546D01*
X613440Y293581D01*
X613161Y293302D01*
X612581Y291902D01*
Y290386D01*
X613161Y288986D01*
X614233Y287914D01*
X615633Y287334D01*
X617149D01*
X617605Y287029D01*
Y286219D01*
X618185Y284818D01*
X619257Y283746D01*
X620657Y283166D01*
X622173D01*
X623573Y283746D01*
X624645Y284818D01*
X625225Y286219D01*
Y287734D01*
X624645Y289135D01*
X623573Y290206D01*
X622173Y290786D01*
X620657D01*
X620201Y291091D01*
Y291902D01*
X619621Y293302D01*
X619208Y293715D01*
X618573Y294410D01*
X619208Y295374D01*
X619487Y295653D01*
X620067Y297054D01*
Y298569D01*
X619487Y299970D01*
X618415Y301042D01*
X617015Y301621D01*
D02*
G37*
G36*
X64406Y289534D02*
X62891D01*
X61490Y288954D01*
X60419Y287882D01*
X59839Y286482D01*
Y284966D01*
X60419Y283566D01*
X61490Y282494D01*
X62891Y281914D01*
X64406D01*
X65807Y282494D01*
X66878Y283566D01*
X67459Y284966D01*
Y286482D01*
X66878Y287882D01*
X65807Y288954D01*
X64406Y289534D01*
D02*
G37*
G36*
X337701Y287804D02*
X336202D01*
X334816Y287230D01*
X333755Y286170D01*
X333181Y284784D01*
Y283284D01*
X333755Y281899D01*
X334816Y280838D01*
X336202Y280264D01*
X337701D01*
X339087Y280838D01*
X340148Y281899D01*
X340721Y283284D01*
Y284784D01*
X340148Y286170D01*
X339087Y287230D01*
X337701Y287804D01*
D02*
G37*
G36*
X446156Y287454D02*
X444640D01*
X443240Y286874D01*
X442168Y285802D01*
X441588Y284402D01*
Y282886D01*
X442168Y281486D01*
X443240Y280414D01*
X444640Y279834D01*
X446156D01*
X447556Y280414D01*
X448628Y281486D01*
X449208Y282886D01*
Y284402D01*
X448628Y285802D01*
X447556Y286874D01*
X446156Y287454D01*
D02*
G37*
G36*
X142883Y285408D02*
X141367D01*
X139967Y284828D01*
X138895Y283756D01*
X138315Y282356D01*
Y280840D01*
X138895Y279440D01*
X139967Y278368D01*
X141367Y277788D01*
X142883D01*
X144283Y278368D01*
X145355Y279440D01*
X145935Y280840D01*
Y282356D01*
X145355Y283756D01*
X144283Y284828D01*
X142883Y285408D01*
D02*
G37*
G36*
X600166Y291532D02*
X597691D01*
X595301Y290892D01*
X593158Y289654D01*
X591408Y287905D01*
X590171Y285762D01*
X589531Y283371D01*
Y280897D01*
X590171Y278507D01*
X591408Y276364D01*
X593158Y274614D01*
X595301Y273377D01*
X597691Y272736D01*
X600166D01*
X602556Y273377D01*
X604699Y274614D01*
X606449Y276364D01*
X607686Y278507D01*
X608327Y280897D01*
Y283371D01*
X607686Y285762D01*
X606449Y287905D01*
X604699Y289654D01*
X602556Y290892D01*
X600166Y291532D01*
D02*
G37*
G36*
X155200Y278810D02*
X153684D01*
X152283Y278230D01*
X151212Y277158D01*
X150632Y275758D01*
Y274242D01*
X151212Y272842D01*
X152283Y271770D01*
X153684Y271190D01*
X155200D01*
X156600Y271770D01*
X157672Y272842D01*
X158252Y274242D01*
Y275758D01*
X157672Y277158D01*
X156600Y278230D01*
X155200Y278810D01*
D02*
G37*
G36*
X163378Y272934D02*
X161862D01*
X160462Y272354D01*
X159390Y271283D01*
X158810Y269882D01*
Y268366D01*
X159390Y266966D01*
X160462Y265894D01*
X161862Y265314D01*
X163378D01*
X164778Y265894D01*
X165850Y266966D01*
X166430Y268366D01*
Y269882D01*
X165850Y271283D01*
X164778Y272354D01*
X163378Y272934D01*
D02*
G37*
G36*
X617698Y270449D02*
X616183D01*
X614782Y269869D01*
X613711Y268798D01*
X613130Y267397D01*
Y265882D01*
X613711Y264481D01*
X614782Y263409D01*
X616183Y262829D01*
X617698D01*
X619099Y263409D01*
X620170Y264481D01*
X620750Y265882D01*
Y267397D01*
X620170Y268798D01*
X619099Y269869D01*
X617698Y270449D01*
D02*
G37*
G36*
X596176D02*
X594660D01*
X593260Y269869D01*
X592188Y268798D01*
X591608Y267397D01*
Y265882D01*
X592188Y264481D01*
X593260Y263409D01*
X594660Y262829D01*
X596176D01*
X597576Y263409D01*
X598648Y264481D01*
X599228Y265882D01*
Y267397D01*
X598648Y268798D01*
X597576Y269869D01*
X596176Y270449D01*
D02*
G37*
G36*
X326342Y264539D02*
X324827D01*
X323426Y263959D01*
X322354Y262887D01*
X321774Y261487D01*
Y259971D01*
X322354Y258571D01*
X323426Y257499D01*
X324827Y256919D01*
X326342D01*
X327743Y257499D01*
X328814Y258571D01*
X329394Y259971D01*
Y261487D01*
X328814Y262887D01*
X327743Y263959D01*
X326342Y264539D01*
D02*
G37*
G36*
X253579Y263204D02*
X252079D01*
X250693Y262630D01*
X249633Y261569D01*
X249059Y260183D01*
Y258684D01*
X249633Y257298D01*
X250693Y256238D01*
X252079Y255664D01*
X253579D01*
X254964Y256238D01*
X256025Y257298D01*
X256599Y258684D01*
Y260183D01*
X256025Y261569D01*
X254964Y262630D01*
X253579Y263204D01*
D02*
G37*
G36*
X138476Y273773D02*
X136001D01*
X133611Y273132D01*
X131468Y271895D01*
X129718Y270145D01*
X128481Y268002D01*
X127840Y265612D01*
Y263137D01*
X128481Y260747D01*
X129718Y258604D01*
X131468Y256854D01*
X133611Y255617D01*
X136001Y254977D01*
X138476D01*
X140866Y255617D01*
X143009Y256854D01*
X144759Y258604D01*
X145996Y260747D01*
X146636Y263137D01*
Y265612D01*
X145996Y268002D01*
X144759Y270145D01*
X143009Y271895D01*
X140866Y273132D01*
X138476Y273773D01*
D02*
G37*
G36*
X62795Y254125D02*
X61279D01*
X59879Y253545D01*
X58807Y252473D01*
X58227Y251073D01*
Y249557D01*
X58807Y248157D01*
X59879Y247085D01*
X61279Y246505D01*
X62795D01*
X64195Y247085D01*
X65267Y248157D01*
X65847Y249557D01*
Y251073D01*
X65267Y252473D01*
X64195Y253545D01*
X62795Y254125D01*
D02*
G37*
G36*
X164592Y249869D02*
X163076D01*
X161676Y249289D01*
X160604Y248217D01*
X160024Y246817D01*
Y245301D01*
X160604Y243901D01*
X161676Y242829D01*
X163076Y242249D01*
X164592D01*
X165992Y242829D01*
X167064Y243901D01*
X167644Y245301D01*
Y246817D01*
X167064Y248217D01*
X165992Y249289D01*
X164592Y249869D01*
D02*
G37*
G36*
X333250Y248943D02*
X331750D01*
X330364Y248369D01*
X329304Y247308D01*
X328730Y245923D01*
Y244423D01*
X329304Y243037D01*
X330364Y241977D01*
X331750Y241403D01*
X333250D01*
X334636Y241977D01*
X335696Y243037D01*
X336270Y244423D01*
Y245923D01*
X335696Y247308D01*
X334636Y248369D01*
X333250Y248943D01*
D02*
G37*
G36*
X247102Y243417D02*
X245586D01*
X244186Y242837D01*
X243114Y241765D01*
X242534Y240364D01*
Y238849D01*
X243114Y237449D01*
X244186Y236377D01*
X245586Y235797D01*
X247102D01*
X248502Y236377D01*
X249574Y237449D01*
X250154Y238849D01*
Y240364D01*
X249574Y241765D01*
X248502Y242837D01*
X247102Y243417D01*
D02*
G37*
G36*
X612196Y254191D02*
X609721D01*
X607331Y253550D01*
X605188Y252313D01*
X603438Y250563D01*
X602201Y248420D01*
X601560Y246030D01*
Y243555D01*
X602201Y241165D01*
X603438Y239022D01*
X605188Y237272D01*
X607331Y236035D01*
X609721Y235394D01*
X612196D01*
X614586Y236035D01*
X616729Y237272D01*
X618479Y239022D01*
X619716Y241165D01*
X620356Y243555D01*
Y246030D01*
X619716Y248420D01*
X618479Y250563D01*
X616729Y252313D01*
X614586Y253550D01*
X612196Y254191D01*
D02*
G37*
G36*
X150667Y244121D02*
X148193D01*
X145802Y243480D01*
X143659Y242243D01*
X141910Y240493D01*
X140672Y238350D01*
X140032Y235960D01*
Y233486D01*
X140672Y231095D01*
X141910Y228952D01*
X143659Y227202D01*
X145802Y225965D01*
X148193Y225325D01*
X150667D01*
X153057Y225965D01*
X155201Y227202D01*
X156950Y228952D01*
X158188Y231095D01*
X158828Y233486D01*
Y235960D01*
X158188Y238350D01*
X156950Y240493D01*
X155201Y242243D01*
X153057Y243480D01*
X150667Y244121D01*
D02*
G37*
G36*
X179894Y228174D02*
X178378D01*
X176978Y227594D01*
X175906Y226522D01*
X175326Y225122D01*
Y223606D01*
X175906Y222206D01*
X176978Y221134D01*
X178378Y220554D01*
X179894D01*
X181294Y221134D01*
X182366Y222206D01*
X182946Y223606D01*
Y225122D01*
X182366Y226522D01*
X181294Y227594D01*
X179894Y228174D01*
D02*
G37*
G36*
X121333Y225564D02*
X119833D01*
X118447Y224991D01*
X117387Y223930D01*
X116813Y222544D01*
Y221045D01*
X117387Y219659D01*
X118447Y218598D01*
X119833Y218024D01*
X121333D01*
X122718Y218598D01*
X123779Y219659D01*
X124353Y221045D01*
Y222544D01*
X123779Y223930D01*
X122718Y224991D01*
X121333Y225564D01*
D02*
G37*
G36*
X757494Y223615D02*
X755979D01*
X754578Y223035D01*
X753507Y221963D01*
X752927Y220563D01*
Y219047D01*
X753507Y217647D01*
X754578Y216575D01*
X755979Y215995D01*
X757494D01*
X758895Y216575D01*
X759967Y217647D01*
X760547Y219047D01*
Y220563D01*
X759967Y221963D01*
X758895Y223035D01*
X757494Y223615D01*
D02*
G37*
G36*
X139123Y223572D02*
X137608D01*
X136207Y222992D01*
X135136Y221921D01*
X134556Y220520D01*
Y219005D01*
X135136Y217604D01*
X136207Y216532D01*
X137608Y215952D01*
X139123D01*
X140524Y216532D01*
X141596Y217604D01*
X142176Y219005D01*
Y220520D01*
X141596Y221921D01*
X140524Y222992D01*
X139123Y223572D01*
D02*
G37*
G36*
X788531Y223489D02*
X787015D01*
X785615Y222908D01*
X784543Y221837D01*
X783963Y220436D01*
Y218921D01*
X784543Y217520D01*
X785615Y216448D01*
X787015Y215868D01*
X788531D01*
X789931Y216448D01*
X791003Y217520D01*
X791583Y218921D01*
Y220436D01*
X791003Y221837D01*
X789931Y222908D01*
X788531Y223489D01*
D02*
G37*
G36*
X428836Y234573D02*
X406296D01*
Y212033D01*
X428836D01*
Y234573D01*
D02*
G37*
G36*
X303342Y222016D02*
X301826D01*
X300426Y221436D01*
X299354Y220364D01*
X298774Y218964D01*
Y217449D01*
X299354Y216048D01*
X300426Y214976D01*
X301826Y214396D01*
X303342D01*
X304743Y214976D01*
X304863Y215097D01*
X305854Y214424D01*
X305274Y213024D01*
Y211508D01*
X305854Y210108D01*
X306926Y209036D01*
X308326Y208456D01*
X309842D01*
X311243Y209036D01*
X312314Y210108D01*
X312894Y211508D01*
Y213024D01*
X312314Y214424D01*
X311243Y215496D01*
X309842Y216076D01*
X308326D01*
X306926Y215496D01*
X306806Y215375D01*
X305814Y216048D01*
X306394Y217449D01*
Y218964D01*
X305814Y220364D01*
X304743Y221436D01*
X303342Y222016D01*
D02*
G37*
G36*
X253409Y209262D02*
X251909D01*
X250523Y208689D01*
X249463Y207628D01*
X248889Y206242D01*
Y204743D01*
X249463Y203357D01*
X250523Y202296D01*
X251909Y201722D01*
X253409D01*
X254794Y202296D01*
X255855Y203357D01*
X256429Y204743D01*
Y206242D01*
X255855Y207628D01*
X254794Y208689D01*
X253409Y209262D01*
D02*
G37*
G36*
X807968Y197060D02*
X806452D01*
X805051Y196480D01*
X803980Y195408D01*
X803400Y194008D01*
Y192492D01*
X803980Y191092D01*
X805051Y190020D01*
X806452Y189440D01*
X807968D01*
X809368Y190020D01*
X810440Y191092D01*
X811020Y192492D01*
Y194008D01*
X810440Y195408D01*
X809368Y196480D01*
X807968Y197060D01*
D02*
G37*
G36*
X666395Y192060D02*
X664879D01*
X663478Y191480D01*
X662407Y190408D01*
X661827Y189008D01*
Y187492D01*
X662407Y186092D01*
X663478Y185020D01*
X664879Y184440D01*
X666395D01*
X667795Y185020D01*
X668867Y186092D01*
X669447Y187492D01*
Y189008D01*
X668867Y190408D01*
X667795Y191480D01*
X666395Y192060D01*
D02*
G37*
G36*
X629553Y187957D02*
X628054D01*
X626668Y187383D01*
X625607Y186323D01*
X625033Y184937D01*
Y183438D01*
X625607Y182052D01*
X626668Y180991D01*
X628054Y180417D01*
X629553D01*
X630939Y180991D01*
X632000Y182052D01*
X632574Y183438D01*
Y184937D01*
X632000Y186323D01*
X630939Y187383D01*
X629553Y187957D01*
D02*
G37*
G36*
X164700Y183248D02*
X163200D01*
X161814Y182674D01*
X160754Y181614D01*
X160180Y180228D01*
Y178729D01*
X160754Y177343D01*
X161814Y176282D01*
X163200Y175708D01*
X164700D01*
X166085Y176282D01*
X167146Y177343D01*
X167720Y178729D01*
Y180228D01*
X167146Y181614D01*
X166085Y182674D01*
X164700Y183248D01*
D02*
G37*
G36*
X784395Y182269D02*
X782879D01*
X781478Y181689D01*
X780407Y180617D01*
X779827Y179217D01*
Y177701D01*
X780407Y176301D01*
X781478Y175229D01*
X782879Y174649D01*
X784395D01*
X785795Y175229D01*
X786867Y176301D01*
X787447Y177701D01*
Y179217D01*
X786867Y180617D01*
X785795Y181689D01*
X784395Y182269D01*
D02*
G37*
G36*
X688706Y173810D02*
X687191D01*
X685790Y173230D01*
X684719Y172158D01*
X684139Y170758D01*
Y169242D01*
X684719Y167842D01*
X685790Y166770D01*
X687191Y166190D01*
X688706D01*
X690107Y166770D01*
X691179Y167842D01*
X691759Y169242D01*
Y170758D01*
X691179Y172158D01*
X690107Y173230D01*
X688706Y173810D01*
D02*
G37*
G36*
X201488Y173273D02*
X199311D01*
X197207Y172710D01*
X195322Y171621D01*
X193782Y170081D01*
X192693Y168195D01*
X192129Y166092D01*
Y163914D01*
X192693Y161811D01*
X193782Y159925D01*
X195322Y158385D01*
X197207Y157297D01*
X199311Y156733D01*
X201488D01*
X203591Y157297D01*
X205477Y158385D01*
X207017Y159925D01*
X207678Y161071D01*
X208644Y161691D01*
X209347Y161535D01*
X210172Y161193D01*
X211688D01*
X213088Y161773D01*
X214160Y162845D01*
X214740Y164245D01*
Y165761D01*
X214160Y167161D01*
X213088Y168233D01*
X211688Y168813D01*
X210172D01*
X209347Y168471D01*
X208644Y168315D01*
X207678Y168936D01*
X207017Y170081D01*
X205477Y171621D01*
X203591Y172710D01*
X201488Y173273D01*
D02*
G37*
G36*
X171218Y168810D02*
X169702D01*
X168302Y168230D01*
X167230Y167158D01*
X166650Y165758D01*
Y164242D01*
X167230Y162842D01*
X168302Y161770D01*
X169702Y161190D01*
X171218D01*
X172618Y161770D01*
X173690Y162842D01*
X174270Y164242D01*
Y165758D01*
X173690Y167158D01*
X172618Y168230D01*
X171218Y168810D01*
D02*
G37*
G36*
X123604D02*
X122089D01*
X120688Y168230D01*
X119616Y167158D01*
X119036Y165758D01*
Y164242D01*
X119616Y162842D01*
X120688Y161770D01*
X122089Y161190D01*
X123604D01*
X125005Y161770D01*
X126076Y162842D01*
X126656Y164242D01*
Y165758D01*
X126076Y167158D01*
X125005Y168230D01*
X123604Y168810D01*
D02*
G37*
G36*
X153720Y173272D02*
X151543D01*
X149439Y172708D01*
X147554Y171620D01*
X146014Y170080D01*
X144925Y168194D01*
X144361Y166091D01*
Y163913D01*
X144925Y161810D01*
X146014Y159924D01*
X147554Y158385D01*
X149439Y157296D01*
X151543Y156732D01*
X153720D01*
X155823Y157296D01*
X157709Y158385D01*
X159249Y159924D01*
X160338Y161810D01*
X160901Y163913D01*
Y166091D01*
X160338Y168194D01*
X159249Y170080D01*
X157709Y171620D01*
X155823Y172708D01*
X153720Y173272D01*
D02*
G37*
G36*
X106124Y173270D02*
X103947D01*
X101844Y172706D01*
X99958Y171618D01*
X98418Y170078D01*
X97329Y168192D01*
X96766Y166089D01*
Y163911D01*
X97329Y161808D01*
X98418Y159922D01*
X99958Y158382D01*
X101844Y157294D01*
X103947Y156730D01*
X106124D01*
X108228Y157294D01*
X110114Y158382D01*
X111653Y159922D01*
X112742Y161808D01*
X113306Y163911D01*
Y166089D01*
X112742Y168192D01*
X111653Y170078D01*
X110114Y171618D01*
X108228Y172706D01*
X106124Y173270D01*
D02*
G37*
G36*
X643096Y144443D02*
X641580D01*
X640180Y143863D01*
X639108Y142792D01*
X638528Y141391D01*
Y139876D01*
X639108Y138475D01*
X640180Y137403D01*
X641580Y136823D01*
X643096D01*
X644496Y137403D01*
X645568Y138475D01*
X646148Y139876D01*
Y141391D01*
X645568Y142792D01*
X644496Y143863D01*
X643096Y144443D01*
D02*
G37*
G36*
X201488Y153273D02*
X199311D01*
X197207Y152710D01*
X195322Y151621D01*
X193782Y150081D01*
X192693Y148195D01*
X192129Y146092D01*
Y143914D01*
X192693Y141811D01*
X193782Y139925D01*
X195322Y138385D01*
X197207Y137297D01*
X199311Y136733D01*
X201488D01*
X203591Y137297D01*
X205477Y138385D01*
X207017Y139925D01*
X208106Y141811D01*
X208669Y143914D01*
Y146092D01*
X208106Y148195D01*
X207017Y150081D01*
X205477Y151621D01*
X203591Y152710D01*
X201488Y153273D01*
D02*
G37*
G36*
X153720Y153272D02*
X151543D01*
X149439Y152709D01*
X147554Y151620D01*
X146014Y150080D01*
X144925Y148194D01*
X144361Y146091D01*
Y143913D01*
X144925Y141810D01*
X146014Y139924D01*
X147554Y138385D01*
X149439Y137296D01*
X151543Y136732D01*
X153720D01*
X155823Y137296D01*
X157709Y138385D01*
X159249Y139924D01*
X160338Y141810D01*
X160901Y143913D01*
Y146091D01*
X160338Y148194D01*
X159249Y150080D01*
X157709Y151620D01*
X155823Y152709D01*
X153720Y153272D01*
D02*
G37*
G36*
X106124Y153270D02*
X103947D01*
X101844Y152706D01*
X99958Y151618D01*
X98418Y150078D01*
X97329Y148192D01*
X96766Y146089D01*
Y143911D01*
X97329Y141808D01*
X98418Y139922D01*
X99958Y138382D01*
X101844Y137294D01*
X103947Y136730D01*
X106124D01*
X108228Y137294D01*
X110114Y138382D01*
X111653Y139922D01*
X112742Y141808D01*
X113306Y143911D01*
Y146089D01*
X112742Y148192D01*
X111653Y150078D01*
X110114Y151618D01*
X108228Y152706D01*
X106124Y153270D01*
D02*
G37*
G36*
X140546Y143770D02*
X139046D01*
X137661Y143196D01*
X136600Y142135D01*
X136026Y140750D01*
Y139250D01*
X136600Y137864D01*
X137661Y136804D01*
X139046Y136230D01*
X140546D01*
X141932Y136804D01*
X142992Y137864D01*
X143566Y139250D01*
Y140750D01*
X142992Y142135D01*
X141932Y143196D01*
X140546Y143770D01*
D02*
G37*
G36*
X791198Y154883D02*
X788946Y154435D01*
X787038Y153160D01*
X785762Y151251D01*
X785315Y149000D01*
Y141000D01*
X785762Y138749D01*
X787038Y136840D01*
X788946Y135565D01*
X791198Y135117D01*
X793449Y135565D01*
X795358Y136840D01*
X796633Y138749D01*
X797081Y141000D01*
Y149000D01*
X796633Y151251D01*
X795358Y153160D01*
X793449Y154435D01*
X791198Y154883D01*
D02*
G37*
G36*
X623038Y142030D02*
X621522D01*
X620122Y141450D01*
X619050Y140378D01*
X618470Y138978D01*
Y137462D01*
X619050Y136062D01*
X620122Y134990D01*
X621522Y134410D01*
X623038D01*
X624438Y134990D01*
X625510Y136062D01*
X626090Y137462D01*
Y138978D01*
X625510Y140378D01*
X624438Y141450D01*
X623038Y142030D01*
D02*
G37*
G36*
X368258Y139724D02*
X366742D01*
X365342Y139144D01*
X364270Y138072D01*
X363690Y136671D01*
Y135156D01*
X364270Y133755D01*
X365342Y132684D01*
X366742Y132104D01*
X368258D01*
X369658Y132684D01*
X370730Y133755D01*
X371310Y135156D01*
Y136671D01*
X370730Y138072D01*
X369658Y139144D01*
X368258Y139724D01*
D02*
G37*
G36*
X164829Y134343D02*
X163329D01*
X161944Y133770D01*
X160883Y132709D01*
X160309Y131323D01*
Y130745D01*
X159906Y130492D01*
X159039Y130290D01*
X157709Y131620D01*
X155823Y132709D01*
X153720Y133272D01*
X151543D01*
X149439Y132709D01*
X147554Y131620D01*
X146014Y130080D01*
X144925Y128194D01*
X144361Y126091D01*
Y123913D01*
X144925Y121810D01*
X146014Y119924D01*
X147554Y118385D01*
X149439Y117296D01*
X151543Y116732D01*
X153720D01*
X155823Y117296D01*
X157709Y118385D01*
X159249Y119924D01*
X160338Y121810D01*
X160901Y123913D01*
Y126091D01*
X160706Y126819D01*
X161845Y127476D01*
X161944Y127377D01*
X163329Y126803D01*
X164829D01*
X166215Y127377D01*
X167275Y128438D01*
X167849Y129824D01*
Y131323D01*
X167275Y132709D01*
X166215Y133770D01*
X164829Y134343D01*
D02*
G37*
G36*
X201488Y133273D02*
X199311D01*
X197207Y132710D01*
X195322Y131621D01*
X193782Y130081D01*
X192693Y128195D01*
X192129Y126092D01*
Y123914D01*
X192693Y121811D01*
X193782Y119925D01*
X195322Y118385D01*
X197207Y117297D01*
X199311Y116733D01*
X201488D01*
X203591Y117297D01*
X205477Y118385D01*
X207017Y119925D01*
X208106Y121811D01*
X208669Y123914D01*
Y126092D01*
X208106Y128195D01*
X207017Y130081D01*
X205477Y131621D01*
X203591Y132710D01*
X201488Y133273D01*
D02*
G37*
G36*
X106124Y133270D02*
X103947D01*
X101844Y132706D01*
X99958Y131618D01*
X98418Y130078D01*
X97329Y128192D01*
X96766Y126089D01*
Y123911D01*
X97329Y121808D01*
X98418Y119922D01*
X99958Y118382D01*
X101844Y117294D01*
X103947Y116730D01*
X106124D01*
X108228Y117294D01*
X110114Y118382D01*
X111653Y119922D01*
X112742Y121808D01*
X113306Y123911D01*
Y126089D01*
X112742Y128192D01*
X111653Y130078D01*
X110114Y131618D01*
X108228Y132706D01*
X106124Y133270D01*
D02*
G37*
G36*
X643663Y123286D02*
X641895D01*
X640261Y122610D01*
X639011Y121359D01*
X638334Y119726D01*
Y117957D01*
X639011Y116323D01*
X640261Y115073D01*
X641895Y114396D01*
X643663D01*
X645297Y115073D01*
X646547Y116323D01*
X647224Y117957D01*
Y119726D01*
X646547Y121359D01*
X645297Y122610D01*
X643663Y123286D01*
D02*
G37*
G36*
X180579Y121270D02*
X179079D01*
X177693Y120696D01*
X176633Y119635D01*
X176059Y118250D01*
Y116750D01*
X176633Y115365D01*
X177693Y114304D01*
X179079Y113730D01*
X180579D01*
X181964Y114304D01*
X183025Y115365D01*
X183599Y116750D01*
Y118250D01*
X183025Y119635D01*
X181964Y120696D01*
X180579Y121270D01*
D02*
G37*
G36*
X209431Y114035D02*
X201669D01*
Y106273D01*
X209431D01*
Y114035D01*
D02*
G37*
G36*
X199129D02*
X191367D01*
Y106273D01*
X199129D01*
Y114035D01*
D02*
G37*
G36*
X161663Y114034D02*
X153901D01*
Y106272D01*
X161663D01*
Y114034D01*
D02*
G37*
G36*
X151361D02*
X143599D01*
Y106272D01*
X151361D01*
Y114034D01*
D02*
G37*
G36*
X114068Y114032D02*
X106306D01*
Y106270D01*
X114068D01*
Y114032D01*
D02*
G37*
G36*
X103766D02*
X96004D01*
Y106270D01*
X103766D01*
Y114032D01*
D02*
G37*
G36*
X617698Y108066D02*
X616183D01*
X614782Y107486D01*
X613711Y106415D01*
X613130Y105014D01*
Y103498D01*
X613711Y102098D01*
X614782Y101026D01*
X616183Y100446D01*
X617698D01*
X619099Y101026D01*
X620170Y102098D01*
X620750Y103498D01*
Y105014D01*
X620170Y106415D01*
X619099Y107486D01*
X617698Y108066D01*
D02*
G37*
G36*
X229273Y107127D02*
X227758D01*
X226357Y106546D01*
X225286Y105475D01*
X224706Y104074D01*
Y102559D01*
X225286Y101158D01*
X226357Y100087D01*
X227758Y99507D01*
X229273D01*
X230674Y100087D01*
X231746Y101158D01*
X232326Y102559D01*
Y104074D01*
X231746Y105475D01*
X230674Y106546D01*
X229273Y107127D01*
D02*
G37*
G36*
X209431Y103733D02*
X201669D01*
Y95971D01*
X209431D01*
Y103733D01*
D02*
G37*
G36*
X199129D02*
X191367D01*
Y95971D01*
X199129D01*
Y103733D01*
D02*
G37*
G36*
X161663Y103732D02*
X153901D01*
Y95970D01*
X161663D01*
Y103732D01*
D02*
G37*
G36*
X151361D02*
X143599D01*
Y95970D01*
X151361D01*
Y103732D01*
D02*
G37*
G36*
X114068Y103730D02*
X106306D01*
Y95968D01*
X114068D01*
Y103730D01*
D02*
G37*
G36*
X103766D02*
X96004D01*
Y95968D01*
X103766D01*
Y103730D01*
D02*
G37*
G36*
X140546Y93770D02*
X139046D01*
X137661Y93196D01*
X136600Y92136D01*
X136026Y90750D01*
Y89250D01*
X136600Y87865D01*
X137661Y86804D01*
X139046Y86230D01*
X140546D01*
X141932Y86804D01*
X142992Y87865D01*
X143566Y89250D01*
Y90750D01*
X142992Y92136D01*
X141932Y93196D01*
X140546Y93770D01*
D02*
G37*
G36*
X611910Y90981D02*
X610394D01*
X608994Y90401D01*
X607922Y89330D01*
X607342Y87929D01*
Y86413D01*
X607922Y85013D01*
X608994Y83941D01*
X610394Y83361D01*
X611910D01*
X613310Y83941D01*
X614382Y85013D01*
X614962Y86413D01*
Y87929D01*
X614382Y89330D01*
X613310Y90401D01*
X611910Y90981D01*
D02*
G37*
G36*
X663353Y85850D02*
X661837D01*
X660436Y85270D01*
X659365Y84198D01*
X659070Y83486D01*
X658785Y82798D01*
Y82798D01*
Y81282D01*
X659365Y79882D01*
X660436Y78810D01*
X661837Y78230D01*
X663353D01*
X664753Y78810D01*
X665825Y79882D01*
X666405Y81282D01*
Y82798D01*
X665825Y84198D01*
X664753Y85270D01*
X663353Y85850D01*
D02*
G37*
G36*
X180835Y83441D02*
X179335D01*
X177949Y82867D01*
X176889Y81807D01*
X176315Y80421D01*
Y78921D01*
X176889Y77536D01*
X177949Y76475D01*
X179335Y75901D01*
X180835D01*
X182220Y76475D01*
X183281Y77536D01*
X183855Y78921D01*
Y80421D01*
X183281Y81807D01*
X182220Y82867D01*
X180835Y83441D01*
D02*
G37*
G36*
X224194Y83481D02*
X222678D01*
X221278Y82901D01*
X220206Y81830D01*
X219626Y80429D01*
Y78913D01*
X220206Y77513D01*
X221278Y76441D01*
X222678Y75861D01*
X224194D01*
X225594Y76441D01*
X226666Y77513D01*
X227246Y78913D01*
Y80429D01*
X226666Y81830D01*
X225594Y82901D01*
X224194Y83481D01*
D02*
G37*
G36*
X643663Y69946D02*
X641895D01*
X640261Y69270D01*
X639011Y68019D01*
X638334Y66386D01*
Y64617D01*
X639011Y62983D01*
X640261Y61733D01*
X641895Y61056D01*
X643663D01*
X645297Y61733D01*
X646547Y62983D01*
X647224Y64617D01*
Y66386D01*
X646547Y68019D01*
X645297Y69270D01*
X643663Y69946D01*
D02*
G37*
G36*
X193728Y79398D02*
X191254D01*
X188863Y78758D01*
X186720Y77520D01*
X184971Y75771D01*
X183733Y73628D01*
X183093Y71237D01*
Y68763D01*
X183733Y66372D01*
X184971Y64229D01*
X186720Y62480D01*
X188863Y61242D01*
X191254Y60602D01*
X193728D01*
X196118Y61242D01*
X198261Y62480D01*
X200011Y64229D01*
X201248Y66372D01*
X201889Y68763D01*
Y71237D01*
X201248Y73628D01*
X200011Y75771D01*
X198261Y77520D01*
X196118Y78758D01*
X193728Y79398D01*
D02*
G37*
G36*
X139246D02*
X136771D01*
X134381Y78758D01*
X132238Y77520D01*
X130488Y75771D01*
X129251Y73628D01*
X128610Y71237D01*
Y68763D01*
X129251Y66372D01*
X130488Y64229D01*
X132238Y62480D01*
X134381Y61242D01*
X136771Y60602D01*
X139246D01*
X141636Y61242D01*
X143779Y62480D01*
X145529Y64229D01*
X146766Y66372D01*
X147407Y68763D01*
Y71237D01*
X146766Y73628D01*
X145529Y75771D01*
X143779Y77520D01*
X141636Y78758D01*
X139246Y79398D01*
D02*
G37*
G36*
X238100Y68148D02*
X236584D01*
X235184Y67568D01*
X234112Y66497D01*
X233532Y65096D01*
Y63580D01*
X234112Y62180D01*
X235184Y61108D01*
X236584Y60528D01*
X238100D01*
X239500Y61108D01*
X240572Y62180D01*
X241152Y63580D01*
Y65096D01*
X240572Y66497D01*
X239500Y67568D01*
X238100Y68148D01*
D02*
G37*
G36*
X630534Y68084D02*
X629018D01*
X627618Y67504D01*
X626546Y66432D01*
X625966Y65031D01*
Y63516D01*
X626546Y62116D01*
X627618Y61044D01*
X629018Y60464D01*
X630534D01*
X631934Y61044D01*
X633006Y62116D01*
X633586Y63516D01*
Y65031D01*
X633006Y66432D01*
X631934Y67504D01*
X630534Y68084D01*
D02*
G37*
G36*
X792345Y70770D02*
X790050D01*
X787929Y69892D01*
X786306Y68268D01*
X785428Y66148D01*
Y63852D01*
X786306Y61732D01*
X787929Y60108D01*
X790050Y59230D01*
X792345D01*
X794466Y60108D01*
X796089Y61732D01*
X796968Y63852D01*
Y66148D01*
X796089Y68268D01*
X794466Y69892D01*
X792345Y70770D01*
D02*
G37*
G36*
X784602Y55685D02*
X783086D01*
X781685Y55105D01*
X780614Y54033D01*
X780034Y52633D01*
Y51117D01*
X780614Y49717D01*
X781685Y48645D01*
X783086Y48065D01*
X784602D01*
X786002Y48645D01*
X787074Y49717D01*
X787654Y51117D01*
Y52633D01*
X787074Y54033D01*
X786002Y55105D01*
X784602Y55685D01*
D02*
G37*
G36*
X703634Y53053D02*
X702118D01*
X700718Y52473D01*
X699646Y51401D01*
X699066Y50001D01*
Y48485D01*
X699646Y47085D01*
X700718Y46013D01*
X702118Y45433D01*
X703634D01*
X705034Y46013D01*
X706106Y47085D01*
X706686Y48485D01*
Y50001D01*
X706106Y51401D01*
X705034Y52473D01*
X703634Y53053D01*
D02*
G37*
G36*
X441862Y52228D02*
X440346D01*
X438946Y51648D01*
X437874Y50576D01*
X437294Y49176D01*
Y47660D01*
X437874Y46260D01*
X438946Y45188D01*
X440346Y44608D01*
X441862D01*
X443262Y45188D01*
X444334Y46260D01*
X444914Y47660D01*
Y49176D01*
X444334Y50576D01*
X443262Y51648D01*
X441862Y52228D01*
D02*
G37*
G36*
X419049Y59273D02*
X416082D01*
X413216Y58505D01*
X410646Y57022D01*
X408547Y54923D01*
X407064Y52354D01*
X406296Y49487D01*
Y46520D01*
X407064Y43653D01*
X408547Y41083D01*
X410646Y38985D01*
X413216Y37501D01*
X416082Y36733D01*
X419049D01*
X421916Y37501D01*
X424486Y38985D01*
X426584Y41083D01*
X428068Y43653D01*
X428836Y46520D01*
Y49487D01*
X428068Y52354D01*
X426584Y54923D01*
X424486Y57022D01*
X421916Y58505D01*
X419049Y59273D01*
D02*
G37*
G36*
X68871Y36386D02*
X65224Y35906D01*
X61826Y34499D01*
X58907Y32259D01*
X56668Y29341D01*
X55261Y25943D01*
X54780Y22296D01*
X55261Y18649D01*
X56668Y15251D01*
X58907Y12332D01*
X61826Y10093D01*
X65224Y8685D01*
X68871Y8205D01*
X72518Y8685D01*
X75916Y10093D01*
X78834Y12332D01*
X81074Y15251D01*
X82481Y18649D01*
X82961Y22296D01*
X82481Y25943D01*
X81074Y29341D01*
X78834Y32259D01*
X75916Y34499D01*
X72518Y35906D01*
X68871Y36386D01*
D02*
G37*
G36*
X504642Y502430D02*
X502168D01*
X499778Y501790D01*
X497635Y500552D01*
X495885Y498802D01*
X494648Y496660D01*
X494007Y494269D01*
Y491795D01*
X494648Y489404D01*
X495885Y487261D01*
X497635Y485512D01*
X499778Y484274D01*
X502168Y483634D01*
X504642D01*
X507033Y484274D01*
X509176Y485512D01*
X510925Y487261D01*
X512163Y489404D01*
X512803Y491795D01*
Y494269D01*
X512163Y496660D01*
X510925Y498802D01*
X509176Y500552D01*
X507033Y501790D01*
X504642Y502430D01*
D02*
G37*
G36*
X451237Y501851D02*
X448763D01*
X446372Y501210D01*
X444230Y499973D01*
X442480Y498223D01*
X441242Y496080D01*
X440602Y493690D01*
Y491216D01*
X441242Y488825D01*
X442480Y486682D01*
X444230Y484933D01*
X446372Y483695D01*
X448763Y483055D01*
X451237D01*
X453628Y483695D01*
X455770Y484933D01*
X457520Y486682D01*
X458758Y488825D01*
X459398Y491216D01*
Y493690D01*
X458758Y496080D01*
X457520Y498223D01*
X455770Y499973D01*
X453628Y501210D01*
X451237Y501851D01*
D02*
G37*
G36*
X550585Y442333D02*
X548111D01*
X545721Y441693D01*
X543578Y440456D01*
X541828Y438706D01*
X540591Y436563D01*
X539950Y434173D01*
Y431698D01*
X540591Y429308D01*
X541828Y427165D01*
X543578Y425415D01*
X545721Y424178D01*
X548111Y423537D01*
X550585D01*
X552976Y424178D01*
X555119Y425415D01*
X556868Y427165D01*
X558106Y429308D01*
X558746Y431698D01*
Y434173D01*
X558106Y436563D01*
X556868Y438706D01*
X555119Y440456D01*
X552976Y441693D01*
X550585Y442333D01*
D02*
G37*
G36*
X542895Y348698D02*
X528795D01*
Y345230D01*
X527525Y344975D01*
X527500Y345000D01*
X526857Y345471D01*
X526395Y345009D01*
X526395Y344235D01*
Y320835D01*
X528795D01*
Y318598D01*
X542895D01*
Y320835D01*
X545817D01*
X546084Y320568D01*
X547520Y322003D01*
Y344794D01*
X542895D01*
Y348698D01*
D02*
G37*
G36*
X564568Y338469D02*
X563052D01*
X561652Y337889D01*
X560580Y336817D01*
X560000Y335417D01*
Y333901D01*
X560580Y332501D01*
X561652Y331429D01*
X563052Y330849D01*
X564568D01*
X565968Y331429D01*
X567040Y332501D01*
X567620Y333901D01*
Y335417D01*
X567040Y336817D01*
X565968Y337889D01*
X564568Y338469D01*
D02*
G37*
%LPD*%
D23*
X417566Y223303D02*
D03*
D41*
X735007Y465856D02*
D03*
X583560Y432833D02*
D03*
D115*
X355914Y305516D02*
D03*
X285443Y289532D02*
D03*
X325584Y260729D02*
D03*
X328253Y319928D02*
D03*
X302584Y218206D02*
D03*
X246344Y239607D02*
D03*
X246210Y316572D02*
D03*
X309084Y212266D02*
D03*
X107713Y248916D02*
D03*
X559293Y328719D02*
D03*
X510710Y328505D02*
D03*
X188123Y256686D02*
D03*
X46003Y378314D02*
D03*
X163834Y246059D02*
D03*
X168388Y223303D02*
D03*
X52900Y352428D02*
D03*
X53011Y331928D02*
D03*
X63667Y299120D02*
D03*
X82602Y467269D02*
D03*
X62037Y250315D02*
D03*
X441104Y48418D02*
D03*
X640474Y44527D02*
D03*
X616940Y104256D02*
D03*
X622280Y138220D02*
D03*
X642338Y140633D02*
D03*
X611152Y87171D02*
D03*
X625449Y89671D02*
D03*
X595418Y266639D02*
D03*
X237342Y64338D02*
D03*
X564568Y237015D02*
D03*
X559488Y279208D02*
D03*
X110536Y297426D02*
D03*
X129578Y332245D02*
D03*
X140276Y343928D02*
D03*
X168190Y195963D02*
D03*
X168289Y206952D02*
D03*
X595787Y319559D02*
D03*
X589698D02*
D03*
X575061D02*
D03*
X427967Y349724D02*
D03*
X416942Y354981D02*
D03*
X422340Y428386D02*
D03*
X444284Y470737D02*
D03*
X458898Y472363D02*
D03*
X109673Y219462D02*
D03*
X117861Y379729D02*
D03*
X122720Y451928D02*
D03*
X134658Y390204D02*
D03*
X792622Y300445D02*
D03*
X794159Y338108D02*
D03*
X210930Y165003D02*
D03*
X211772Y105003D02*
D03*
X223436Y79671D02*
D03*
X228516Y103316D02*
D03*
X219778Y410778D02*
D03*
X198283Y355368D02*
D03*
X208790Y312366D02*
D03*
X445398Y283644D02*
D03*
X423143Y329481D02*
D03*
X457728Y446887D02*
D03*
Y361340D02*
D03*
X473164Y333898D02*
D03*
X128112Y105000D02*
D03*
X172735Y105001D02*
D03*
X170460Y165000D02*
D03*
X122846D02*
D03*
X138366Y219762D02*
D03*
X179136Y224364D02*
D03*
X182460Y523645D02*
D03*
X409943Y331708D02*
D03*
X204247Y195963D02*
D03*
X57604Y456351D02*
D03*
Y444381D02*
D03*
X142355Y315020D02*
D03*
X101575Y393416D02*
D03*
X96495Y511212D02*
D03*
X37399Y508190D02*
D03*
Y488763D02*
D03*
X240471Y325271D02*
D03*
X201521Y511966D02*
D03*
X226540Y544528D02*
D03*
X171026Y535928D02*
D03*
X317978Y523645D02*
D03*
X330063Y532645D02*
D03*
X171026Y475928D02*
D03*
X146476Y406281D02*
D03*
X101575Y587500D02*
D03*
X322874Y547928D02*
D03*
X312500Y439928D02*
D03*
X144580Y568843D02*
D03*
X171026Y444991D02*
D03*
X235000Y463928D02*
D03*
X207420Y303749D02*
D03*
X222968Y439928D02*
D03*
X226884Y415777D02*
D03*
X387104Y565800D02*
D03*
X365207Y565510D02*
D03*
X343807Y565480D02*
D03*
X399148Y594662D02*
D03*
X398461Y612480D02*
D03*
X398450Y627818D02*
D03*
X158220Y603645D02*
D03*
X159856Y629398D02*
D03*
X406070Y548481D02*
D03*
X634799Y217500D02*
D03*
X743945Y297130D02*
D03*
X33362Y414251D02*
D03*
X154442Y275000D02*
D03*
X162620Y269124D02*
D03*
X105080Y366682D02*
D03*
X63649Y285724D02*
D03*
X33362Y422668D02*
D03*
X142125Y281598D02*
D03*
X367500Y135914D02*
D03*
X787773Y219678D02*
D03*
X756737Y219805D02*
D03*
X660527Y98269D02*
D03*
X666488Y104256D02*
D03*
X629776Y64274D02*
D03*
X783844Y51875D02*
D03*
X702876Y49243D02*
D03*
X662595Y82040D02*
D03*
X585585Y339242D02*
D03*
X665637Y188250D02*
D03*
X807210Y193250D02*
D03*
X783637Y178459D02*
D03*
X687949Y170000D02*
D03*
X746324Y361579D02*
D03*
X731837Y354302D02*
D03*
X629879Y225186D02*
D03*
X642226Y217500D02*
D03*
X634686Y211348D02*
D03*
X642338D02*
D03*
X650054Y217500D02*
D03*
X657481Y211348D02*
D03*
X657468Y224870D02*
D03*
X657392Y231576D02*
D03*
X616940Y266639D02*
D03*
X616391Y291144D02*
D03*
X616257Y297812D02*
D03*
X677891Y400153D02*
D03*
Y386094D02*
D03*
Y393408D02*
D03*
X684587Y393436D02*
D03*
Y386374D02*
D03*
Y379694D02*
D03*
X783432Y395260D02*
D03*
X790681D02*
D03*
X798154D02*
D03*
X806131Y395495D02*
D03*
X814838Y396012D02*
D03*
X822957Y396075D02*
D03*
X822677Y403130D02*
D03*
X822212Y410280D02*
D03*
X815031Y403218D02*
D03*
X814628Y409854D02*
D03*
X472472Y341400D02*
D03*
Y348451D02*
D03*
Y355278D02*
D03*
X481108Y355217D02*
D03*
X480701Y332942D02*
D03*
X563810Y334659D02*
D03*
X653853Y607744D02*
D03*
X687875Y415699D02*
D03*
X698459D02*
D03*
X693167Y420991D02*
D03*
X698459Y426283D02*
D03*
X687875D02*
D03*
X621332Y464224D02*
D03*
X747037Y555624D02*
D03*
X332500Y415928D02*
D03*
X330063Y428435D02*
D03*
X410515Y363498D02*
D03*
X393284Y405790D02*
D03*
X362853Y379052D02*
D03*
X792154Y361523D02*
D03*
X621415Y286976D02*
D03*
X467438Y484802D02*
D03*
X517502Y479205D02*
D03*
X657557Y217500D02*
D03*
X650054Y211348D02*
D03*
X409954Y485132D02*
D03*
X325023Y356070D02*
D03*
Y367928D02*
D03*
X424978Y548481D02*
D03*
X638486Y516390D02*
D03*
X607556Y512850D02*
D03*
X655992Y511224D02*
D03*
X581188Y463928D02*
D03*
X586268Y458515D02*
D03*
X597650Y448656D02*
D03*
X608387Y529258D02*
D03*
X512752Y547844D02*
D03*
X712966Y449751D02*
D03*
X692910Y392265D02*
D03*
X460000Y547844D02*
D03*
X545619Y296143D02*
D03*
X655234Y428088D02*
D03*
X495084Y614470D02*
D03*
X469707Y615087D02*
D03*
X444284Y615002D02*
D03*
X664802Y350991D02*
D03*
X635563Y341219D02*
D03*
X659414Y490217D02*
D03*
Y472047D02*
D03*
X510849Y301356D02*
D03*
X652856Y380564D02*
D03*
X701832Y504832D02*
D03*
X742741Y392647D02*
D03*
X715384Y351057D02*
D03*
X671727Y350991D02*
D03*
X659715Y443292D02*
D03*
X664053Y409096D02*
D03*
X604833Y611240D02*
D03*
X625913Y607490D02*
D03*
X770635Y601394D02*
D03*
X702621Y569644D02*
D03*
X644201Y607490D02*
D03*
X652075Y564056D02*
D03*
D116*
X332500Y245173D02*
D03*
X336951Y284034D02*
D03*
X337023Y295030D02*
D03*
X252659Y205492D02*
D03*
X252829Y259433D02*
D03*
X397891Y301602D02*
D03*
X381181Y324369D02*
D03*
X63647Y365767D02*
D03*
X65085Y314360D02*
D03*
X164079Y130573D02*
D03*
X163950Y179478D02*
D03*
X628803Y184187D02*
D03*
X120583Y221794D02*
D03*
X180085Y79671D02*
D03*
X139796Y90000D02*
D03*
Y140000D02*
D03*
X179829Y117500D02*
D03*
X96247Y314905D02*
D03*
X219883Y518043D02*
D03*
X188930Y528968D02*
D03*
X182460Y494632D02*
D03*
X96587Y404872D02*
D03*
X112625Y390010D02*
D03*
X138125Y471551D02*
D03*
X168598Y418318D02*
D03*
X220114Y433926D02*
D03*
X240471Y434173D02*
D03*
X189420Y506310D02*
D03*
X219830Y532698D02*
D03*
X198283Y467243D02*
D03*
X171026Y516929D02*
D03*
X144414Y553779D02*
D03*
X156660Y444460D02*
D03*
X162120Y457081D02*
D03*
X530849Y341144D02*
D03*
Y326144D02*
D03*
X540849D02*
D03*
Y341144D02*
D03*
X535849Y333644D02*
D03*
X638879Y300144D02*
D03*
Y292144D02*
D03*
D131*
X417566Y48003D02*
D03*
D132*
X444284Y575558D02*
D03*
Y600957D02*
D03*
X469684Y575558D02*
D03*
Y600957D02*
D03*
X495084Y575558D02*
D03*
D133*
Y600957D02*
D03*
D134*
X200399Y105003D02*
D03*
X105036Y105000D02*
D03*
X152631Y105002D02*
D03*
X457500Y435778D02*
D03*
D135*
X200399Y125003D02*
D03*
Y145003D02*
D03*
Y165003D02*
D03*
X105036Y125000D02*
D03*
Y145000D02*
D03*
Y165000D02*
D03*
X152631Y125002D02*
D03*
Y145002D02*
D03*
Y165002D02*
D03*
X457500Y375778D02*
D03*
Y395778D02*
D03*
Y415778D02*
D03*
D136*
X149430Y234723D02*
D03*
X812717Y338644D02*
D03*
X192491Y70000D02*
D03*
X138008D02*
D03*
X112522Y406281D02*
D03*
X813987Y300940D02*
D03*
X137238Y264375D02*
D03*
X406136Y316940D02*
D03*
X434275Y315064D02*
D03*
X112612Y499415D02*
D03*
X112970Y433710D02*
D03*
Y582697D02*
D03*
X112522Y471551D02*
D03*
X112727Y554688D02*
D03*
X112571Y526889D02*
D03*
X549348Y432935D02*
D03*
X503405Y493032D02*
D03*
X390284Y494632D02*
D03*
X450000Y492453D02*
D03*
X598929Y282134D02*
D03*
X141770Y583811D02*
D03*
X610958Y244792D02*
D03*
X468662Y318598D02*
D03*
D137*
X153140Y543443D02*
D03*
D138*
Y518043D02*
D03*
Y492643D02*
D03*
Y467243D02*
D03*
D139*
X791198Y145000D02*
D03*
D140*
Y65000D02*
D03*
D141*
X781327Y561007D02*
D03*
Y512507D02*
D03*
D142*
X812127Y577757D02*
D03*
Y495757D02*
D03*
D143*
X270681Y502174D02*
D03*
X260681D02*
D03*
X270681Y512174D02*
D03*
X260681D02*
D03*
X292500Y502174D02*
D03*
X282500D02*
D03*
X292500Y512174D02*
D03*
X282500D02*
D03*
X270681Y480000D02*
D03*
X260681D02*
D03*
X270681Y490000D02*
D03*
X260681D02*
D03*
X292500Y480000D02*
D03*
X282500D02*
D03*
X292500Y490000D02*
D03*
X282500D02*
D03*
X261207Y379619D02*
D03*
X251207D02*
D03*
X261207Y389619D02*
D03*
X251207D02*
D03*
X290443Y379619D02*
D03*
X280443D02*
D03*
X290443Y389619D02*
D03*
X280443D02*
D03*
X290443Y351070D02*
D03*
X280443D02*
D03*
X290443Y361070D02*
D03*
X280443D02*
D03*
X261207Y351070D02*
D03*
X251207D02*
D03*
X261207Y361070D02*
D03*
X251207D02*
D03*
D144*
X642779Y118841D02*
D03*
Y65501D02*
D03*
M02*
