G04*
G04 #@! TF.GenerationSoftware,Altium Limited,Altium Designer,24.1.2 (44)*
G04*
G04 Layer_Physical_Order=4*
G04 Layer_Color=16711680*
%FSLAX44Y44*%
%MOMM*%
G71*
G04*
G04 #@! TF.SameCoordinates,E849002E-D005-4F9B-B670-832AB9F5597C*
G04*
G04*
G04 #@! TF.FilePolarity,Positive*
G04*
G01*
G75*
%ADD10C,0.2540*%
%ADD23R,2.0000X2.0000*%
%ADD41C,1.2700*%
%ADD115C,0.5080*%
%ADD116C,0.5000*%
%ADD126C,0.2030*%
%ADD131C,2.0000*%
%ADD132C,1.6000*%
G04:AMPARAMS|DCode=133|XSize=1.6mm|YSize=1.6mm|CornerRadius=0.4mm|HoleSize=0mm|Usage=FLASHONLY|Rotation=180.000|XOffset=0mm|YOffset=0mm|HoleType=Round|Shape=RoundedRectangle|*
%AMROUNDEDRECTD133*
21,1,1.6000,0.8000,0,0,180.0*
21,1,0.8000,1.6000,0,0,180.0*
1,1,0.8000,-0.4000,0.4000*
1,1,0.8000,0.4000,0.4000*
1,1,0.8000,0.4000,-0.4000*
1,1,0.8000,-0.4000,-0.4000*
%
%ADD133ROUNDEDRECTD133*%
%ADD134R,1.4000X1.4000*%
%ADD135C,1.4000*%
%ADD136C,1.6256*%
%ADD137R,1.3980X1.3980*%
%ADD138C,1.3980*%
%ADD139O,0.9000X1.7000*%
%ADD140C,0.9000*%
%ADD141O,1.4600X1.0000*%
%ADD142O,1.8000X1.0000*%
%ADD143C,0.5500*%
%ADD144C,0.6350*%
D10*
X332500Y245173D02*
X355914Y268587D01*
Y305516D01*
X336951Y284034D02*
X336987Y284070D01*
Y294994D01*
X337023Y295030D01*
X317978Y233600D02*
Y360883D01*
X302584Y218206D02*
X317978Y233600D01*
Y360883D02*
X325023Y367928D01*
X362415Y265597D02*
Y318677D01*
X325023Y356070D02*
X362415Y318677D01*
X309084Y212266D02*
X362415Y265597D01*
X252829Y205663D02*
Y259433D01*
X252659Y205492D02*
X252829Y205663D01*
X397891Y242978D02*
Y301602D01*
Y242978D02*
X417566Y223303D01*
X246277Y239674D02*
X246344Y239607D01*
X246277Y239674D02*
Y316505D01*
X246210Y316572D02*
X246277Y316505D01*
X367500Y135914D02*
Y374405D01*
X362853Y379052D02*
X367500Y374405D01*
X162620Y269124D02*
Y269812D01*
X162120Y270312D02*
X162620Y269812D01*
X162120Y270312D02*
Y457081D01*
X63647Y316464D02*
X65085Y315026D01*
Y314360D02*
Y315026D01*
X63647Y316464D02*
Y364721D01*
X164079Y130573D02*
Y130768D01*
X163950Y130898D02*
X164079Y130768D01*
X163950Y130898D02*
Y179478D01*
X616940Y132880D02*
X622280Y138220D01*
X616940Y104354D02*
Y132880D01*
X628803Y104823D02*
Y184187D01*
X611152Y87171D02*
X628803Y104823D01*
X629776Y86814D02*
X635814Y92852D01*
Y134109D01*
X642338Y140633D01*
X629776Y64274D02*
Y86814D01*
X600995Y266639D02*
X621332Y286976D01*
X595418Y266639D02*
X600995D01*
X237342Y64338D02*
Y259366D01*
X235000Y261708D02*
X237342Y259366D01*
X564568Y237015D02*
Y309067D01*
X575061Y319559D01*
X154442Y275032D02*
X157168Y277758D01*
X156660Y387317D02*
Y444460D01*
X157168Y277758D02*
Y386809D01*
X154442Y275000D02*
Y275032D01*
X156660Y387317D02*
X157168Y386809D01*
X110536Y297426D02*
Y381343D01*
X123405Y234723D02*
Y418351D01*
Y234723D02*
X138366Y219762D01*
X129578Y332245D02*
Y553841D01*
X117861Y224516D02*
Y379729D01*
Y224516D02*
X120583Y221794D01*
X123405Y418351D02*
X123638Y418584D01*
Y438129D01*
X129578Y553841D02*
X144580Y568843D01*
X139738Y346262D02*
X139790Y346210D01*
Y344414D02*
X140276Y343928D01*
X139790Y344414D02*
Y346210D01*
X427967Y349724D02*
Y472651D01*
X431132Y475817D01*
X416088Y448057D02*
X416942Y447202D01*
Y354981D02*
Y447202D01*
X416088Y448057D02*
Y539591D01*
X422269Y380624D02*
X422438Y380793D01*
X422269Y331041D02*
X423143Y330168D01*
X422269Y331041D02*
Y380624D01*
X423143Y329481D02*
Y330168D01*
X422438Y380793D02*
Y428289D01*
X422340Y428386D02*
X422438Y428289D01*
X444284Y470049D02*
X445398Y468936D01*
X444284Y470049D02*
Y470737D01*
X445398Y283644D02*
Y468936D01*
X431132Y475817D02*
X448469D01*
X451922Y472363D02*
X458898D01*
X448469Y475817D02*
X451922Y472363D01*
X409943Y338756D02*
X410515Y339328D01*
X409943Y331708D02*
Y338756D01*
X410515Y339328D02*
Y363498D01*
X416088Y539591D02*
X424978Y548481D01*
X110536Y381343D02*
X112625Y383433D01*
Y390010D01*
X122720Y439047D02*
Y451928D01*
Y439047D02*
X123638Y438129D01*
X139738Y346262D02*
Y419801D01*
X138125Y421414D02*
Y471551D01*
Y421414D02*
X139738Y419801D01*
X226884Y415090D02*
X229668Y412305D01*
Y161287D02*
Y412305D01*
X228516Y160135D02*
X229668Y161287D01*
X228516Y103316D02*
Y160135D01*
X223436Y79671D02*
Y203350D01*
X218356Y208430D02*
X223436Y203350D01*
X179829Y79927D02*
X180085Y79671D01*
X179829Y79927D02*
Y117500D01*
X139796Y90000D02*
Y140000D01*
X223436Y79671D02*
X223436Y79671D01*
X218356Y208430D02*
Y308549D01*
X219778Y309971D01*
Y410778D01*
X184206Y433926D02*
X220114D01*
X168598Y418318D02*
X184206Y433926D01*
X96247Y314905D02*
X96417Y315075D01*
Y404702D01*
X96587Y404872D01*
X235000Y261708D02*
Y463928D01*
X226884Y415090D02*
Y415777D01*
X190908Y518043D02*
X219883D01*
X189420Y506310D02*
Y516555D01*
X190908Y518043D01*
X193273Y532645D02*
X219778D01*
X189596Y528968D02*
X193273Y532645D01*
X188930Y528968D02*
X189596D01*
X182460Y494632D02*
Y523645D01*
X96494Y404964D02*
Y502468D01*
X96495Y502469D01*
X101575Y493589D02*
Y587500D01*
Y493589D02*
X101627Y493538D01*
Y400800D02*
Y493538D01*
X101575Y400749D02*
X101627Y400800D01*
X101575Y393416D02*
Y400749D01*
X142240Y281713D02*
Y314905D01*
X142125Y281598D02*
X142240Y281713D01*
Y314905D02*
X142355Y315020D01*
X96495Y502469D02*
Y511212D01*
X142907Y473897D02*
Y552138D01*
Y469205D02*
X143165Y469463D01*
X142907Y463999D02*
Y469205D01*
X143165Y469463D02*
Y473638D01*
X142907Y473897D02*
X143165Y473638D01*
X146476Y406281D02*
Y460429D01*
X144414Y553645D02*
Y553779D01*
X142907Y463999D02*
X146476Y460429D01*
X142907Y552138D02*
X144414Y553645D01*
X240471Y325271D02*
Y434173D01*
Y325271D02*
X240747Y325546D01*
X201521Y468731D02*
Y511966D01*
X219778Y532645D02*
X219830Y532698D01*
X171026Y516929D02*
Y535928D01*
X317978Y430450D02*
Y523645D01*
X330063Y428435D02*
Y532645D01*
X198283Y467243D02*
X198948D01*
X200436Y468731D01*
X201521D01*
X171026Y444991D02*
Y475928D01*
X317978Y430450D02*
X332500Y415928D01*
X621332Y286976D02*
X621415D01*
X261207Y351070D02*
X280443D01*
X634759Y501252D02*
X638486Y504979D01*
Y516390D01*
X586268Y484654D02*
X602866Y501252D01*
X634759D01*
X581327Y464067D02*
Y486022D01*
X607556Y512251D01*
X586268Y458515D02*
Y484654D01*
X607556Y512251D02*
Y512850D01*
X655992Y511224D02*
Y559452D01*
X652075Y563369D02*
Y564056D01*
Y563369D02*
X655992Y559452D01*
X581188Y463928D02*
X581327Y464067D01*
X659414Y472047D02*
Y490217D01*
X290443Y361070D02*
Y379619D01*
X251207Y361070D02*
Y379619D01*
X260681Y480000D02*
X260944Y479737D01*
Y389882D02*
Y479737D01*
Y389882D02*
X261207Y389619D01*
X260681Y490000D02*
Y502174D01*
X270681Y480000D02*
X282500D01*
X270681Y512174D02*
X282500D01*
D23*
X417566Y223303D02*
D03*
D41*
X735007Y465856D02*
D03*
X583560Y432833D02*
D03*
D115*
X355914Y305516D02*
D03*
X285443Y289532D02*
D03*
X325584Y260729D02*
D03*
X328253Y319928D02*
D03*
X302584Y218206D02*
D03*
X246344Y239607D02*
D03*
X246210Y316572D02*
D03*
X309084Y212266D02*
D03*
X107713Y248916D02*
D03*
X559293Y328719D02*
D03*
X510710Y328505D02*
D03*
X188123Y256686D02*
D03*
X46003Y378314D02*
D03*
X163834Y246059D02*
D03*
X168388Y223303D02*
D03*
X52900Y352428D02*
D03*
X53011Y331928D02*
D03*
X63667Y299120D02*
D03*
X82602Y467269D02*
D03*
X62037Y250315D02*
D03*
X441104Y48418D02*
D03*
X640474Y44527D02*
D03*
X616940Y104256D02*
D03*
X622280Y138220D02*
D03*
X642338Y140633D02*
D03*
X611152Y87171D02*
D03*
X625449Y89671D02*
D03*
X595418Y266639D02*
D03*
X237342Y64338D02*
D03*
X564568Y237015D02*
D03*
X559488Y279208D02*
D03*
X110536Y297426D02*
D03*
X129578Y332245D02*
D03*
X140276Y343928D02*
D03*
X168190Y195963D02*
D03*
X168289Y206952D02*
D03*
X595787Y319559D02*
D03*
X589698D02*
D03*
X575061D02*
D03*
X427967Y349724D02*
D03*
X416942Y354981D02*
D03*
X422340Y428386D02*
D03*
X444284Y470737D02*
D03*
X458898Y472363D02*
D03*
X109673Y219462D02*
D03*
X117861Y379729D02*
D03*
X122720Y451928D02*
D03*
X134658Y390204D02*
D03*
X792622Y300445D02*
D03*
X794159Y338108D02*
D03*
X210930Y165003D02*
D03*
X211772Y105003D02*
D03*
X223436Y79671D02*
D03*
X228516Y103316D02*
D03*
X219778Y410778D02*
D03*
X198283Y355368D02*
D03*
X208790Y312366D02*
D03*
X445398Y283644D02*
D03*
X423143Y329481D02*
D03*
X457728Y446887D02*
D03*
Y361340D02*
D03*
X473164Y333898D02*
D03*
X128112Y105000D02*
D03*
X172735Y105001D02*
D03*
X170460Y165000D02*
D03*
X122846D02*
D03*
X138366Y219762D02*
D03*
X179136Y224364D02*
D03*
X182460Y523645D02*
D03*
X409943Y331708D02*
D03*
X204247Y195963D02*
D03*
X57604Y456351D02*
D03*
Y444381D02*
D03*
X142355Y315020D02*
D03*
X101575Y393416D02*
D03*
X96495Y511212D02*
D03*
X37399Y508190D02*
D03*
Y488763D02*
D03*
X240471Y325271D02*
D03*
X201521Y511966D02*
D03*
X226540Y544528D02*
D03*
X171026Y535928D02*
D03*
X317978Y523645D02*
D03*
X330063Y532645D02*
D03*
X171026Y475928D02*
D03*
X146476Y406281D02*
D03*
X101575Y587500D02*
D03*
X322874Y547928D02*
D03*
X312500Y439928D02*
D03*
X144580Y568843D02*
D03*
X171026Y444991D02*
D03*
X235000Y463928D02*
D03*
X207420Y303749D02*
D03*
X222968Y439928D02*
D03*
X226884Y415777D02*
D03*
X387104Y565800D02*
D03*
X365207Y565510D02*
D03*
X343807Y565480D02*
D03*
X399148Y594662D02*
D03*
X398461Y612480D02*
D03*
X398450Y627818D02*
D03*
X158220Y603645D02*
D03*
X159856Y629398D02*
D03*
X406070Y548481D02*
D03*
X634799Y217500D02*
D03*
X743945Y297130D02*
D03*
X33362Y414251D02*
D03*
X154442Y275000D02*
D03*
X162620Y269124D02*
D03*
X105080Y366682D02*
D03*
X63649Y285724D02*
D03*
X33362Y422668D02*
D03*
X142125Y281598D02*
D03*
X367500Y135914D02*
D03*
X787773Y219678D02*
D03*
X756737Y219805D02*
D03*
X660527Y98269D02*
D03*
X666488Y104256D02*
D03*
X629776Y64274D02*
D03*
X783844Y51875D02*
D03*
X702876Y49243D02*
D03*
X662595Y82040D02*
D03*
X585585Y339242D02*
D03*
X665637Y188250D02*
D03*
X807210Y193250D02*
D03*
X783637Y178459D02*
D03*
X687949Y170000D02*
D03*
X746324Y361579D02*
D03*
X731837Y354302D02*
D03*
X629879Y225186D02*
D03*
X642226Y217500D02*
D03*
X634686Y211348D02*
D03*
X642338D02*
D03*
X650054Y217500D02*
D03*
X657481Y211348D02*
D03*
X657468Y224870D02*
D03*
X657392Y231576D02*
D03*
X616940Y266639D02*
D03*
X616391Y291144D02*
D03*
X616257Y297812D02*
D03*
X677891Y400153D02*
D03*
Y386094D02*
D03*
Y393408D02*
D03*
X684587Y393436D02*
D03*
Y386374D02*
D03*
Y379694D02*
D03*
X783432Y395260D02*
D03*
X790681D02*
D03*
X798154D02*
D03*
X806131Y395495D02*
D03*
X814838Y396012D02*
D03*
X822957Y396075D02*
D03*
X822677Y403130D02*
D03*
X822212Y410280D02*
D03*
X815031Y403218D02*
D03*
X814628Y409854D02*
D03*
X472472Y341400D02*
D03*
Y348451D02*
D03*
Y355278D02*
D03*
X481108Y355217D02*
D03*
X480701Y332942D02*
D03*
X563810Y334659D02*
D03*
X653853Y607744D02*
D03*
X687875Y415699D02*
D03*
X698459D02*
D03*
X693167Y420991D02*
D03*
X698459Y426283D02*
D03*
X687875D02*
D03*
X621332Y464224D02*
D03*
X747037Y555624D02*
D03*
X332500Y415928D02*
D03*
X330063Y428435D02*
D03*
X410515Y363498D02*
D03*
X393284Y405790D02*
D03*
X362853Y379052D02*
D03*
X792154Y361523D02*
D03*
X621415Y286976D02*
D03*
X467438Y484802D02*
D03*
X517502Y479205D02*
D03*
X657557Y217500D02*
D03*
X650054Y211348D02*
D03*
X409954Y485132D02*
D03*
X325023Y356070D02*
D03*
Y367928D02*
D03*
X424978Y548481D02*
D03*
X638486Y516390D02*
D03*
X607556Y512850D02*
D03*
X655992Y511224D02*
D03*
X581188Y463928D02*
D03*
X586268Y458515D02*
D03*
X597650Y448656D02*
D03*
X608387Y529258D02*
D03*
X512752Y547844D02*
D03*
X712966Y449751D02*
D03*
X692910Y392265D02*
D03*
X460000Y547844D02*
D03*
X545619Y296143D02*
D03*
X655234Y428088D02*
D03*
X495084Y614470D02*
D03*
X469707Y615087D02*
D03*
X444284Y615002D02*
D03*
X664802Y350991D02*
D03*
X635563Y341219D02*
D03*
X659414Y490217D02*
D03*
Y472047D02*
D03*
X510849Y301356D02*
D03*
X652856Y380564D02*
D03*
X701832Y504832D02*
D03*
X742741Y392647D02*
D03*
X715384Y351057D02*
D03*
X671727Y350991D02*
D03*
X659715Y443292D02*
D03*
X664053Y409096D02*
D03*
X604833Y611240D02*
D03*
X625913Y607490D02*
D03*
X770635Y601394D02*
D03*
X702621Y569644D02*
D03*
X644201Y607490D02*
D03*
X652075Y564056D02*
D03*
D116*
X332500Y245173D02*
D03*
X336951Y284034D02*
D03*
X337023Y295030D02*
D03*
X252659Y205492D02*
D03*
X252829Y259433D02*
D03*
X397891Y301602D02*
D03*
X381181Y324369D02*
D03*
X63647Y365767D02*
D03*
X65085Y314360D02*
D03*
X164079Y130573D02*
D03*
X163950Y179478D02*
D03*
X628803Y184187D02*
D03*
X120583Y221794D02*
D03*
X180085Y79671D02*
D03*
X139796Y90000D02*
D03*
Y140000D02*
D03*
X179829Y117500D02*
D03*
X96247Y314905D02*
D03*
X219883Y518043D02*
D03*
X188930Y528968D02*
D03*
X182460Y494632D02*
D03*
X96587Y404872D02*
D03*
X112625Y390010D02*
D03*
X138125Y471551D02*
D03*
X168598Y418318D02*
D03*
X220114Y433926D02*
D03*
X240471Y434173D02*
D03*
X189420Y506310D02*
D03*
X219830Y532698D02*
D03*
X198283Y467243D02*
D03*
X171026Y516929D02*
D03*
X144414Y553779D02*
D03*
X156660Y444460D02*
D03*
X162120Y457081D02*
D03*
X530849Y341144D02*
D03*
Y326144D02*
D03*
X540849D02*
D03*
Y341144D02*
D03*
X535849Y333644D02*
D03*
X638879Y300144D02*
D03*
Y292144D02*
D03*
D126*
X564118Y313645D02*
Y334351D01*
X559488Y309014D02*
X564118Y313645D01*
X559488Y279208D02*
Y309014D01*
X563810Y334659D02*
X564118Y334351D01*
X652856Y425710D02*
X655234Y428088D01*
X652856Y380564D02*
Y425710D01*
X664427Y351366D02*
Y408721D01*
Y351366D02*
X664802Y350991D01*
X664053Y409096D02*
X664427Y408721D01*
D131*
X417566Y48003D02*
D03*
D132*
X444284Y575558D02*
D03*
Y600957D02*
D03*
X469684Y575558D02*
D03*
Y600957D02*
D03*
X495084Y575558D02*
D03*
D133*
Y600957D02*
D03*
D134*
X200399Y105003D02*
D03*
X105036Y105000D02*
D03*
X152631Y105002D02*
D03*
X457500Y435778D02*
D03*
D135*
X200399Y125003D02*
D03*
Y145003D02*
D03*
Y165003D02*
D03*
X105036Y125000D02*
D03*
Y145000D02*
D03*
Y165000D02*
D03*
X152631Y125002D02*
D03*
Y145002D02*
D03*
Y165002D02*
D03*
X457500Y375778D02*
D03*
Y395778D02*
D03*
Y415778D02*
D03*
D136*
X149430Y234723D02*
D03*
X812717Y338644D02*
D03*
X192491Y70000D02*
D03*
X138008D02*
D03*
X112522Y406281D02*
D03*
X813987Y300940D02*
D03*
X137238Y264375D02*
D03*
X406136Y316940D02*
D03*
X434275Y315064D02*
D03*
X112612Y499415D02*
D03*
X112970Y433710D02*
D03*
Y582697D02*
D03*
X112522Y471551D02*
D03*
X112727Y554688D02*
D03*
X112571Y526889D02*
D03*
X549348Y432935D02*
D03*
X503405Y493032D02*
D03*
X390284Y494632D02*
D03*
X450000Y492453D02*
D03*
X598929Y282134D02*
D03*
X141770Y583811D02*
D03*
X610958Y244792D02*
D03*
X468662Y318598D02*
D03*
D137*
X153140Y543443D02*
D03*
D138*
Y518043D02*
D03*
Y492643D02*
D03*
Y467243D02*
D03*
D139*
X791198Y145000D02*
D03*
D140*
Y65000D02*
D03*
D141*
X781327Y561007D02*
D03*
Y512507D02*
D03*
D142*
X812127Y577757D02*
D03*
Y495757D02*
D03*
D143*
X270681Y502174D02*
D03*
X260681D02*
D03*
X270681Y512174D02*
D03*
X260681D02*
D03*
X292500Y502174D02*
D03*
X282500D02*
D03*
X292500Y512174D02*
D03*
X282500D02*
D03*
X270681Y480000D02*
D03*
X260681D02*
D03*
X270681Y490000D02*
D03*
X260681D02*
D03*
X292500Y480000D02*
D03*
X282500D02*
D03*
X292500Y490000D02*
D03*
X282500D02*
D03*
X261207Y379619D02*
D03*
X251207D02*
D03*
X261207Y389619D02*
D03*
X251207D02*
D03*
X290443Y379619D02*
D03*
X280443D02*
D03*
X290443Y389619D02*
D03*
X280443D02*
D03*
X290443Y351070D02*
D03*
X280443D02*
D03*
X290443Y361070D02*
D03*
X280443D02*
D03*
X261207Y351070D02*
D03*
X251207D02*
D03*
X261207Y361070D02*
D03*
X251207D02*
D03*
D144*
X642779Y118841D02*
D03*
Y65501D02*
D03*
M02*
