G04*
G04 #@! TF.GenerationSoftware,Altium Limited,Altium Designer,24.1.2 (44)*
G04*
G04 Layer_Color=16711935*
%FSLAX44Y44*%
%MOMM*%
G71*
G04*
G04 #@! TF.SameCoordinates,E849002E-D005-4F9B-B670-832AB9F5597C*
G04*
G04*
G04 #@! TF.FilePolarity,Negative*
G04*
G01*
G75*
%ADD80C,1.4732*%
%ADD99R,2.2032X2.2032*%
%ADD100C,2.2032*%
%ADD101C,1.8032*%
G04:AMPARAMS|DCode=102|XSize=1.8032mm|YSize=1.8032mm|CornerRadius=0.5016mm|HoleSize=0mm|Usage=FLASHONLY|Rotation=180.000|XOffset=0mm|YOffset=0mm|HoleType=Round|Shape=RoundedRectangle|*
%AMROUNDEDRECTD102*
21,1,1.8032,0.8000,0,0,180.0*
21,1,0.8000,1.8032,0,0,180.0*
1,1,1.0032,-0.4000,0.4000*
1,1,1.0032,0.4000,0.4000*
1,1,1.0032,0.4000,-0.4000*
1,1,1.0032,-0.4000,-0.4000*
%
%ADD102ROUNDEDRECTD102*%
%ADD103R,1.6032X1.6032*%
%ADD104C,1.6032*%
%ADD105C,1.8288*%
%ADD106R,1.6012X1.6012*%
%ADD107C,1.6012*%
%ADD108O,1.1032X1.9032*%
%ADD109C,1.1032*%
%ADD110O,1.6632X1.2032*%
%ADD111O,2.0032X1.2032*%
%ADD112C,0.7532*%
%ADD113C,0.7032*%
%ADD114C,0.7112*%
%ADD115C,0.5080*%
%ADD116C,0.5000*%
%ADD117C,0.6400*%
D80*
X735007Y465856D02*
D03*
X583560Y432833D02*
D03*
D99*
X417566Y223303D02*
D03*
D100*
Y48003D02*
D03*
D101*
X444284Y575558D02*
D03*
Y600957D02*
D03*
X469684Y575558D02*
D03*
Y600957D02*
D03*
X495084Y575558D02*
D03*
D102*
Y600957D02*
D03*
D103*
X200399Y105003D02*
D03*
X105036Y105000D02*
D03*
X152631Y105002D02*
D03*
X457500Y435778D02*
D03*
D104*
X200399Y125003D02*
D03*
Y145003D02*
D03*
Y165003D02*
D03*
X105036Y125000D02*
D03*
Y145000D02*
D03*
Y165000D02*
D03*
X152631Y125002D02*
D03*
Y145002D02*
D03*
Y165002D02*
D03*
X457500Y375778D02*
D03*
Y395778D02*
D03*
Y415778D02*
D03*
D105*
X149430Y234723D02*
D03*
X812717Y338644D02*
D03*
X192491Y70000D02*
D03*
X138008D02*
D03*
X112522Y406281D02*
D03*
X813987Y300940D02*
D03*
X137238Y264375D02*
D03*
X406136Y316940D02*
D03*
X434275Y315064D02*
D03*
X112612Y499415D02*
D03*
X112970Y433710D02*
D03*
Y582697D02*
D03*
X112522Y471551D02*
D03*
X112727Y554688D02*
D03*
X112571Y526889D02*
D03*
X549348Y432935D02*
D03*
X503405Y493032D02*
D03*
X390284Y494632D02*
D03*
X450000Y492453D02*
D03*
X598929Y282134D02*
D03*
X141770Y583811D02*
D03*
X610958Y244792D02*
D03*
X468662Y318598D02*
D03*
D106*
X153140Y543443D02*
D03*
D107*
Y518043D02*
D03*
Y492643D02*
D03*
Y467243D02*
D03*
D108*
X791198Y145000D02*
D03*
D109*
Y65000D02*
D03*
D110*
X781327Y561007D02*
D03*
Y512507D02*
D03*
D111*
X812127Y577757D02*
D03*
Y495757D02*
D03*
D112*
X270681Y502174D02*
D03*
X260681D02*
D03*
X270681Y512174D02*
D03*
X260681D02*
D03*
X292500Y502174D02*
D03*
X282500D02*
D03*
X292500Y512174D02*
D03*
X282500D02*
D03*
X270681Y480000D02*
D03*
X260681D02*
D03*
X270681Y490000D02*
D03*
X260681D02*
D03*
X292500Y480000D02*
D03*
X282500D02*
D03*
X292500Y490000D02*
D03*
X282500D02*
D03*
X261207Y379619D02*
D03*
X251207D02*
D03*
X261207Y389619D02*
D03*
X251207D02*
D03*
X290443Y379619D02*
D03*
X280443D02*
D03*
X290443Y389619D02*
D03*
X280443D02*
D03*
X290443Y351070D02*
D03*
X280443D02*
D03*
X290443Y361070D02*
D03*
X280443D02*
D03*
X261207Y351070D02*
D03*
X251207D02*
D03*
X261207Y361070D02*
D03*
X251207D02*
D03*
D113*
X252659Y205492D02*
D03*
X252829Y259433D02*
D03*
X397891Y301602D02*
D03*
D114*
X122720Y451928D02*
D03*
X226884Y415777D02*
D03*
X653853Y607744D02*
D03*
X747037Y555624D02*
D03*
X655992Y511224D02*
D03*
X608387Y529258D02*
D03*
X652856Y380564D02*
D03*
X701832Y504832D02*
D03*
X664053Y409096D02*
D03*
X604833Y611240D02*
D03*
X625913Y607490D02*
D03*
X770635Y601394D02*
D03*
X702621Y569644D02*
D03*
X644201Y607490D02*
D03*
X652075Y564056D02*
D03*
D115*
X687875Y415699D02*
D03*
X698459D02*
D03*
X693167Y420991D02*
D03*
X698459Y426283D02*
D03*
X687875D02*
D03*
D116*
X530849Y341144D02*
D03*
Y326144D02*
D03*
X540849D02*
D03*
Y341144D02*
D03*
X535849Y333644D02*
D03*
D117*
X638879Y300144D02*
D03*
Y292144D02*
D03*
M02*
